<svg width="48" height="48" viewBox="0 0 48 48" fill="none" xmlns="http://www.w3.org/2000/svg">
<rect width="48" height="48" rx="12" fill="#EFF0FE"/>
<path d="M34.5 21.6673H13.5M28.6667 12.334V17.0007M19.3333 12.334V17.0007M19.1 35.6673H28.9C30.8602 35.6673 31.8403 35.6673 32.589 35.2858C33.2475 34.9503 33.783 34.4149 34.1185 33.7563C34.5 33.0076 34.5 32.0275 34.5 30.0673V20.2673C34.5 18.3071 34.5 17.327 34.1185 16.5784C33.783 15.9198 33.2475 15.3844 32.589 15.0488C31.8403 14.6673 30.8602 14.6673 28.9 14.6673H19.1C17.1398 14.6673 16.1597 14.6673 15.411 15.0488C14.7525 15.3844 14.217 15.9198 13.8815 16.5784C13.5 17.327 13.5 18.3071 13.5 20.2673V30.0673C13.5 32.0275 13.5 33.0076 13.8815 33.7563C14.217 34.4149 14.7525 34.9503 15.411 35.2858C16.1597 35.6673 17.1398 35.6673 19.1 35.6673Z" stroke="#6366F1" stroke-width="1.75" stroke-linecap="round" stroke-linejoin="round"/>
</svg>
