<svg width="48" height="48" viewBox="0 0 48 48" fill="none" xmlns="http://www.w3.org/2000/svg">
<rect width="48" height="48" rx="12" fill="#EFF0FE"/>
<path d="M20.5 34.4999V25.8665C20.5 25.2131 20.5 24.8864 20.6272 24.6369C20.739 24.4173 20.9175 24.2389 21.137 24.127C21.3866 23.9999 21.7133 23.9999 22.3667 23.9999H25.6333C26.2867 23.9999 26.6134 23.9999 26.863 24.127C27.0825 24.2389 27.261 24.4173 27.3728 24.6369C27.5 24.8864 27.5 25.2131 27.5 25.8665V34.4999M22.854 13.2245L14.9413 19.3789C14.4124 19.7902 14.1479 19.9959 13.9574 20.2535C13.7886 20.4817 13.6629 20.7388 13.5864 21.0121C13.5 21.3206 13.5 21.6557 13.5 22.3258V30.7665C13.5 32.0733 13.5 32.7267 13.7543 33.2258C13.978 33.6649 14.335 34.0218 14.774 34.2455C15.2731 34.4999 15.9265 34.4999 17.2333 34.4999H30.7667C32.0735 34.4999 32.7269 34.4999 33.226 34.2455C33.665 34.0218 34.022 33.6649 34.2457 33.2258C34.5 32.7267 34.5 32.0733 34.5 30.7665V22.3258C34.5 21.6557 34.5 21.3206 34.4136 21.0121C34.3371 20.7388 34.2114 20.4817 34.0426 20.2535C33.8521 19.9959 33.5876 19.7902 33.0587 19.3789L25.146 13.2245C24.7361 12.9057 24.5312 12.7464 24.3049 12.6851C24.1052 12.631 23.8948 12.631 23.6951 12.6851C23.4688 12.7464 23.2639 12.9057 22.854 13.2245Z" stroke="#6366F1" stroke-width="1.75" stroke-linecap="round" stroke-linejoin="round"/>
</svg>
