<svg width="20" height="20" viewBox="0 0 20 20" fill="none" xmlns="http://www.w3.org/2000/svg">
<path d="M2.3993 15.0992C2.43759 14.7546 2.45673 14.5824 2.50887 14.4213C2.55512 14.2784 2.62046 14.1425 2.70314 14.0171C2.79632 13.8758 2.91889 13.7532 3.16404 13.5081L14.1693 2.50285C15.0898 1.58238 16.5822 1.58238 17.5026 2.50286C18.4231 3.42333 18.4231 4.91572 17.5026 5.83619L6.49738 16.8414C6.25222 17.0866 6.12965 17.2091 5.98834 17.3023C5.86298 17.385 5.72701 17.4503 5.58414 17.4966C5.42311 17.5487 5.25082 17.5679 4.90624 17.6062L2.08594 17.9195L2.3993 15.0992Z" stroke="#667085" stroke-width="1.66667" stroke-linecap="round" stroke-linejoin="round"/>
</svg>
