<svg width="24" height="25" viewBox="0 0 24 25" fill="none" xmlns="http://www.w3.org/2000/svg">
<path d="M2 12.5H22M2 7.5H7M17 7.5H22M2 17.5H7M17 17.5H22M7 22.5V2.5M17 22.5V2.5M6.8 22.5H17.2C18.8802 22.5 19.7202 22.5 20.362 22.173C20.9265 21.8854 21.3854 21.4265 21.673 20.862C22 20.2202 22 19.3802 22 17.7V7.3C22 5.61984 22 4.77976 21.673 4.13803C21.3854 3.57354 20.9265 3.1146 20.362 2.82698C19.7202 2.5 18.8802 2.5 17.2 2.5H6.8C5.11984 2.5 4.27976 2.5 3.63803 2.82698C3.07354 3.1146 2.6146 3.57354 2.32698 4.13803C2 4.77976 2 5.61984 2 7.3V17.7C2 19.3802 2 20.2202 2.32698 20.862C2.6146 21.4265 3.07354 21.8854 3.63803 22.173C4.27976 22.5 5.11984 22.5 6.8 22.5Z" stroke="#F79009" stroke-width="2" stroke-linecap="round" stroke-linejoin="round"/>
</svg>
