<svg width="48" height="48" viewBox="0 0 48 48" fill="none" xmlns="http://www.w3.org/2000/svg">
<rect width="48" height="48" rx="12" fill="#EFF0FE"/>
<path d="M25.1693 18.1667L23.8678 15.5637C23.4932 14.8146 23.3059 14.44 23.0265 14.1664C22.7794 13.9244 22.4816 13.7403 22.1547 13.6275C21.785 13.5 21.3662 13.5 20.5286 13.5H16.0693C14.7625 13.5 14.1091 13.5 13.61 13.7543C13.1709 13.978 12.814 14.335 12.5903 14.774C12.3359 15.2731 12.3359 15.9265 12.3359 17.2333V18.1667M12.3359 18.1667H30.0693C32.0295 18.1667 33.0095 18.1667 33.7582 18.5481C34.4168 18.8837 34.9522 19.4191 35.2878 20.0777C35.6693 20.8264 35.6693 21.8065 35.6693 23.7667V28.9C35.6693 30.8602 35.6693 31.8403 35.2878 32.589C34.9522 33.2475 34.4168 33.783 33.7582 34.1185C33.0095 34.5 32.0295 34.5 30.0693 34.5H17.9359C15.9758 34.5 14.9957 34.5 14.247 34.1185C13.5884 33.783 13.053 33.2475 12.7174 32.589C12.3359 31.8403 12.3359 30.8602 12.3359 28.9V18.1667Z" stroke="#6366F1" stroke-width="2" stroke-linecap="round" stroke-linejoin="round"/>
</svg>
