<svg width="48" height="48" viewBox="0 0 48 48" fill="none" xmlns="http://www.w3.org/2000/svg">
<rect width="48" height="48" rx="12" fill="#EFF0FE"/>
<g clip-path="url(#clip0_9926_150314)">
<path d="M24.0026 12.334C17.5626 12.334 12.3359 17.5607 12.3359 24.0007C12.3359 30.4407 17.5626 35.6673 24.0026 35.6673C30.4426 35.6673 35.6693 30.4407 35.6693 24.0007C35.6693 17.5607 30.4426 12.334 24.0026 12.334ZM24.0026 33.334C18.8576 33.334 14.6693 29.1457 14.6693 24.0007C14.6693 18.8557 18.8576 14.6673 24.0026 14.6673C29.1476 14.6673 33.3359 18.8557 33.3359 24.0007C33.3359 29.1457 29.1476 33.334 24.0026 33.334ZM24.3643 22.9973C22.2993 22.4723 21.6343 21.9007 21.6343 21.049C21.6343 20.069 22.5559 19.3807 24.0843 19.3807C25.6943 19.3807 26.3009 20.1507 26.3476 21.294H28.3426C28.2843 19.7307 27.3276 18.2957 25.4376 17.829V15.834H22.7193V17.8057C20.9576 18.179 19.5459 19.3223 19.5459 21.084C19.5459 23.1723 21.2843 24.2223 23.8159 24.829C26.0909 25.3657 26.5459 26.1707 26.5459 27.0107C26.5459 27.629 26.0909 28.6323 24.0959 28.6323C22.2293 28.6323 21.4943 27.7923 21.3893 26.719H19.3826C19.4993 28.7023 20.9693 29.8223 22.7193 30.184V32.1673H25.4493V30.219C27.2226 29.8806 28.6226 28.8657 28.6343 26.9873C28.6226 24.4207 26.4176 23.534 24.3643 22.9973Z" fill="#6366F1"/>
</g>
<defs>
<clipPath id="clip0_9926_150314">
<rect width="28" height="28" fill="white" transform="translate(10 10)"/>
</clipPath>
</defs>
</svg>
