<svg width="48" height="48" viewBox="0 0 48 48" fill="none" xmlns="http://www.w3.org/2000/svg">
<rect width="48" height="48" rx="16" fill="#EFF0FE"/>
<path d="M25 19L23.8845 16.7689C23.5634 16.1268 23.4029 15.8057 23.1634 15.5712C22.9516 15.3637 22.6963 15.206 22.4161 15.1093C22.0992 15 21.7402 15 21.0223 15H17.2C16.0799 15 15.5198 15 15.092 15.218C14.7157 15.4097 14.4097 15.7157 14.218 16.092C14 16.5198 14 17.0799 14 18.2V19M14 19H29.2C30.8802 19 31.7202 19 32.362 19.327C32.9265 19.6146 33.3854 20.0735 33.673 20.638C34 21.2798 34 22.1198 34 23.8V28.2C34 29.8802 34 30.7202 33.673 31.362C33.3854 31.9265 32.9265 32.3854 32.362 32.673C31.7202 33 30.8802 33 29.2 33H18.8C17.1198 33 16.2798 33 15.638 32.673C15.0735 32.3854 14.6146 31.9265 14.327 31.362C14 30.7202 14 29.8802 14 28.2V19Z" stroke="#6366F1" stroke-width="2" stroke-linecap="round" stroke-linejoin="round"/>
</svg>
