<svg width="24" height="24" viewBox="0 0 24 24" fill="none" xmlns="http://www.w3.org/2000/svg">
<g id="rss_feed" clipPath="url(#clip0_11329_18921)">
<path id="Vector" d="M6.18 20.0006C7.38398 20.0006 8.36 19.0246 8.36 17.8206C8.36 16.6166 7.38398 15.6406 6.18 15.6406C4.97602 15.6406 4 16.6166 4 17.8206C4 19.0246 4.97602 20.0006 6.18 20.0006Z" fill="#323232"/>
<path id="Vector_2" d="M4 4.43945V7.26945C11.03 7.26945 16.73 12.9695 16.73 19.9995H19.56C19.56 11.4095 12.59 4.43945 4 4.43945ZM4 10.0995V12.9295C7.9 12.9295 11.07 16.0995 11.07 19.9995H13.9C13.9 14.5295 9.47 10.0995 4 10.0995Z" fill="#323232"/>
</g>
<defs>
<clipPath id="clip0_11329_18921">
<rect width="24" height="24" fill="white"/>
</clipPath>
</defs>
</svg>
