<svg width="48" height="48" viewBox="0 0 48 48" fill="none" xmlns="http://www.w3.org/2000/svg">
<rect width="48" height="48" rx="12" fill="#EFF0FE"/>
<path d="M33.3307 34.5C33.3307 32.8718 33.3307 32.0578 33.1298 31.3953C32.6773 29.9039 31.5102 28.7367 30.0187 28.2843C29.3563 28.0833 28.5422 28.0833 26.9141 28.0833H21.0807C19.4526 28.0833 18.6385 28.0833 17.9761 28.2843C16.4846 28.7367 15.3174 29.9039 14.865 31.3953C14.6641 32.0578 14.6641 32.8718 14.6641 34.5M29.2474 18.75C29.2474 21.6495 26.8969 24 23.9974 24C21.0979 24 18.7474 21.6495 18.7474 18.75C18.7474 15.8505 21.0979 13.5 23.9974 13.5C26.8969 13.5 29.2474 15.8505 29.2474 18.75Z" stroke="#6366F1" stroke-width="1.75" stroke-linecap="round" stroke-linejoin="round"/>
</svg>
