<svg width="20" height="21" viewBox="0 0 20 21" fill="none" xmlns="http://www.w3.org/2000/svg">
<path d="M16.6654 18.2148C16.6654 17.0519 16.6654 16.4704 16.5218 15.9972C16.1987 14.9319 15.365 14.0982 14.2997 13.775C13.8265 13.6315 13.245 13.6315 12.082 13.6315H7.91537C6.7524 13.6315 6.17091 13.6315 5.69775 13.775C4.63241 14.0982 3.79873 14.9319 3.47556 15.9972C3.33203 16.4704 3.33203 17.0519 3.33203 18.2148M13.7487 6.96484C13.7487 9.03591 12.0698 10.7148 9.9987 10.7148C7.92763 10.7148 6.2487 9.03591 6.2487 6.96484C6.2487 4.89378 7.92763 3.21484 9.9987 3.21484C12.0698 3.21484 13.7487 4.89378 13.7487 6.96484Z" stroke="#475467" stroke-width="2" stroke-linecap="round" stroke-linejoin="round"/>
</svg>
