<svg width="48" height="48" viewBox="0 0 48 48" fill="none" xmlns="http://www.w3.org/2000/svg">
<rect width="48" height="48" rx="12" fill="#EFF0FE"/>
<path d="M18.75 24H18.7617M24 24H24.0117M29.25 24H29.2617M24 34.5C29.799 34.5 34.5 29.799 34.5 24C34.5 18.201 29.799 13.5 24 13.5C18.201 13.5 13.5 18.201 13.5 24C13.5 25.3967 13.7727 26.7296 14.2677 27.9486C14.3625 28.1819 14.4099 28.2985 14.431 28.3928C14.4517 28.4851 14.4592 28.5533 14.4592 28.6478C14.4593 28.7445 14.4417 28.8497 14.4066 29.0602L13.7148 33.2111C13.6424 33.6458 13.6061 33.8631 13.6736 34.0203C13.7326 34.1578 13.8422 34.2674 13.9797 34.3264C14.1369 34.3939 14.3542 34.3576 14.7889 34.2852L18.9398 33.5934C19.1503 33.5583 19.2555 33.5407 19.3522 33.5408C19.4467 33.5408 19.5149 33.5483 19.6072 33.569C19.7015 33.5901 19.8181 33.6375 20.0514 33.7323C21.2704 34.2273 22.6033 34.5 24 34.5ZM19.3333 24C19.3333 24.3222 19.0722 24.5833 18.75 24.5833C18.4278 24.5833 18.1667 24.3222 18.1667 24C18.1667 23.6778 18.4278 23.4167 18.75 23.4167C19.0722 23.4167 19.3333 23.6778 19.3333 24ZM24.5833 24C24.5833 24.3222 24.3222 24.5833 24 24.5833C23.6778 24.5833 23.4167 24.3222 23.4167 24C23.4167 23.6778 23.6778 23.4167 24 23.4167C24.3222 23.4167 24.5833 23.6778 24.5833 24ZM29.8333 24C29.8333 24.3222 29.5722 24.5833 29.25 24.5833C28.9278 24.5833 28.6667 24.3222 28.6667 24C28.6667 23.6778 28.9278 23.4167 29.25 23.4167C29.5722 23.4167 29.8333 23.6778 29.8333 24Z" stroke="#6366F1" stroke-width="2" stroke-linecap="round" stroke-linejoin="round"/>
</svg>
