<svg width="25" height="26" viewBox="0 0 25 26" fill="none" xmlns="http://www.w3.org/2000/svg">
<g id="icon-more-vertical 1">
<path id="Vector" d="M12.5026 14.0404C13.0779 14.0404 13.5443 13.574 13.5443 12.9987C13.5443 12.4234 13.0779 11.957 12.5026 11.957C11.9273 11.957 11.4609 12.4234 11.4609 12.9987C11.4609 13.574 11.9273 14.0404 12.5026 14.0404Z" stroke="#C1C7D0" stroke-width="2" stroke-linecap="round" stroke-linejoin="round"/>
<path id="Vector_2" d="M12.5026 6.7513C13.0779 6.7513 13.5443 6.28493 13.5443 5.70964C13.5443 5.13434 13.0779 4.66797 12.5026 4.66797C11.9273 4.66797 11.4609 5.13434 11.4609 5.70964C11.4609 6.28493 11.9273 6.7513 12.5026 6.7513Z" stroke="#C1C7D0" stroke-width="2" stroke-linecap="round" stroke-linejoin="round"/>
<path id="Vector_3" d="M12.5026 21.3333C13.0779 21.3333 13.5443 20.867 13.5443 20.2917C13.5443 19.7164 13.0779 19.25 12.5026 19.25C11.9273 19.25 11.4609 19.7164 11.4609 20.2917C11.4609 20.867 11.9273 21.3333 12.5026 21.3333Z" stroke="#C1C7D0" stroke-width="2" stroke-linecap="round" stroke-linejoin="round"/>
</g>
</svg>
