<svg width="48" height="48" viewBox="0 0 48 48" fill="none" xmlns="http://www.w3.org/2000/svg">
<rect width="48" height="48" rx="12" fill="#EFF0FE"/>
<g clip-path="url(#clip0_9926_157897)">
<path d="M14.6693 17.0007H12.3359V33.334C12.3359 34.6173 13.3859 35.6673 14.6693 35.6673H31.0026V33.334H14.6693V17.0007ZM33.3359 12.334H19.3359C18.0526 12.334 17.0026 13.384 17.0026 14.6673V28.6673C17.0026 29.9507 18.0526 31.0007 19.3359 31.0007H33.3359C34.6193 31.0007 35.6693 29.9507 35.6693 28.6673V14.6673C35.6693 13.384 34.6193 12.334 33.3359 12.334ZM33.3359 28.6673H19.3359V14.6673H33.3359V28.6673ZM25.1693 26.334H27.5026V22.834H31.0026V20.5007H27.5026V17.0007H25.1693V20.5007H21.6693V22.834H25.1693V26.334Z" fill="#6366F1"/>
</g>
<defs>
<clipPath id="clip0_9926_157897">
<rect width="28" height="28" fill="white" transform="translate(10 10)"/>
</clipPath>
</defs>
</svg>
