<svg width="20" height="21" viewBox="0 0 20 21" fill="none" xmlns="http://www.w3.org/2000/svg">
<path d="M9.40546 3.3739C9.59754 2.98478 9.69357 2.79022 9.82395 2.72806C9.93738 2.67398 10.0692 2.67398 10.1826 2.72806C10.313 2.79022 10.409 2.98478 10.6011 3.3739L12.4233 7.06554C12.48 7.18041 12.5084 7.23785 12.5498 7.28245C12.5865 7.32193 12.6305 7.35393 12.6794 7.37665C12.7345 7.40232 12.7979 7.41158 12.9247 7.43011L17.0007 8.02589C17.43 8.08863 17.6446 8.12 17.7439 8.22483C17.8303 8.31604 17.871 8.44138 17.8545 8.56595C17.8356 8.70912 17.6802 8.86045 17.3695 9.16312L14.4211 12.0348C14.3292 12.1243 14.2833 12.1691 14.2536 12.2224C14.2274 12.2695 14.2105 12.3213 14.204 12.3749C14.1967 12.4354 14.2075 12.4986 14.2292 12.6251L14.9249 16.6812C14.9983 17.109 15.035 17.3229 14.966 17.4499C14.906 17.5603 14.7994 17.6378 14.6758 17.6607C14.5338 17.687 14.3417 17.586 13.9575 17.384L10.3136 15.4677C10.2 15.408 10.1433 15.3781 10.0835 15.3664C10.0305 15.356 9.97604 15.356 9.92308 15.3664C9.86327 15.3781 9.80651 15.408 9.69297 15.4677L6.04902 17.384C5.66485 17.586 5.47276 17.687 5.33073 17.6607C5.20716 17.6378 5.10052 17.5603 5.04054 17.4499C4.97159 17.3229 5.00828 17.109 5.08165 16.6812L5.77733 12.6251C5.79902 12.4986 5.80986 12.4354 5.80252 12.3749C5.79603 12.3213 5.77918 12.2695 5.75293 12.2224C5.72327 12.1691 5.67732 12.1243 5.58541 12.0348L2.63705 9.16312C2.32631 8.86045 2.17093 8.70912 2.15203 8.56595C2.13558 8.44138 2.17622 8.31604 2.26263 8.22483C2.36195 8.12 2.57656 8.08863 3.00579 8.02589L7.08185 7.43011C7.20861 7.41158 7.27199 7.40232 7.32719 7.37665C7.37606 7.35393 7.42006 7.32193 7.45674 7.28245C7.49818 7.23785 7.52653 7.18041 7.58323 7.06554L9.40546 3.3739Z" fill="#FFAB00" stroke="#FFAB00" stroke-width="1.66667" stroke-linecap="round" stroke-linejoin="round"/>
</svg>
