<svg width="48" height="48" viewBox="0 0 48 48" fill="none" xmlns="http://www.w3.org/2000/svg">
<rect width="48" height="48" rx="12" fill="#EFF0FE"/>
<path d="M12.3359 24.0002L23.5852 29.6248C23.7383 29.7013 23.8148 29.7396 23.895 29.7546C23.9661 29.768 24.0391 29.768 24.1102 29.7546C24.1904 29.7396 24.267 29.7013 24.42 29.6248L35.6693 24.0002M12.3359 29.8335L23.5852 35.4581C23.7383 35.5346 23.8148 35.5729 23.895 35.588C23.9661 35.6013 24.0391 35.6013 24.1102 35.588C24.1904 35.5729 24.267 35.5346 24.42 35.4581L35.6693 29.8335M12.3359 18.1668L23.5852 12.5422C23.7383 12.4657 23.8148 12.4274 23.895 12.4123C23.9661 12.399 24.0391 12.399 24.1102 12.4123C24.1904 12.4274 24.267 12.4657 24.42 12.5422L35.6693 18.1668L24.42 23.7915C24.267 23.868 24.1904 23.9062 24.1102 23.9213C24.0391 23.9346 23.9661 23.9346 23.895 23.9213C23.8148 23.9062 23.7383 23.868 23.5852 23.7915L12.3359 18.1668Z" stroke="#6366F1" stroke-width="2" stroke-linecap="round" stroke-linejoin="round"/>
</svg>
