<svg width="48" height="48" viewBox="0 0 48 48" fill="none" xmlns="http://www.w3.org/2000/svg">
<rect width="48" height="48" rx="16" fill="#EFF0FE"/>
<path d="M14 24.0035L23.6422 28.8246C23.7734 28.8902 23.839 28.923 23.9078 28.9359C23.9687 28.9473 24.0313 28.9473 24.0922 28.9359C24.161 28.923 24.2266 28.8902 24.3578 28.8246L34 24.0035M14 29.0035L23.6422 33.8246C23.7734 33.8902 23.839 33.923 23.9078 33.9359C23.9687 33.9473 24.0313 33.9473 24.0922 33.9359C24.161 33.923 24.2266 33.8902 24.3578 33.8246L34 29.0035M14 19.0035L23.6422 14.1824C23.7734 14.1168 23.839 14.084 23.9078 14.0711C23.9687 14.0596 24.0313 14.0596 24.0922 14.0711C24.161 14.084 24.2266 14.1168 24.3578 14.1824L34 19.0035L24.3578 23.8246C24.2266 23.8902 24.161 23.923 24.0922 23.9359C24.0313 23.9473 23.9687 23.9473 23.9078 23.9359C23.839 23.923 23.7734 23.8902 23.6422 23.8246L14 19.0035Z" stroke="#6366F1" stroke-width="2" stroke-linecap="round" stroke-linejoin="round"/>
</svg>
