<svg width="34" height="34" viewBox="0 0 34 34" fill="none" xmlns="http://www.w3.org/2000/svg">
<rect width="34" height="34" rx="17" fill="#F2F4F7"/>
<path d="M20 12.5V11.9C20 11.0599 20 10.6399 19.8365 10.319C19.6927 10.0368 19.4632 9.8073 19.181 9.66349C18.8601 9.5 18.4401 9.5 17.6 9.5H16.4C15.5599 9.5 15.1399 9.5 14.819 9.66349C14.5368 9.8073 14.3073 10.0368 14.1635 10.319C14 10.6399 14 11.0599 14 11.9V12.5M10.25 12.5H23.75M22.25 12.5V20.9C22.25 22.1601 22.25 22.7902 22.0048 23.2715C21.789 23.6948 21.4448 24.039 21.0215 24.2548C20.5402 24.5 19.9101 24.5 18.65 24.5H15.35C14.0899 24.5 13.4598 24.5 12.9785 24.2548C12.5552 24.039 12.211 23.6948 11.9952 23.2715C11.75 22.7902 11.75 22.1601 11.75 20.9V12.5" stroke="#475467" stroke-width="2" stroke-linecap="round" stroke-linejoin="round"/>
</svg>
