<svg width="64" height="64" viewBox="0 0 64 64" fill="none" xmlns="http://www.w3.org/2000/svg">
<rect width="64" height="64" rx="32" fill="#F2F4F7"/>
<path d="M44.4436 46C44.4436 43.8291 44.4436 42.7437 44.1757 41.8604C43.5724 39.8718 42.0162 38.3156 40.0276 37.7124C39.1443 37.4444 38.0589 37.4444 35.888 37.4444H28.1103C25.9394 37.4444 24.8539 37.4444 23.9707 37.7124C21.9821 38.3156 20.4259 39.8718 19.8226 41.8604C19.5547 42.7437 19.5547 43.8291 19.5547 46M38.9991 25C38.9991 28.866 35.8651 32 31.9991 32C28.1331 32 24.9991 28.866 24.9991 25C24.9991 21.134 28.1331 18 31.9991 18C35.8651 18 38.9991 21.134 38.9991 25Z" stroke="#475467" stroke-width="2.33333" stroke-linecap="round" stroke-linejoin="round"/>
</svg>
