<svg width="56" height="56" viewBox="0 0 56 56" fill="none" xmlns="http://www.w3.org/2000/svg">
<rect width="56" height="56" rx="16" fill="#EFF0FE"/>
<path d="M18 28.0035L27.6422 32.8246C27.7734 32.8902 27.839 32.923 27.9078 32.9359C27.9687 32.9473 28.0313 32.9473 28.0922 32.9359C28.161 32.923 28.2266 32.8902 28.3578 32.8246L38 28.0035M18 33.0035L27.6422 37.8246C27.7734 37.8902 27.839 37.923 27.9078 37.9359C27.9687 37.9473 28.0313 37.9473 28.0922 37.9359C28.161 37.923 28.2266 37.8902 28.3578 37.8246L38 33.0035M18 23.0035L27.6422 18.1824C27.7734 18.1168 27.839 18.084 27.9078 18.0711C27.9687 18.0596 28.0313 18.0596 28.0922 18.0711C28.161 18.084 28.2266 18.1168 28.3578 18.1824L38 23.0035L28.3578 27.8246C28.2266 27.8902 28.161 27.923 28.0922 27.9359C28.0313 27.9473 27.9687 27.9473 27.9078 27.9359C27.839 27.923 27.7734 27.8902 27.6422 27.8246L18 23.0035Z" stroke="#6366F1" stroke-width="2" stroke-linecap="round" stroke-linejoin="round"/>
</svg>
