<svg width="20" height="20" viewBox="0 0 20 20" fill="none" xmlns="http://www.w3.org/2000/svg">
<g id="file-x-02">
<path id="Icon" d="M11.6693 9.16602H6.66927M8.33594 12.4993H6.66927M13.3359 5.83268H6.66927M16.6693 9.99935V5.66602C16.6693 4.26588 16.6693 3.56582 16.3968 3.03104C16.1571 2.56063 15.7747 2.17818 15.3042 1.9385C14.7695 1.66602 14.0694 1.66602 12.6693 1.66602H7.33594C5.93581 1.66602 5.23574 1.66602 4.70096 1.9385C4.23056 2.17818 3.8481 2.56063 3.60842 3.03104C3.33594 3.56582 3.33594 4.26588 3.33594 5.66602V14.3327C3.33594 15.7328 3.33594 16.4329 3.60842 16.9677C3.8481 17.4381 4.23056 17.8205 4.70096 18.0602C5.23574 18.3327 5.93581 18.3327 7.33594 18.3327H10.0026M13.3359 13.3327L17.5026 17.4993M17.5026 13.3327L13.3359 17.4993" stroke="#667085" stroke-width="2" stroke-linecap="round" stroke-linejoin="round"/>
</g>
</svg>
