<svg width="224" height="224" viewBox="0 0 224 224" fill="none" xmlns="http://www.w3.org/2000/svg">
<rect x="1" y="1" width="222" height="222" rx="11" fill="#6366F1"/>
<rect x="1" y="1" width="222" height="222" rx="11" stroke="white" stroke-width="2"/>
<path d="M21.84 14H14V21.84H21.84V14Z" fill="white"/>
<path d="M29.68 14H21.84V21.84H29.68V14Z" fill="white"/>
<path d="M37.52 14H29.68V21.84H37.52V14Z" fill="white"/>
<path d="M45.36 14H37.52V21.84H45.36V14Z" fill="white"/>
<path d="M53.2 14H45.36V21.84H53.2V14Z" fill="white"/>
<path d="M61.04 14H53.2V21.84H61.04V14Z" fill="white"/>
<path d="M68.88 14H61.04V21.84H68.88V14Z" fill="white"/>
<path d="M84.56 14H76.72V21.84H84.56V14Z" fill="white"/>
<path d="M100.24 14H92.4V21.84H100.24V14Z" fill="white"/>
<path d="M123.76 14H115.92V21.84H123.76V14Z" fill="white"/>
<path d="M131.6 14H123.76V21.84H131.6V14Z" fill="white"/>
<path d="M139.44 14H131.6V21.84H139.44V14Z" fill="white"/>
<path d="M147.28 14H139.44V21.84H147.28V14Z" fill="white"/>
<path d="M162.96 14H155.12V21.84H162.96V14Z" fill="white"/>
<path d="M170.8 14H162.96V21.84H170.8V14Z" fill="white"/>
<path d="M178.64 14H170.8V21.84H178.64V14Z" fill="white"/>
<path d="M186.48 14H178.64V21.84H186.48V14Z" fill="white"/>
<path d="M194.32 14H186.48V21.84H194.32V14Z" fill="white"/>
<path d="M202.16 14H194.32V21.84H202.16V14Z" fill="white"/>
<path d="M210 14H202.16V21.84H210V14Z" fill="white"/>
<path d="M21.84 21.84H14V29.68H21.84V21.84Z" fill="white"/>
<path d="M68.88 21.84H61.04L61.04 29.68H68.88V21.84Z" fill="white"/>
<path d="M92.4 21.84H84.56V29.68H92.4V21.84Z" fill="white"/>
<path d="M100.24 21.84H92.4V29.68H100.24V21.84Z" fill="white"/>
<path d="M108.08 21.84H100.24V29.68H108.08V21.84Z" fill="white"/>
<path d="M123.76 21.84H115.92V29.68H123.76V21.84Z" fill="white"/>
<path d="M131.6 21.84H123.76V29.68H131.6V21.84Z" fill="white"/>
<path d="M162.96 21.84H155.12V29.68H162.96V21.84Z" fill="white"/>
<path d="M210 21.84H202.16V29.68H210V21.84Z" fill="white"/>
<path d="M21.84 29.68H14V37.52H21.84V29.68Z" fill="white"/>
<path d="M37.52 29.68H29.68V37.52H37.52V29.68Z" fill="white"/>
<path d="M45.36 29.68H37.52V37.52H45.36V29.68Z" fill="white"/>
<path d="M53.2 29.68H45.36V37.52H53.2V29.68Z" fill="white"/>
<path d="M68.88 29.68H61.04V37.52H68.88V29.68Z" fill="white"/>
<path d="M92.4 29.68H84.56V37.52H92.4V29.68Z" fill="white"/>
<path d="M108.08 29.68H100.24V37.52H108.08V29.68Z" fill="white"/>
<path d="M115.92 29.68H108.08V37.52H115.92V29.68Z" fill="white"/>
<path d="M123.76 29.68H115.92V37.52H123.76V29.68Z" fill="white"/>
<path d="M131.6 29.68H123.76V37.52H131.6V29.68Z" fill="white"/>
<path d="M139.44 29.68H131.6V37.52H139.44V29.68Z" fill="white"/>
<path d="M147.28 29.68H139.44V37.52H147.28V29.68Z" fill="white"/>
<path d="M162.96 29.68H155.12V37.52H162.96V29.68Z" fill="white"/>
<path d="M178.64 29.68H170.8V37.52H178.64V29.68Z" fill="white"/>
<path d="M186.48 29.68H178.64V37.52H186.48V29.68Z" fill="white"/>
<path d="M194.32 29.68H186.48V37.52H194.32V29.68Z" fill="white"/>
<path d="M210 29.68H202.16V37.52H210V29.68Z" fill="white"/>
<path d="M21.84 37.52H14V45.36H21.84V37.52Z" fill="white"/>
<path d="M37.52 37.52H29.68V45.36H37.52V37.52Z" fill="white"/>
<path d="M45.36 37.52H37.52V45.36H45.36V37.52Z" fill="white"/>
<path d="M53.2 37.52H45.36V45.36H53.2V37.52Z" fill="white"/>
<path d="M68.88 37.52H61.04V45.36H68.88V37.52Z" fill="white"/>
<path d="M84.56 37.52H76.72V45.36H84.56V37.52Z" fill="white"/>
<path d="M92.4 37.52H84.56V45.36H92.4V37.52Z" fill="white"/>
<path d="M100.24 37.52H92.4V45.36H100.24V37.52Z" fill="white"/>
<path d="M108.08 37.52H100.24V45.36H108.08V37.52Z" fill="white"/>
<path d="M131.6 37.52H123.76V45.36H131.6V37.52Z" fill="white"/>
<path d="M162.96 37.52H155.12V45.36H162.96V37.52Z" fill="white"/>
<path d="M178.64 37.52H170.8V45.36H178.64V37.52Z" fill="white"/>
<path d="M186.48 37.52H178.64V45.36H186.48V37.52Z" fill="white"/>
<path d="M194.32 37.52H186.48V45.36H194.32V37.52Z" fill="white"/>
<path d="M210 37.52H202.16V45.36H210V37.52Z" fill="white"/>
<path d="M21.84 45.36H14V53.2H21.84V45.36Z" fill="white"/>
<path d="M37.52 45.36H29.68V53.2H37.52V45.36Z" fill="white"/>
<path d="M45.36 45.36H37.52V53.2H45.36V45.36Z" fill="white"/>
<path d="M53.2 45.36H45.36V53.2H53.2V45.36Z" fill="white"/>
<path d="M68.88 45.36H61.04V53.2H68.88V45.36Z" fill="white"/>
<path d="M84.56 45.36H76.72V53.2H84.56V45.36Z" fill="white"/>
<path d="M92.4 45.36H84.56V53.2H92.4V45.36Z" fill="white"/>
<path d="M100.24 45.36H92.4V53.2H100.24V45.36Z" fill="white"/>
<path d="M123.76 45.36H115.92V53.2H123.76V45.36Z" fill="white"/>
<path d="M131.6 45.36H123.76V53.2H131.6V45.36Z" fill="white"/>
<path d="M139.44 45.36H131.6V53.2H139.44V45.36Z" fill="white"/>
<path d="M162.96 45.36H155.12V53.2H162.96V45.36Z" fill="white"/>
<path d="M178.64 45.36H170.8V53.2H178.64V45.36Z" fill="white"/>
<path d="M186.48 45.36H178.64V53.2H186.48V45.36Z" fill="white"/>
<path d="M194.32 45.36H186.48V53.2H194.32V45.36Z" fill="white"/>
<path d="M210 45.36H202.16V53.2H210V45.36Z" fill="white"/>
<path d="M21.84 53.2H14V61.04H21.84V53.2Z" fill="white"/>
<path d="M68.88 53.2H61.04V61.04H68.88V53.2Z" fill="white"/>
<path d="M84.56 53.2H76.72V61.04H84.56V53.2Z" fill="white"/>
<path d="M100.24 53.2H92.4V61.04H100.24V53.2Z" fill="white"/>
<path d="M115.92 53.2H108.08V61.04H115.92V53.2Z" fill="white"/>
<path d="M123.76 53.2H115.92V61.04H123.76V53.2Z" fill="white"/>
<path d="M131.6 53.2H123.76V61.04H131.6V53.2Z" fill="white"/>
<path d="M139.44 53.2H131.6V61.04H139.44V53.2Z" fill="white"/>
<path d="M147.28 53.2H139.44V61.04H147.28V53.2Z" fill="white"/>
<path d="M162.96 53.2H155.12V61.04H162.96V53.2Z" fill="white"/>
<path d="M210 53.2H202.16V61.04H210V53.2Z" fill="white"/>
<path d="M21.84 61.04H14V68.88H21.84V61.04Z" fill="white"/>
<path d="M29.68 61.04L21.84 61.04V68.88H29.68V61.04Z" fill="white"/>
<path d="M37.52 61.04H29.68V68.88H37.52V61.04Z" fill="white"/>
<path d="M45.36 61.04H37.52V68.88H45.36V61.04Z" fill="white"/>
<path d="M53.2 61.04H45.36V68.88H53.2V61.04Z" fill="white"/>
<path d="M61.04 61.04L53.2 61.04V68.88H61.04L61.04 61.04Z" fill="white"/>
<path d="M68.88 61.04H61.04L61.04 68.88H68.88V61.04Z" fill="white"/>
<path d="M84.56 61.04H76.72V68.88H84.56V61.04Z" fill="white"/>
<path d="M100.24 61.04H92.4V68.88H100.24V61.04Z" fill="white"/>
<path d="M115.92 61.04H108.08V68.88H115.92V61.04Z" fill="white"/>
<path d="M131.6 61.04H123.76V68.88H131.6V61.04Z" fill="white"/>
<path d="M147.28 61.04H139.44V68.88H147.28V61.04Z" fill="white"/>
<path d="M162.96 61.04H155.12V68.88H162.96V61.04Z" fill="white"/>
<path d="M170.8 61.04L162.96 61.04V68.88H170.8V61.04Z" fill="white"/>
<path d="M178.64 61.04H170.8V68.88H178.64V61.04Z" fill="white"/>
<path d="M186.48 61.04H178.64V68.88H186.48V61.04Z" fill="white"/>
<path d="M194.32 61.04H186.48V68.88H194.32V61.04Z" fill="white"/>
<path d="M202.16 61.04L194.32 61.04V68.88H202.16V61.04Z" fill="white"/>
<path d="M210 61.04H202.16V68.88H210V61.04Z" fill="white"/>
<path d="M84.56 68.88H76.72V76.72H84.56V68.88Z" fill="white"/>
<path d="M92.4 68.88H84.56V76.72H92.4V68.88Z" fill="white"/>
<path d="M100.24 68.88H92.4V76.72H100.24V68.88Z" fill="white"/>
<path d="M108.08 68.88H100.24V76.72H108.08V68.88Z" fill="white"/>
<path d="M115.92 68.88H108.08V76.72H115.92V68.88Z" fill="white"/>
<path d="M123.76 68.88H115.92V76.72H123.76V68.88Z" fill="white"/>
<path d="M139.44 68.88H131.6L131.6 76.72H139.44V68.88Z" fill="white"/>
<path d="M147.28 68.88H139.44V76.72H147.28V68.88Z" fill="white"/>
<path d="M21.84 76.72H14V84.56H21.84V76.72Z" fill="white"/>
<path d="M29.68 76.72H21.84V84.56H29.68V76.72Z" fill="white"/>
<path d="M37.52 76.72H29.68V84.56H37.52V76.72Z" fill="white"/>
<path d="M53.2 76.72H45.36V84.56H53.2V76.72Z" fill="white"/>
<path d="M68.88 76.72H61.04V84.56H68.88V76.72Z" fill="white"/>
<path d="M84.56 76.72H76.72V84.56H84.56V76.72Z" fill="white"/>
<path d="M108.08 76.72H100.24V84.56H108.08V76.72Z" fill="white"/>
<path d="M131.6 76.72H123.76V84.56H131.6L131.6 76.72Z" fill="white"/>
<path d="M155.12 76.72H147.28V84.56H155.12V76.72Z" fill="white"/>
<path d="M162.96 76.72H155.12V84.56H162.96V76.72Z" fill="white"/>
<path d="M170.8 76.72H162.96V84.56H170.8V76.72Z" fill="white"/>
<path d="M178.64 76.72H170.8V84.56H178.64V76.72Z" fill="white"/>
<path d="M186.48 76.72H178.64V84.56H186.48V76.72Z" fill="white"/>
<path d="M210 76.72H202.16V84.56H210V76.72Z" fill="white"/>
<path d="M29.68 84.56H21.84V92.4H29.68V84.56Z" fill="white"/>
<path d="M45.36 84.56H37.52V92.4H45.36V84.56Z" fill="white"/>
<path d="M61.04 84.56H53.2V92.4H61.04L61.04 84.56Z" fill="white"/>
<path d="M76.72 84.56H68.88V92.4H76.72V84.56Z" fill="white"/>
<path d="M84.56 84.56H76.72V92.4H84.56V84.56Z" fill="white"/>
<path d="M92.4 84.56H84.56V92.4H92.4V84.56Z" fill="white"/>
<path d="M108.08 84.56H100.24V92.4H108.08V84.56Z" fill="white"/>
<path d="M115.92 84.56H108.08V92.4H115.92V84.56Z" fill="white"/>
<path d="M131.6 84.56H123.76V92.4H131.6V84.56Z" fill="white"/>
<path d="M139.44 84.56H131.6V92.4H139.44V84.56Z" fill="white"/>
<path d="M147.28 84.56H139.44V92.4H147.28V84.56Z" fill="white"/>
<path d="M155.12 84.56H147.28V92.4H155.12V84.56Z" fill="white"/>
<path d="M162.96 84.56H155.12V92.4H162.96V84.56Z" fill="white"/>
<path d="M170.8 84.56H162.96V92.4H170.8V84.56Z" fill="white"/>
<path d="M178.64 84.56H170.8V92.4H178.64V84.56Z" fill="white"/>
<path d="M194.32 84.56H186.48V92.4H194.32V84.56Z" fill="white"/>
<path d="M29.68 92.4H21.84V100.24H29.68V92.4Z" fill="white"/>
<path d="M45.36 92.4H37.52V100.24H45.36V92.4Z" fill="white"/>
<path d="M53.2 92.4H45.36V100.24H53.2V92.4Z" fill="white"/>
<path d="M61.04 92.4H53.2V100.24H61.04V92.4Z" fill="white"/>
<path d="M68.88 92.4H61.04V100.24H68.88V92.4Z" fill="white"/>
<path d="M92.4 92.4H84.56V100.24H92.4V92.4Z" fill="white"/>
<path d="M108.08 92.4H100.24V100.24H108.08V92.4Z" fill="white"/>
<path d="M162.96 92.4H155.12V100.24H162.96V92.4Z" fill="white"/>
<path d="M170.8 92.4H162.96V100.24H170.8V92.4Z" fill="white"/>
<path d="M194.32 92.4H186.48V100.24H194.32V92.4Z" fill="white"/>
<path d="M202.16 92.4H194.32V100.24H202.16V92.4Z" fill="white"/>
<path d="M21.84 100.24H14V108.08H21.84V100.24Z" fill="white"/>
<path d="M37.52 100.24H29.68V108.08H37.52V100.24Z" fill="white"/>
<path d="M45.36 100.24H37.52V108.08H45.36V100.24Z" fill="white"/>
<path d="M61.04 100.24H53.2V108.08H61.04V100.24Z" fill="white"/>
<path d="M84.56 100.24H76.72V108.08H84.56V100.24Z" fill="white"/>
<path d="M92.4 100.24H84.56V108.08H92.4V100.24Z" fill="white"/>
<path d="M131.6 100.24H123.76V108.08H131.6V100.24Z" fill="white"/>
<path d="M139.44 100.24H131.6V108.08H139.44V100.24Z" fill="white"/>
<path d="M155.12 100.24H147.28V108.08H155.12V100.24Z" fill="white"/>
<path d="M162.96 100.24H155.12V108.08H162.96V100.24Z" fill="white"/>
<path d="M29.68 108.08H21.84V115.92H29.68V108.08Z" fill="white"/>
<path d="M45.36 108.08H37.52V115.92H45.36V108.08Z" fill="white"/>
<path d="M61.04 108.08H53.2V115.92H61.04V108.08Z" fill="white"/>
<path d="M68.88 108.08H61.04V115.92H68.88V108.08Z" fill="white"/>
<path d="M76.72 108.08H68.88V115.92H76.72V108.08Z" fill="white"/>
<path d="M84.56 108.08H76.72V115.92H84.56V108.08Z" fill="white"/>
<path d="M115.92 108.08H108.08V115.92H115.92V108.08Z" fill="white"/>
<path d="M131.6 108.08H123.76V115.92H131.6V108.08Z" fill="white"/>
<path d="M155.12 108.08H147.28V115.92H155.12V108.08Z" fill="white"/>
<path d="M170.8 108.08H162.96V115.92H170.8V108.08Z" fill="white"/>
<path d="M178.64 108.08H170.8V115.92H178.64V108.08Z" fill="white"/>
<path d="M194.32 108.08H186.48V115.92H194.32V108.08Z" fill="white"/>
<path d="M210 108.08H202.16V115.92H210V108.08Z" fill="white"/>
<path d="M21.84 115.92H14V123.76H21.84V115.92Z" fill="white"/>
<path d="M29.68 115.92H21.84V123.76H29.68V115.92Z" fill="white"/>
<path d="M37.52 115.92H29.68V123.76H37.52V115.92Z" fill="white"/>
<path d="M45.36 115.92H37.52V123.76H45.36V115.92Z" fill="white"/>
<path d="M53.2 115.92H45.36V123.76H53.2V115.92Z" fill="white"/>
<path d="M61.04 115.92H53.2V123.76H61.04V115.92Z" fill="white"/>
<path d="M76.72 115.92H68.88V123.76H76.72V115.92Z" fill="white"/>
<path d="M100.24 115.92H92.4V123.76H100.24V115.92Z" fill="white"/>
<path d="M147.28 115.92H139.44V123.76H147.28V115.92Z" fill="white"/>
<path d="M155.12 115.92H147.28V123.76H155.12V115.92Z" fill="white"/>
<path d="M162.96 115.92H155.12V123.76H162.96V115.92Z" fill="white"/>
<path d="M170.8 115.92H162.96V123.76H170.8V115.92Z" fill="white"/>
<path d="M186.48 115.92H178.64V123.76H186.48V115.92Z" fill="white"/>
<path d="M194.32 115.92H186.48V123.76H194.32V115.92Z" fill="white"/>
<path d="M210 115.92H202.16V123.76H210V115.92Z" fill="white"/>
<path d="M21.84 123.76H14V131.6H21.84V123.76Z" fill="white"/>
<path d="M37.52 123.76H29.68V131.6H37.52V123.76Z" fill="white"/>
<path d="M45.36 123.76H37.52V131.6H45.36V123.76Z" fill="white"/>
<path d="M53.2 123.76H45.36V131.6H53.2V123.76Z" fill="white"/>
<path d="M61.04 123.76H53.2V131.6H61.04V123.76Z" fill="white"/>
<path d="M68.88 123.76H61.04V131.6H68.88V123.76Z" fill="white"/>
<path d="M76.72 123.76H68.88V131.6H76.72V123.76Z" fill="white"/>
<path d="M84.56 123.76H76.72V131.6H84.56V123.76Z" fill="white"/>
<path d="M92.4 123.76H84.56V131.6H92.4V123.76Z" fill="white"/>
<path d="M100.24 123.76H92.4V131.6H100.24V123.76Z" fill="white"/>
<path d="M108.08 123.76H100.24V131.6H108.08V123.76Z" fill="white"/>
<path d="M123.76 123.76H115.92V131.6H123.76V123.76Z" fill="white"/>
<path d="M131.6 123.76H123.76V131.6H131.6V123.76Z" fill="white"/>
<path d="M186.48 123.76H178.64V131.6H186.48V123.76Z" fill="white"/>
<path d="M202.16 123.76H194.32V131.6H202.16V123.76Z" fill="white"/>
<path d="M210 123.76H202.16V131.6H210V123.76Z" fill="white"/>
<path d="M37.52 131.6H29.68V139.44H37.52V131.6Z" fill="white"/>
<path d="M45.36 131.6H37.52V139.44H45.36V131.6Z" fill="white"/>
<path d="M76.72 131.6H68.88V139.44H76.72V131.6Z" fill="white"/>
<path d="M84.56 131.6H76.72V139.44H84.56V131.6Z" fill="white"/>
<path d="M92.4 131.6H84.56V139.44H92.4V131.6Z" fill="white"/>
<path d="M100.24 131.6H92.4V139.44H100.24V131.6Z" fill="white"/>
<path d="M108.08 131.6H100.24V139.44H108.08V131.6Z" fill="white"/>
<path d="M123.76 131.6H115.92V139.44H123.76V131.6Z" fill="white"/>
<path d="M131.6 131.6H123.76V139.44H131.6V131.6Z" fill="white"/>
<path d="M139.44 131.6L131.6 131.6V139.44H139.44V131.6Z" fill="white"/>
<path d="M170.8 131.6H162.96V139.44H170.8V131.6Z" fill="white"/>
<path d="M178.64 131.6L170.8 131.6V139.44H178.64V131.6Z" fill="white"/>
<path d="M186.48 131.6H178.64V139.44H186.48V131.6Z" fill="white"/>
<path d="M45.36 139.44H37.52V147.28H45.36V139.44Z" fill="white"/>
<path d="M53.2 139.44H45.36V147.28H53.2V139.44Z" fill="white"/>
<path d="M68.88 139.44H61.04V147.28H68.88V139.44Z" fill="white"/>
<path d="M76.72 139.44H68.88V147.28H76.72V139.44Z" fill="white"/>
<path d="M84.56 139.44H76.72V147.28H84.56V139.44Z" fill="white"/>
<path d="M100.24 139.44H92.4V147.28H100.24V139.44Z" fill="white"/>
<path d="M115.92 139.44H108.08V147.28H115.92V139.44Z" fill="white"/>
<path d="M123.76 139.44H115.92V147.28H123.76V139.44Z" fill="white"/>
<path d="M147.28 139.44H139.44V147.28H147.28V139.44Z" fill="white"/>
<path d="M155.12 139.44H147.28V147.28H155.12V139.44Z" fill="white"/>
<path d="M162.96 139.44H155.12V147.28H162.96V139.44Z" fill="white"/>
<path d="M170.8 139.44H162.96V147.28H170.8V139.44Z" fill="white"/>
<path d="M178.64 139.44H170.8V147.28H178.64V139.44Z" fill="white"/>
<path d="M210 139.44H202.16V147.28H210V139.44Z" fill="white"/>
<path d="M84.56 147.28H76.72V155.12H84.56V147.28Z" fill="white"/>
<path d="M92.4 147.28H84.56V155.12H92.4V147.28Z" fill="white"/>
<path d="M123.76 147.28H115.92V155.12H123.76V147.28Z" fill="white"/>
<path d="M131.6 147.28H123.76V155.12H131.6V147.28Z" fill="white"/>
<path d="M139.44 147.28H131.6V155.12H139.44V147.28Z" fill="white"/>
<path d="M147.28 147.28H139.44V155.12H147.28V147.28Z" fill="white"/>
<path d="M178.64 147.28H170.8V155.12H178.64V147.28Z" fill="white"/>
<path d="M194.32 147.28H186.48V155.12H194.32V147.28Z" fill="white"/>
<path d="M210 147.28H202.16V155.12H210V147.28Z" fill="white"/>
<path d="M21.84 155.12H14V162.96H21.84V155.12Z" fill="white"/>
<path d="M29.68 155.12H21.84V162.96H29.68V155.12Z" fill="white"/>
<path d="M37.52 155.12H29.68V162.96H37.52V155.12Z" fill="white"/>
<path d="M45.36 155.12H37.52V162.96H45.36V155.12Z" fill="white"/>
<path d="M53.2 155.12H45.36V162.96H53.2V155.12Z" fill="white"/>
<path d="M61.04 155.12H53.2V162.96H61.04V155.12Z" fill="white"/>
<path d="M68.88 155.12H61.04V162.96H68.88V155.12Z" fill="white"/>
<path d="M100.24 155.12H92.4V162.96H100.24V155.12Z" fill="white"/>
<path d="M115.92 155.12H108.08V162.96H115.92V155.12Z" fill="white"/>
<path d="M131.6 155.12H123.76V162.96H131.6V155.12Z" fill="white"/>
<path d="M147.28 155.12H139.44V162.96H147.28V155.12Z" fill="white"/>
<path d="M162.96 155.12H155.12V162.96H162.96V155.12Z" fill="white"/>
<path d="M178.64 155.12H170.8V162.96H178.64V155.12Z" fill="white"/>
<path d="M186.48 155.12H178.64V162.96H186.48V155.12Z" fill="white"/>
<path d="M21.84 162.96H14V170.8H21.84V162.96Z" fill="white"/>
<path d="M68.88 162.96H61.04L61.04 170.8H68.88V162.96Z" fill="white"/>
<path d="M92.4 162.96H84.56V170.8H92.4V162.96Z" fill="white"/>
<path d="M100.24 162.96H92.4V170.8H100.24V162.96Z" fill="white"/>
<path d="M108.08 162.96H100.24V170.8H108.08V162.96Z" fill="white"/>
<path d="M139.44 162.96H131.6L131.6 170.8H139.44V162.96Z" fill="white"/>
<path d="M147.28 162.96H139.44V170.8H147.28V162.96Z" fill="white"/>
<path d="M178.64 162.96H170.8V170.8H178.64V162.96Z" fill="white"/>
<path d="M202.16 162.96H194.32V170.8H202.16V162.96Z" fill="white"/>
<path d="M21.84 170.8H14V178.64H21.84V170.8Z" fill="white"/>
<path d="M37.52 170.8H29.68V178.64H37.52V170.8Z" fill="white"/>
<path d="M45.36 170.8H37.52V178.64H45.36V170.8Z" fill="white"/>
<path d="M53.2 170.8H45.36V178.64H53.2V170.8Z" fill="white"/>
<path d="M68.88 170.8H61.04V178.64H68.88V170.8Z" fill="white"/>
<path d="M84.56 170.8H76.72V178.64H84.56V170.8Z" fill="white"/>
<path d="M92.4 170.8H84.56V178.64H92.4V170.8Z" fill="white"/>
<path d="M123.76 170.8H115.92V178.64H123.76V170.8Z" fill="white"/>
<path d="M131.6 170.8H123.76V178.64H131.6L131.6 170.8Z" fill="white"/>
<path d="M147.28 170.8H139.44V178.64H147.28V170.8Z" fill="white"/>
<path d="M155.12 170.8H147.28V178.64H155.12V170.8Z" fill="white"/>
<path d="M162.96 170.8H155.12V178.64H162.96V170.8Z" fill="white"/>
<path d="M170.8 170.8H162.96V178.64H170.8V170.8Z" fill="white"/>
<path d="M178.64 170.8H170.8V178.64H178.64V170.8Z" fill="white"/>
<path d="M194.32 170.8H186.48V178.64H194.32V170.8Z" fill="white"/>
<path d="M202.16 170.8H194.32V178.64H202.16V170.8Z" fill="white"/>
<path d="M21.84 178.64H14V186.48H21.84V178.64Z" fill="white"/>
<path d="M37.52 178.64H29.68V186.48H37.52V178.64Z" fill="white"/>
<path d="M45.36 178.64H37.52V186.48H45.36V178.64Z" fill="white"/>
<path d="M53.2 178.64H45.36V186.48H53.2V178.64Z" fill="white"/>
<path d="M68.88 178.64H61.04V186.48H68.88V178.64Z" fill="white"/>
<path d="M92.4 178.64H84.56V186.48H92.4V178.64Z" fill="white"/>
<path d="M100.24 178.64H92.4V186.48H100.24V178.64Z" fill="white"/>
<path d="M108.08 178.64H100.24V186.48H108.08V178.64Z" fill="white"/>
<path d="M131.6 178.64H123.76V186.48H131.6V178.64Z" fill="white"/>
<path d="M139.44 178.64H131.6V186.48H139.44V178.64Z" fill="white"/>
<path d="M194.32 178.64H186.48V186.48H194.32V178.64Z" fill="white"/>
<path d="M210 178.64H202.16V186.48H210V178.64Z" fill="white"/>
<path d="M21.84 186.48H14V194.32H21.84V186.48Z" fill="white"/>
<path d="M37.52 186.48H29.68V194.32H37.52V186.48Z" fill="white"/>
<path d="M45.36 186.48H37.52V194.32H45.36V186.48Z" fill="white"/>
<path d="M53.2 186.48H45.36V194.32H53.2V186.48Z" fill="white"/>
<path d="M68.88 186.48H61.04V194.32H68.88V186.48Z" fill="white"/>
<path d="M84.56 186.48H76.72V194.32H84.56V186.48Z" fill="white"/>
<path d="M92.4 186.48H84.56V194.32H92.4V186.48Z" fill="white"/>
<path d="M108.08 186.48H100.24V194.32H108.08V186.48Z" fill="white"/>
<path d="M131.6 186.48H123.76V194.32H131.6V186.48Z" fill="white"/>
<path d="M139.44 186.48H131.6V194.32H139.44V186.48Z" fill="white"/>
<path d="M147.28 186.48H139.44V194.32H147.28V186.48Z" fill="white"/>
<path d="M155.12 186.48H147.28V194.32H155.12V186.48Z" fill="white"/>
<path d="M194.32 186.48H186.48V194.32H194.32V186.48Z" fill="white"/>
<path d="M202.16 186.48H194.32V194.32H202.16V186.48Z" fill="white"/>
<path d="M21.84 194.32H14V202.16H21.84V194.32Z" fill="white"/>
<path d="M68.88 194.32H61.04V202.16H68.88V194.32Z" fill="white"/>
<path d="M84.56 194.32H76.72V202.16H84.56V194.32Z" fill="white"/>
<path d="M92.4 194.32H84.56V202.16H92.4V194.32Z" fill="white"/>
<path d="M108.08 194.32H100.24V202.16H108.08V194.32Z" fill="white"/>
<path d="M123.76 194.32H115.92V202.16H123.76V194.32Z" fill="white"/>
<path d="M131.6 194.32H123.76V202.16H131.6V194.32Z" fill="white"/>
<path d="M147.28 194.32H139.44V202.16H147.28V194.32Z" fill="white"/>
<path d="M155.12 194.32H147.28V202.16H155.12V194.32Z" fill="white"/>
<path d="M170.8 194.32H162.96V202.16H170.8V194.32Z" fill="white"/>
<path d="M178.64 194.32H170.8V202.16H178.64V194.32Z" fill="white"/>
<path d="M186.48 194.32H178.64V202.16H186.48V194.32Z" fill="white"/>
<path d="M194.32 194.32H186.48V202.16H194.32V194.32Z" fill="white"/>
<path d="M202.16 194.32H194.32V202.16H202.16V194.32Z" fill="white"/>
<path d="M21.84 202.16H14V210H21.84V202.16Z" fill="white"/>
<path d="M29.68 202.16H21.84V210H29.68V202.16Z" fill="white"/>
<path d="M37.52 202.16H29.68V210H37.52V202.16Z" fill="white"/>
<path d="M45.36 202.16H37.52V210H45.36V202.16Z" fill="white"/>
<path d="M53.2 202.16H45.36V210H53.2V202.16Z" fill="white"/>
<path d="M61.04 202.16H53.2V210H61.04L61.04 202.16Z" fill="white"/>
<path d="M68.88 202.16H61.04L61.04 210H68.88V202.16Z" fill="white"/>
<path d="M84.56 202.16H76.72V210H84.56V202.16Z" fill="white"/>
<path d="M100.24 202.16H92.4V210H100.24V202.16Z" fill="white"/>
<path d="M108.08 202.16H100.24V210H108.08V202.16Z" fill="white"/>
<path d="M115.92 202.16H108.08V210H115.92V202.16Z" fill="white"/>
<path d="M131.6 202.16H123.76V210H131.6V202.16Z" fill="white"/>
<path d="M139.44 202.16H131.6V210H139.44V202.16Z" fill="white"/>
<path d="M162.96 202.16H155.12V210H162.96V202.16Z" fill="white"/>
<path d="M178.64 202.16H170.8V210H178.64V202.16Z" fill="white"/>
<path d="M186.48 202.16H178.64V210H186.48V202.16Z" fill="white"/>
<path d="M194.32 202.16H186.48V210H194.32V202.16Z" fill="white"/>
<path d="M202.16 202.16H194.32V210H202.16V202.16Z" fill="white"/>
<path d="M210 202.16H202.16V210H210V202.16Z" fill="white"/>
</svg>
