<svg width="225" height="224" viewBox="0 0 225 224" fill="none" xmlns="http://www.w3.org/2000/svg">
<rect x="1.5" y="1" width="222" height="222" rx="11" fill="#1D2939"/>
<rect x="1.5" y="1" width="222" height="222" rx="11" stroke="white" stroke-width="2"/>
<path d="M22.34 14H14.5V21.84H22.34V14Z" fill="white"/>
<path d="M30.18 14H22.34V21.84H30.18V14Z" fill="white"/>
<path d="M38.02 14H30.18V21.84H38.02V14Z" fill="white"/>
<path d="M45.86 14H38.02V21.84H45.86V14Z" fill="white"/>
<path d="M53.7 14H45.86V21.84H53.7V14Z" fill="white"/>
<path d="M61.54 14H53.7V21.84H61.54V14Z" fill="white"/>
<path d="M69.38 14H61.54V21.84H69.38V14Z" fill="white"/>
<path d="M85.06 14H77.22V21.84H85.06V14Z" fill="white"/>
<path d="M100.74 14H92.9V21.84H100.74V14Z" fill="white"/>
<path d="M124.26 14H116.42V21.84H124.26V14Z" fill="white"/>
<path d="M132.1 14H124.26V21.84H132.1V14Z" fill="white"/>
<path d="M139.94 14H132.1V21.84H139.94V14Z" fill="white"/>
<path d="M147.78 14H139.94V21.84H147.78V14Z" fill="white"/>
<path d="M163.46 14H155.62V21.84H163.46V14Z" fill="white"/>
<path d="M171.3 14H163.46V21.84H171.3V14Z" fill="white"/>
<path d="M179.14 14H171.3V21.84H179.14V14Z" fill="white"/>
<path d="M186.98 14H179.14V21.84H186.98V14Z" fill="white"/>
<path d="M194.82 14H186.98V21.84H194.82V14Z" fill="white"/>
<path d="M202.66 14H194.82V21.84H202.66V14Z" fill="white"/>
<path d="M210.5 14H202.66V21.84H210.5V14Z" fill="white"/>
<path d="M22.34 21.84H14.5V29.68H22.34V21.84Z" fill="white"/>
<path d="M69.38 21.84H61.54L61.54 29.68H69.38V21.84Z" fill="white"/>
<path d="M92.9 21.84H85.06V29.68H92.9V21.84Z" fill="white"/>
<path d="M100.74 21.84H92.9V29.68H100.74V21.84Z" fill="white"/>
<path d="M108.58 21.84H100.74V29.68H108.58V21.84Z" fill="white"/>
<path d="M124.26 21.84H116.42V29.68H124.26V21.84Z" fill="white"/>
<path d="M132.1 21.84H124.26V29.68H132.1V21.84Z" fill="white"/>
<path d="M163.46 21.84H155.62V29.68H163.46V21.84Z" fill="white"/>
<path d="M210.5 21.84H202.66V29.68H210.5V21.84Z" fill="white"/>
<path d="M22.34 29.68H14.5V37.52H22.34V29.68Z" fill="white"/>
<path d="M38.02 29.68H30.18V37.52H38.02V29.68Z" fill="white"/>
<path d="M45.86 29.68H38.02V37.52H45.86V29.68Z" fill="white"/>
<path d="M53.7 29.68H45.86V37.52H53.7V29.68Z" fill="white"/>
<path d="M69.38 29.68H61.54V37.52H69.38V29.68Z" fill="white"/>
<path d="M92.9 29.68H85.06V37.52H92.9V29.68Z" fill="white"/>
<path d="M108.58 29.68H100.74V37.52H108.58V29.68Z" fill="white"/>
<path d="M116.42 29.68H108.58V37.52H116.42V29.68Z" fill="white"/>
<path d="M124.26 29.68H116.42V37.52H124.26V29.68Z" fill="white"/>
<path d="M132.1 29.68H124.26V37.52H132.1V29.68Z" fill="white"/>
<path d="M139.94 29.68H132.1V37.52H139.94V29.68Z" fill="white"/>
<path d="M147.78 29.68H139.94V37.52H147.78V29.68Z" fill="white"/>
<path d="M163.46 29.68H155.62V37.52H163.46V29.68Z" fill="white"/>
<path d="M179.14 29.68H171.3V37.52H179.14V29.68Z" fill="white"/>
<path d="M186.98 29.68H179.14V37.52H186.98V29.68Z" fill="white"/>
<path d="M194.82 29.68H186.98V37.52H194.82V29.68Z" fill="white"/>
<path d="M210.5 29.68H202.66V37.52H210.5V29.68Z" fill="white"/>
<path d="M22.34 37.52H14.5V45.36H22.34V37.52Z" fill="white"/>
<path d="M38.02 37.52H30.18V45.36H38.02V37.52Z" fill="white"/>
<path d="M45.86 37.52H38.02V45.36H45.86V37.52Z" fill="white"/>
<path d="M53.7 37.52H45.86V45.36H53.7V37.52Z" fill="white"/>
<path d="M69.38 37.52H61.54V45.36H69.38V37.52Z" fill="white"/>
<path d="M85.06 37.52H77.22V45.36H85.06V37.52Z" fill="white"/>
<path d="M92.9 37.52H85.06V45.36H92.9V37.52Z" fill="white"/>
<path d="M100.74 37.52H92.9V45.36H100.74V37.52Z" fill="white"/>
<path d="M108.58 37.52H100.74V45.36H108.58V37.52Z" fill="white"/>
<path d="M132.1 37.52H124.26V45.36H132.1V37.52Z" fill="white"/>
<path d="M163.46 37.52H155.62V45.36H163.46V37.52Z" fill="white"/>
<path d="M179.14 37.52H171.3V45.36H179.14V37.52Z" fill="white"/>
<path d="M186.98 37.52H179.14V45.36H186.98V37.52Z" fill="white"/>
<path d="M194.82 37.52H186.98V45.36H194.82V37.52Z" fill="white"/>
<path d="M210.5 37.52H202.66V45.36H210.5V37.52Z" fill="white"/>
<path d="M22.34 45.36H14.5V53.2H22.34V45.36Z" fill="white"/>
<path d="M38.02 45.36H30.18V53.2H38.02V45.36Z" fill="white"/>
<path d="M45.86 45.36H38.02V53.2H45.86V45.36Z" fill="white"/>
<path d="M53.7 45.36H45.86V53.2H53.7V45.36Z" fill="white"/>
<path d="M69.38 45.36H61.54V53.2H69.38V45.36Z" fill="white"/>
<path d="M85.06 45.36H77.22V53.2H85.06V45.36Z" fill="white"/>
<path d="M92.9 45.36H85.06V53.2H92.9V45.36Z" fill="white"/>
<path d="M100.74 45.36H92.9V53.2H100.74V45.36Z" fill="white"/>
<path d="M124.26 45.36H116.42V53.2H124.26V45.36Z" fill="white"/>
<path d="M132.1 45.36H124.26V53.2H132.1V45.36Z" fill="white"/>
<path d="M139.94 45.36H132.1V53.2H139.94V45.36Z" fill="white"/>
<path d="M163.46 45.36H155.62V53.2H163.46V45.36Z" fill="white"/>
<path d="M179.14 45.36H171.3V53.2H179.14V45.36Z" fill="white"/>
<path d="M186.98 45.36H179.14V53.2H186.98V45.36Z" fill="white"/>
<path d="M194.82 45.36H186.98V53.2H194.82V45.36Z" fill="white"/>
<path d="M210.5 45.36H202.66V53.2H210.5V45.36Z" fill="white"/>
<path d="M22.34 53.2H14.5V61.04H22.34V53.2Z" fill="white"/>
<path d="M69.38 53.2H61.54V61.04H69.38V53.2Z" fill="white"/>
<path d="M85.06 53.2H77.22V61.04H85.06V53.2Z" fill="white"/>
<path d="M100.74 53.2H92.9V61.04H100.74V53.2Z" fill="white"/>
<path d="M116.42 53.2H108.58V61.04H116.42V53.2Z" fill="white"/>
<path d="M124.26 53.2H116.42V61.04H124.26V53.2Z" fill="white"/>
<path d="M132.1 53.2H124.26V61.04H132.1V53.2Z" fill="white"/>
<path d="M139.94 53.2H132.1V61.04H139.94V53.2Z" fill="white"/>
<path d="M147.78 53.2H139.94V61.04H147.78V53.2Z" fill="white"/>
<path d="M163.46 53.2H155.62V61.04H163.46V53.2Z" fill="white"/>
<path d="M210.5 53.2H202.66V61.04H210.5V53.2Z" fill="white"/>
<path d="M22.34 61.04H14.5V68.88H22.34V61.04Z" fill="white"/>
<path d="M30.18 61.04L22.34 61.04V68.88H30.18V61.04Z" fill="white"/>
<path d="M38.02 61.04H30.18V68.88H38.02V61.04Z" fill="white"/>
<path d="M45.86 61.04H38.02V68.88H45.86V61.04Z" fill="white"/>
<path d="M53.7 61.04H45.86V68.88H53.7V61.04Z" fill="white"/>
<path d="M61.54 61.04L53.7 61.04V68.88H61.54L61.54 61.04Z" fill="white"/>
<path d="M69.38 61.04H61.54L61.54 68.88H69.38V61.04Z" fill="white"/>
<path d="M85.06 61.04H77.22V68.88H85.06V61.04Z" fill="white"/>
<path d="M100.74 61.04H92.9V68.88H100.74V61.04Z" fill="white"/>
<path d="M116.42 61.04H108.58V68.88H116.42V61.04Z" fill="white"/>
<path d="M132.1 61.04H124.26V68.88H132.1V61.04Z" fill="white"/>
<path d="M147.78 61.04H139.94V68.88H147.78V61.04Z" fill="white"/>
<path d="M163.46 61.04H155.62V68.88H163.46V61.04Z" fill="white"/>
<path d="M171.3 61.04L163.46 61.04V68.88H171.3V61.04Z" fill="white"/>
<path d="M179.14 61.04H171.3V68.88H179.14V61.04Z" fill="white"/>
<path d="M186.98 61.04H179.14V68.88H186.98V61.04Z" fill="white"/>
<path d="M194.82 61.04H186.98V68.88H194.82V61.04Z" fill="white"/>
<path d="M202.66 61.04L194.82 61.04V68.88H202.66V61.04Z" fill="white"/>
<path d="M210.5 61.04H202.66V68.88H210.5V61.04Z" fill="white"/>
<path d="M85.06 68.88H77.22V76.72H85.06V68.88Z" fill="white"/>
<path d="M92.9 68.88H85.06V76.72H92.9V68.88Z" fill="white"/>
<path d="M100.74 68.88H92.9V76.72H100.74V68.88Z" fill="white"/>
<path d="M108.58 68.88H100.74V76.72H108.58V68.88Z" fill="white"/>
<path d="M116.42 68.88H108.58V76.72H116.42V68.88Z" fill="white"/>
<path d="M124.26 68.88H116.42V76.72H124.26V68.88Z" fill="white"/>
<path d="M139.94 68.88H132.1L132.1 76.72H139.94V68.88Z" fill="white"/>
<path d="M147.78 68.88H139.94V76.72H147.78V68.88Z" fill="white"/>
<path d="M22.34 76.72H14.5V84.56H22.34V76.72Z" fill="white"/>
<path d="M30.18 76.72H22.34V84.56H30.18V76.72Z" fill="white"/>
<path d="M38.02 76.72H30.18V84.56H38.02V76.72Z" fill="white"/>
<path d="M53.7 76.72H45.86V84.56H53.7V76.72Z" fill="white"/>
<path d="M69.38 76.72H61.54V84.56H69.38V76.72Z" fill="white"/>
<path d="M85.06 76.72H77.22V84.56H85.06V76.72Z" fill="white"/>
<path d="M108.58 76.72H100.74V84.56H108.58V76.72Z" fill="white"/>
<path d="M132.1 76.72H124.26V84.56H132.1L132.1 76.72Z" fill="white"/>
<path d="M155.62 76.72H147.78V84.56H155.62V76.72Z" fill="white"/>
<path d="M163.46 76.72H155.62V84.56H163.46V76.72Z" fill="white"/>
<path d="M171.3 76.72H163.46V84.56H171.3V76.72Z" fill="white"/>
<path d="M179.14 76.72H171.3V84.56H179.14V76.72Z" fill="white"/>
<path d="M186.98 76.72H179.14V84.56H186.98V76.72Z" fill="white"/>
<path d="M210.5 76.72H202.66V84.56H210.5V76.72Z" fill="white"/>
<path d="M30.18 84.56H22.34V92.4H30.18V84.56Z" fill="white"/>
<path d="M45.86 84.56H38.02V92.4H45.86V84.56Z" fill="white"/>
<path d="M61.54 84.56H53.7V92.4H61.54L61.54 84.56Z" fill="white"/>
<path d="M77.22 84.56H69.38V92.4H77.22V84.56Z" fill="white"/>
<path d="M85.06 84.56H77.22V92.4H85.06V84.56Z" fill="white"/>
<path d="M92.9 84.56H85.06V92.4H92.9V84.56Z" fill="white"/>
<path d="M108.58 84.56H100.74V92.4H108.58V84.56Z" fill="white"/>
<path d="M116.42 84.56H108.58V92.4H116.42V84.56Z" fill="white"/>
<path d="M132.1 84.56H124.26V92.4H132.1V84.56Z" fill="white"/>
<path d="M139.94 84.56H132.1V92.4H139.94V84.56Z" fill="white"/>
<path d="M147.78 84.56H139.94V92.4H147.78V84.56Z" fill="white"/>
<path d="M155.62 84.56H147.78V92.4H155.62V84.56Z" fill="white"/>
<path d="M163.46 84.56H155.62V92.4H163.46V84.56Z" fill="white"/>
<path d="M171.3 84.56H163.46V92.4H171.3V84.56Z" fill="white"/>
<path d="M179.14 84.56H171.3V92.4H179.14V84.56Z" fill="white"/>
<path d="M194.82 84.56H186.98V92.4H194.82V84.56Z" fill="white"/>
<path d="M30.18 92.4H22.34V100.24H30.18V92.4Z" fill="white"/>
<path d="M45.86 92.4H38.02V100.24H45.86V92.4Z" fill="white"/>
<path d="M53.7 92.4H45.86V100.24H53.7V92.4Z" fill="white"/>
<path d="M61.54 92.4H53.7V100.24H61.54V92.4Z" fill="white"/>
<path d="M69.38 92.4H61.54V100.24H69.38V92.4Z" fill="white"/>
<path d="M92.9 92.4H85.06V100.24H92.9V92.4Z" fill="white"/>
<path d="M108.58 92.4H100.74V100.24H108.58V92.4Z" fill="white"/>
<path d="M163.46 92.4H155.62V100.24H163.46V92.4Z" fill="white"/>
<path d="M171.3 92.4H163.46V100.24H171.3V92.4Z" fill="white"/>
<path d="M194.82 92.4H186.98V100.24H194.82V92.4Z" fill="white"/>
<path d="M202.66 92.4H194.82V100.24H202.66V92.4Z" fill="white"/>
<path d="M22.34 100.24H14.5V108.08H22.34V100.24Z" fill="white"/>
<path d="M38.02 100.24H30.18V108.08H38.02V100.24Z" fill="white"/>
<path d="M45.86 100.24H38.02V108.08H45.86V100.24Z" fill="white"/>
<path d="M61.54 100.24H53.7V108.08H61.54V100.24Z" fill="white"/>
<path d="M85.06 100.24H77.22V108.08H85.06V100.24Z" fill="white"/>
<path d="M92.9 100.24H85.06V108.08H92.9V100.24Z" fill="white"/>
<path d="M132.1 100.24H124.26V108.08H132.1V100.24Z" fill="white"/>
<path d="M139.94 100.24H132.1V108.08H139.94V100.24Z" fill="white"/>
<path d="M155.62 100.24H147.78V108.08H155.62V100.24Z" fill="white"/>
<path d="M163.46 100.24H155.62V108.08H163.46V100.24Z" fill="white"/>
<path d="M30.18 108.08H22.34V115.92H30.18V108.08Z" fill="white"/>
<path d="M45.86 108.08H38.02V115.92H45.86V108.08Z" fill="white"/>
<path d="M61.54 108.08H53.7V115.92H61.54V108.08Z" fill="white"/>
<path d="M69.38 108.08H61.54V115.92H69.38V108.08Z" fill="white"/>
<path d="M77.22 108.08H69.38V115.92H77.22V108.08Z" fill="white"/>
<path d="M85.06 108.08H77.22V115.92H85.06V108.08Z" fill="white"/>
<path d="M116.42 108.08H108.58V115.92H116.42V108.08Z" fill="white"/>
<path d="M132.1 108.08H124.26V115.92H132.1V108.08Z" fill="white"/>
<path d="M155.62 108.08H147.78V115.92H155.62V108.08Z" fill="white"/>
<path d="M171.3 108.08H163.46V115.92H171.3V108.08Z" fill="white"/>
<path d="M179.14 108.08H171.3V115.92H179.14V108.08Z" fill="white"/>
<path d="M194.82 108.08H186.98V115.92H194.82V108.08Z" fill="white"/>
<path d="M210.5 108.08H202.66V115.92H210.5V108.08Z" fill="white"/>
<path d="M22.34 115.92H14.5V123.76H22.34V115.92Z" fill="white"/>
<path d="M30.18 115.92H22.34V123.76H30.18V115.92Z" fill="white"/>
<path d="M38.02 115.92H30.18V123.76H38.02V115.92Z" fill="white"/>
<path d="M45.86 115.92H38.02V123.76H45.86V115.92Z" fill="white"/>
<path d="M53.7 115.92H45.86V123.76H53.7V115.92Z" fill="white"/>
<path d="M61.54 115.92H53.7V123.76H61.54V115.92Z" fill="white"/>
<path d="M77.22 115.92H69.38V123.76H77.22V115.92Z" fill="white"/>
<path d="M100.74 115.92H92.9V123.76H100.74V115.92Z" fill="white"/>
<path d="M147.78 115.92H139.94V123.76H147.78V115.92Z" fill="white"/>
<path d="M155.62 115.92H147.78V123.76H155.62V115.92Z" fill="white"/>
<path d="M163.46 115.92H155.62V123.76H163.46V115.92Z" fill="white"/>
<path d="M171.3 115.92H163.46V123.76H171.3V115.92Z" fill="white"/>
<path d="M186.98 115.92H179.14V123.76H186.98V115.92Z" fill="white"/>
<path d="M194.82 115.92H186.98V123.76H194.82V115.92Z" fill="white"/>
<path d="M210.5 115.92H202.66V123.76H210.5V115.92Z" fill="white"/>
<path d="M22.34 123.76H14.5V131.6H22.34V123.76Z" fill="white"/>
<path d="M38.02 123.76H30.18V131.6H38.02V123.76Z" fill="white"/>
<path d="M45.86 123.76H38.02V131.6H45.86V123.76Z" fill="white"/>
<path d="M53.7 123.76H45.86V131.6H53.7V123.76Z" fill="white"/>
<path d="M61.54 123.76H53.7V131.6H61.54V123.76Z" fill="white"/>
<path d="M69.38 123.76H61.54V131.6H69.38V123.76Z" fill="white"/>
<path d="M77.22 123.76H69.38V131.6H77.22V123.76Z" fill="white"/>
<path d="M85.06 123.76H77.22V131.6H85.06V123.76Z" fill="white"/>
<path d="M92.9 123.76H85.06V131.6H92.9V123.76Z" fill="white"/>
<path d="M100.74 123.76H92.9V131.6H100.74V123.76Z" fill="white"/>
<path d="M108.58 123.76H100.74V131.6H108.58V123.76Z" fill="white"/>
<path d="M124.26 123.76H116.42V131.6H124.26V123.76Z" fill="white"/>
<path d="M132.1 123.76H124.26V131.6H132.1V123.76Z" fill="white"/>
<path d="M186.98 123.76H179.14V131.6H186.98V123.76Z" fill="white"/>
<path d="M202.66 123.76H194.82V131.6H202.66V123.76Z" fill="white"/>
<path d="M210.5 123.76H202.66V131.6H210.5V123.76Z" fill="white"/>
<path d="M38.02 131.6H30.18V139.44H38.02V131.6Z" fill="white"/>
<path d="M45.86 131.6H38.02V139.44H45.86V131.6Z" fill="white"/>
<path d="M77.22 131.6H69.38V139.44H77.22V131.6Z" fill="white"/>
<path d="M85.06 131.6H77.22V139.44H85.06V131.6Z" fill="white"/>
<path d="M92.9 131.6H85.06V139.44H92.9V131.6Z" fill="white"/>
<path d="M100.74 131.6H92.9V139.44H100.74V131.6Z" fill="white"/>
<path d="M108.58 131.6H100.74V139.44H108.58V131.6Z" fill="white"/>
<path d="M124.26 131.6H116.42V139.44H124.26V131.6Z" fill="white"/>
<path d="M132.1 131.6H124.26V139.44H132.1V131.6Z" fill="white"/>
<path d="M139.94 131.6L132.1 131.6V139.44H139.94V131.6Z" fill="white"/>
<path d="M171.3 131.6H163.46V139.44H171.3V131.6Z" fill="white"/>
<path d="M179.14 131.6L171.3 131.6V139.44H179.14V131.6Z" fill="white"/>
<path d="M186.98 131.6H179.14V139.44H186.98V131.6Z" fill="white"/>
<path d="M45.86 139.44H38.02V147.28H45.86V139.44Z" fill="white"/>
<path d="M53.7 139.44H45.86V147.28H53.7V139.44Z" fill="white"/>
<path d="M69.38 139.44H61.54V147.28H69.38V139.44Z" fill="white"/>
<path d="M77.22 139.44H69.38V147.28H77.22V139.44Z" fill="white"/>
<path d="M85.06 139.44H77.22V147.28H85.06V139.44Z" fill="white"/>
<path d="M100.74 139.44H92.9V147.28H100.74V139.44Z" fill="white"/>
<path d="M116.42 139.44H108.58V147.28H116.42V139.44Z" fill="white"/>
<path d="M124.26 139.44H116.42V147.28H124.26V139.44Z" fill="white"/>
<path d="M147.78 139.44H139.94V147.28H147.78V139.44Z" fill="white"/>
<path d="M155.62 139.44H147.78V147.28H155.62V139.44Z" fill="white"/>
<path d="M163.46 139.44H155.62V147.28H163.46V139.44Z" fill="white"/>
<path d="M171.3 139.44H163.46V147.28H171.3V139.44Z" fill="white"/>
<path d="M179.14 139.44H171.3V147.28H179.14V139.44Z" fill="white"/>
<path d="M210.5 139.44H202.66V147.28H210.5V139.44Z" fill="white"/>
<path d="M85.06 147.28H77.22V155.12H85.06V147.28Z" fill="white"/>
<path d="M92.9 147.28H85.06V155.12H92.9V147.28Z" fill="white"/>
<path d="M124.26 147.28H116.42V155.12H124.26V147.28Z" fill="white"/>
<path d="M132.1 147.28H124.26V155.12H132.1V147.28Z" fill="white"/>
<path d="M139.94 147.28H132.1V155.12H139.94V147.28Z" fill="white"/>
<path d="M147.78 147.28H139.94V155.12H147.78V147.28Z" fill="white"/>
<path d="M179.14 147.28H171.3V155.12H179.14V147.28Z" fill="white"/>
<path d="M194.82 147.28H186.98V155.12H194.82V147.28Z" fill="white"/>
<path d="M210.5 147.28H202.66V155.12H210.5V147.28Z" fill="white"/>
<path d="M22.34 155.12H14.5V162.96H22.34V155.12Z" fill="white"/>
<path d="M30.18 155.12H22.34V162.96H30.18V155.12Z" fill="white"/>
<path d="M38.02 155.12H30.18V162.96H38.02V155.12Z" fill="white"/>
<path d="M45.86 155.12H38.02V162.96H45.86V155.12Z" fill="white"/>
<path d="M53.7 155.12H45.86V162.96H53.7V155.12Z" fill="white"/>
<path d="M61.54 155.12H53.7V162.96H61.54V155.12Z" fill="white"/>
<path d="M69.38 155.12H61.54V162.96H69.38V155.12Z" fill="white"/>
<path d="M100.74 155.12H92.9V162.96H100.74V155.12Z" fill="white"/>
<path d="M116.42 155.12H108.58V162.96H116.42V155.12Z" fill="white"/>
<path d="M132.1 155.12H124.26V162.96H132.1V155.12Z" fill="white"/>
<path d="M147.78 155.12H139.94V162.96H147.78V155.12Z" fill="white"/>
<path d="M163.46 155.12H155.62V162.96H163.46V155.12Z" fill="white"/>
<path d="M179.14 155.12H171.3V162.96H179.14V155.12Z" fill="white"/>
<path d="M186.98 155.12H179.14V162.96H186.98V155.12Z" fill="white"/>
<path d="M22.34 162.96H14.5V170.8H22.34V162.96Z" fill="white"/>
<path d="M69.38 162.96H61.54L61.54 170.8H69.38V162.96Z" fill="white"/>
<path d="M92.9 162.96H85.06V170.8H92.9V162.96Z" fill="white"/>
<path d="M100.74 162.96H92.9V170.8H100.74V162.96Z" fill="white"/>
<path d="M108.58 162.96H100.74V170.8H108.58V162.96Z" fill="white"/>
<path d="M139.94 162.96H132.1L132.1 170.8H139.94V162.96Z" fill="white"/>
<path d="M147.78 162.96H139.94V170.8H147.78V162.96Z" fill="white"/>
<path d="M179.14 162.96H171.3V170.8H179.14V162.96Z" fill="white"/>
<path d="M202.66 162.96H194.82V170.8H202.66V162.96Z" fill="white"/>
<path d="M22.34 170.8H14.5V178.64H22.34V170.8Z" fill="white"/>
<path d="M38.02 170.8H30.18V178.64H38.02V170.8Z" fill="white"/>
<path d="M45.86 170.8H38.02V178.64H45.86V170.8Z" fill="white"/>
<path d="M53.7 170.8H45.86V178.64H53.7V170.8Z" fill="white"/>
<path d="M69.38 170.8H61.54V178.64H69.38V170.8Z" fill="white"/>
<path d="M85.06 170.8H77.22V178.64H85.06V170.8Z" fill="white"/>
<path d="M92.9 170.8H85.06V178.64H92.9V170.8Z" fill="white"/>
<path d="M124.26 170.8H116.42V178.64H124.26V170.8Z" fill="white"/>
<path d="M132.1 170.8H124.26V178.64H132.1L132.1 170.8Z" fill="white"/>
<path d="M147.78 170.8H139.94V178.64H147.78V170.8Z" fill="white"/>
<path d="M155.62 170.8H147.78V178.64H155.62V170.8Z" fill="white"/>
<path d="M163.46 170.8H155.62V178.64H163.46V170.8Z" fill="white"/>
<path d="M171.3 170.8H163.46V178.64H171.3V170.8Z" fill="white"/>
<path d="M179.14 170.8H171.3V178.64H179.14V170.8Z" fill="white"/>
<path d="M194.82 170.8H186.98V178.64H194.82V170.8Z" fill="white"/>
<path d="M202.66 170.8H194.82V178.64H202.66V170.8Z" fill="white"/>
<path d="M22.34 178.64H14.5V186.48H22.34V178.64Z" fill="white"/>
<path d="M38.02 178.64H30.18V186.48H38.02V178.64Z" fill="white"/>
<path d="M45.86 178.64H38.02V186.48H45.86V178.64Z" fill="white"/>
<path d="M53.7 178.64H45.86V186.48H53.7V178.64Z" fill="white"/>
<path d="M69.38 178.64H61.54V186.48H69.38V178.64Z" fill="white"/>
<path d="M92.9 178.64H85.06V186.48H92.9V178.64Z" fill="white"/>
<path d="M100.74 178.64H92.9V186.48H100.74V178.64Z" fill="white"/>
<path d="M108.58 178.64H100.74V186.48H108.58V178.64Z" fill="white"/>
<path d="M132.1 178.64H124.26V186.48H132.1V178.64Z" fill="white"/>
<path d="M139.94 178.64H132.1V186.48H139.94V178.64Z" fill="white"/>
<path d="M194.82 178.64H186.98V186.48H194.82V178.64Z" fill="white"/>
<path d="M210.5 178.64H202.66V186.48H210.5V178.64Z" fill="white"/>
<path d="M22.34 186.48H14.5V194.32H22.34V186.48Z" fill="white"/>
<path d="M38.02 186.48H30.18V194.32H38.02V186.48Z" fill="white"/>
<path d="M45.86 186.48H38.02V194.32H45.86V186.48Z" fill="white"/>
<path d="M53.7 186.48H45.86V194.32H53.7V186.48Z" fill="white"/>
<path d="M69.38 186.48H61.54V194.32H69.38V186.48Z" fill="white"/>
<path d="M85.06 186.48H77.22V194.32H85.06V186.48Z" fill="white"/>
<path d="M92.9 186.48H85.06V194.32H92.9V186.48Z" fill="white"/>
<path d="M108.58 186.48H100.74V194.32H108.58V186.48Z" fill="white"/>
<path d="M132.1 186.48H124.26V194.32H132.1V186.48Z" fill="white"/>
<path d="M139.94 186.48H132.1V194.32H139.94V186.48Z" fill="white"/>
<path d="M147.78 186.48H139.94V194.32H147.78V186.48Z" fill="white"/>
<path d="M155.62 186.48H147.78V194.32H155.62V186.48Z" fill="white"/>
<path d="M194.82 186.48H186.98V194.32H194.82V186.48Z" fill="white"/>
<path d="M202.66 186.48H194.82V194.32H202.66V186.48Z" fill="white"/>
<path d="M22.34 194.32H14.5V202.16H22.34V194.32Z" fill="white"/>
<path d="M69.38 194.32H61.54V202.16H69.38V194.32Z" fill="white"/>
<path d="M85.06 194.32H77.22V202.16H85.06V194.32Z" fill="white"/>
<path d="M92.9 194.32H85.06V202.16H92.9V194.32Z" fill="white"/>
<path d="M108.58 194.32H100.74V202.16H108.58V194.32Z" fill="white"/>
<path d="M124.26 194.32H116.42V202.16H124.26V194.32Z" fill="white"/>
<path d="M132.1 194.32H124.26V202.16H132.1V194.32Z" fill="white"/>
<path d="M147.78 194.32H139.94V202.16H147.78V194.32Z" fill="white"/>
<path d="M155.62 194.32H147.78V202.16H155.62V194.32Z" fill="white"/>
<path d="M171.3 194.32H163.46V202.16H171.3V194.32Z" fill="white"/>
<path d="M179.14 194.32H171.3V202.16H179.14V194.32Z" fill="white"/>
<path d="M186.98 194.32H179.14V202.16H186.98V194.32Z" fill="white"/>
<path d="M194.82 194.32H186.98V202.16H194.82V194.32Z" fill="white"/>
<path d="M202.66 194.32H194.82V202.16H202.66V194.32Z" fill="white"/>
<path d="M22.34 202.16H14.5V210H22.34V202.16Z" fill="white"/>
<path d="M30.18 202.16H22.34V210H30.18V202.16Z" fill="white"/>
<path d="M38.02 202.16H30.18V210H38.02V202.16Z" fill="white"/>
<path d="M45.86 202.16H38.02V210H45.86V202.16Z" fill="white"/>
<path d="M53.7 202.16H45.86V210H53.7V202.16Z" fill="white"/>
<path d="M61.54 202.16H53.7V210H61.54L61.54 202.16Z" fill="white"/>
<path d="M69.38 202.16H61.54L61.54 210H69.38V202.16Z" fill="white"/>
<path d="M85.06 202.16H77.22V210H85.06V202.16Z" fill="white"/>
<path d="M100.74 202.16H92.9V210H100.74V202.16Z" fill="white"/>
<path d="M108.58 202.16H100.74V210H108.58V202.16Z" fill="white"/>
<path d="M116.42 202.16H108.58V210H116.42V202.16Z" fill="white"/>
<path d="M132.1 202.16H124.26V210H132.1V202.16Z" fill="white"/>
<path d="M139.94 202.16H132.1V210H139.94V202.16Z" fill="white"/>
<path d="M163.46 202.16H155.62V210H163.46V202.16Z" fill="white"/>
<path d="M179.14 202.16H171.3V210H179.14V202.16Z" fill="white"/>
<path d="M186.98 202.16H179.14V210H186.98V202.16Z" fill="white"/>
<path d="M194.82 202.16H186.98V210H194.82V202.16Z" fill="white"/>
<path d="M202.66 202.16H194.82V210H202.66V202.16Z" fill="white"/>
<path d="M210.5 202.16H202.66V210H210.5V202.16Z" fill="white"/>
</svg>
