<svg width="230" height="44" viewBox="0 0 230 44" fill="none" xmlns="http://www.w3.org/2000/svg">
<path d="M38.3475 12.2739C37.1217 8.59643 34.67 6.14477 30.9925 4.61249V0.015625H27.9279V4.30603H26.7021C23.3311 4.30603 20.573 5.53186 18.1213 7.98352L16.8955 9.20935L12.6051 7.67706C11.6857 7.3706 10.7663 7.06415 9.5405 7.06415C7.70175 7.06415 5.86301 7.67706 4.33072 8.90289C2.49197 10.1287 1.5726 11.661 0.959686 13.1933C0.346771 15.3385 0.346771 17.1772 0.959686 19.3224C1.87906 21.4676 2.79843 22.9999 4.33072 23.9193C3.10489 28.5162 4.02426 32.5001 7.39529 35.8712C9.84695 38.3228 12.6051 39.5486 15.9761 39.5486C17.5084 39.5486 18.4278 39.5486 19.3471 39.2422C21.1859 41.6938 23.6375 43.2261 26.7021 43.2261C27.6215 43.2261 28.8473 43.2261 29.7667 42.9197C31.6054 42.3068 32.8313 41.0809 34.0571 39.5486C35.2829 37.7099 35.8958 36.1776 35.8958 34.3389C35.8958 33.113 35.8958 32.1937 35.5894 31.2743L34.0571 26.371L35.8958 25.1451C38.3475 22.6935 39.5733 19.3224 39.2669 15.645H43.2508V12.2739H38.3475ZM8.62112 19.3224C6.78238 18.4031 6.16946 17.1772 6.78238 15.3385C7.39529 13.4998 8.62112 12.8868 10.4599 13.4998L20.2665 17.1772C15.3632 19.6289 11.6857 20.2418 8.62112 19.3224ZM27.9279 36.4841C26.0892 37.097 24.8634 36.4841 23.944 34.6453C23.0246 31.5807 23.6375 27.9033 26.0892 22.9999L29.7667 32.5001C30.3796 34.6453 29.7667 35.8711 27.9279 36.4841ZM31.6054 20.2418L29.7667 15.3385V15.032L28.8473 14.1127H28.5409L23.6375 12.2739C24.8634 11.3546 26.0892 10.7416 27.6215 10.7416C29.1538 10.7416 30.6861 11.3546 31.9119 12.5804C33.1377 13.8062 33.7506 15.032 33.7506 16.5643C33.1377 17.4837 32.5248 19.016 31.6054 20.2418Z" fill="#F1C963"/>
<rect x="4.97656" y="32.1641" width="6.72202" height="6.72202" transform="rotate(-0.486512 4.97656 32.1641)" fill="#F1C963"/>
<path d="M65.8627 29.2578V13.9954H71.7054C72.8083 13.9954 73.7249 14.1693 74.4553 14.5171C75.1906 14.8599 75.7396 15.3294 76.1022 15.9255C76.4699 16.5217 76.6537 17.1974 76.6537 17.9526C76.6537 18.5736 76.5345 19.1052 76.296 19.5474C76.0575 19.9846 75.7371 20.3398 75.3347 20.6131C74.9322 20.8863 74.4826 21.0826 73.9858 21.2018V21.3509C74.5273 21.3807 75.0465 21.5471 75.5433 21.8502C76.0451 22.1483 76.455 22.5706 76.773 23.1171C77.0909 23.6636 77.2499 24.3244 77.2499 25.0994C77.2499 25.8893 77.0586 26.5998 76.6761 27.2308C76.2935 27.8568 75.7172 28.3511 74.9471 28.7138C74.1771 29.0765 73.2083 29.2578 72.0407 29.2578H65.8627ZM68.6275 26.9476H71.601C72.6046 26.9476 73.3275 26.7563 73.7697 26.3738C74.2168 25.9862 74.4404 25.4894 74.4404 24.8833C74.4404 24.4312 74.3286 24.0238 74.105 23.6611C73.8814 23.2934 73.5635 23.0053 73.1511 22.7966C72.7388 22.583 72.2469 22.4762 71.6756 22.4762H68.6275V26.9476ZM68.6275 20.4864H71.3626C71.8395 20.4864 72.2693 20.3994 72.6518 20.2256C73.0344 20.0467 73.3349 19.7958 73.5535 19.4729C73.7771 19.145 73.8889 18.7574 73.8889 18.3103C73.8889 17.7191 73.6802 17.2322 73.2629 16.8496C72.8505 16.4671 72.237 16.2758 71.4222 16.2758H68.6275V20.4864ZM86.8318 24.4436V17.811H89.5295V29.2578H86.9138V27.2233H86.7945C86.5362 27.8642 86.1114 28.3884 85.5202 28.7958C84.9339 29.2032 84.211 29.4069 83.3515 29.4069C82.6013 29.4069 81.9381 29.2404 81.3617 28.9076C80.7904 28.5697 80.3433 28.0803 80.0203 27.4394C79.6974 26.7936 79.5359 26.0136 79.5359 25.0994V17.811H82.2337V24.6821C82.2337 25.4074 82.4324 25.9837 82.8299 26.411C83.2273 26.8383 83.749 27.0519 84.3949 27.0519C84.7923 27.0519 85.1774 26.955 85.55 26.7613C85.9226 26.5675 86.2281 26.2794 86.4666 25.8968C86.7101 25.5093 86.8318 25.0249 86.8318 24.4436ZM92.1546 29.2578V27.5438L98.0569 20.1436V20.0467H92.3484V17.811H101.358V19.6517L95.7392 26.9252V27.0221H101.552V29.2578H92.1546ZM103.939 29.2578V27.5438L109.841 20.1436V20.0467H104.132V17.811H113.142V19.6517L107.523 26.9252V27.0221H113.336V29.2578H103.939ZM134.26 19.145H131.473C131.394 18.6879 131.247 18.283 131.034 17.9302C130.82 17.5725 130.554 17.2695 130.236 17.021C129.918 16.7726 129.556 16.5863 129.148 16.4621C128.746 16.3329 128.311 16.2684 127.844 16.2684C127.014 16.2684 126.279 16.477 125.638 16.8944C124.997 17.3067 124.495 17.9128 124.133 18.7127C123.77 19.5076 123.589 20.4789 123.589 21.6266C123.589 22.7941 123.77 23.7778 124.133 24.5777C124.5 25.3727 125.002 25.9738 125.638 26.3812C126.279 26.7836 127.012 26.9848 127.836 26.9848C128.294 26.9848 128.721 26.9252 129.118 26.806C129.521 26.6818 129.881 26.5004 130.199 26.262C130.522 26.0235 130.793 25.7304 131.011 25.3826C131.235 25.0348 131.389 24.6374 131.473 24.1902L134.26 24.2051C134.156 24.9305 133.93 25.6111 133.582 26.2471C133.239 26.883 132.79 27.4444 132.233 27.9313C131.677 28.4132 131.026 28.7908 130.281 29.0641C129.536 29.3323 128.708 29.4665 127.799 29.4665C126.458 29.4665 125.26 29.156 124.207 28.5349C123.154 27.9139 122.324 27.0171 121.718 25.8446C121.112 24.6721 120.809 23.2661 120.809 21.6266C120.809 19.9821 121.114 18.5761 121.726 17.4086C122.337 16.2361 123.169 15.3393 124.222 14.7183C125.275 14.0972 126.468 13.7867 127.799 13.7867C128.649 13.7867 129.439 13.906 130.169 14.1444C130.899 14.3829 131.55 14.7332 132.122 15.1952C132.693 15.6523 133.162 16.2137 133.53 16.8795C133.903 17.5402 134.146 18.2954 134.26 19.145ZM141.666 29.4814C140.548 29.4814 139.58 29.2355 138.76 28.7436C137.94 28.2517 137.304 27.5636 136.852 26.6793C136.405 25.795 136.181 24.7616 136.181 23.5791C136.181 22.3967 136.405 21.3608 136.852 20.4715C137.304 19.5822 137.94 18.8916 138.76 18.3997C139.58 17.9079 140.548 17.6619 141.666 17.6619C142.784 17.6619 143.753 17.9079 144.573 18.3997C145.392 18.8916 146.026 19.5822 146.473 20.4715C146.925 21.3608 147.151 22.3967 147.151 23.5791C147.151 24.7616 146.925 25.795 146.473 26.6793C146.026 27.5636 145.392 28.2517 144.573 28.7436C143.753 29.2355 142.784 29.4814 141.666 29.4814ZM141.681 27.3202C142.287 27.3202 142.794 27.1538 143.201 26.8209C143.609 26.4831 143.912 26.0309 144.111 25.4646C144.314 24.8982 144.416 24.2672 144.416 23.5717C144.416 22.8711 144.314 22.2377 144.111 21.6713C143.912 21.1 143.609 20.6454 143.201 20.3075C142.794 19.9697 142.287 19.8008 141.681 19.8008C141.06 19.8008 140.543 19.9697 140.131 20.3075C139.724 20.6454 139.418 21.1 139.214 21.6713C139.016 22.2377 138.916 22.8711 138.916 23.5717C138.916 24.2672 139.016 24.8982 139.214 25.4646C139.418 26.0309 139.724 26.4831 140.131 26.8209C140.543 27.1538 141.06 27.3202 141.681 27.3202ZM151.475 29.2578L148.241 17.811H150.991L153.003 25.8595H153.107L155.164 17.811H157.884L159.941 25.8148H160.053L162.035 17.811H164.793L161.551 29.2578H158.741L156.595 21.5223H156.439L154.292 29.2578H151.475ZM171.341 29.4814C170.224 29.4814 169.255 29.2355 168.435 28.7436C167.615 28.2517 166.979 27.5636 166.527 26.6793C166.08 25.795 165.857 24.7616 165.857 23.5791C165.857 22.3967 166.08 21.3608 166.527 20.4715C166.979 19.5822 167.615 18.8916 168.435 18.3997C169.255 17.9079 170.224 17.6619 171.341 17.6619C172.459 17.6619 173.428 17.9079 174.248 18.3997C175.068 18.8916 175.701 19.5822 176.148 20.4715C176.6 21.3608 176.826 22.3967 176.826 23.5791C176.826 24.7616 176.6 25.795 176.148 26.6793C175.701 27.5636 175.068 28.2517 174.248 28.7436C173.428 29.2355 172.459 29.4814 171.341 29.4814ZM171.356 27.3202C171.963 27.3202 172.469 27.1538 172.877 26.8209C173.284 26.4831 173.587 26.0309 173.786 25.4646C173.99 24.8982 174.091 24.2672 174.091 23.5717C174.091 22.8711 173.99 22.2377 173.786 21.6713C173.587 21.1 173.284 20.6454 172.877 20.3075C172.469 19.9697 171.963 19.8008 171.356 19.8008C170.735 19.8008 170.219 19.9697 169.806 20.3075C169.399 20.6454 169.093 21.1 168.89 21.6713C168.691 22.2377 168.592 22.8711 168.592 23.5717C168.592 24.2672 168.691 24.8982 168.89 25.4646C169.093 26.0309 169.399 26.4831 169.806 26.8209C170.219 27.1538 170.735 27.3202 171.356 27.3202ZM179.116 29.2578V17.811H181.732V19.7188H181.851C182.06 19.058 182.418 18.5488 182.924 18.1911C183.436 17.8284 184.02 17.647 184.676 17.647C184.825 17.647 184.991 17.6545 185.175 17.6694C185.364 17.6793 185.52 17.6967 185.644 17.7216V20.2032C185.53 20.1635 185.349 20.1287 185.1 20.0989C184.857 20.0641 184.621 20.0467 184.392 20.0467C183.901 20.0467 183.458 20.1535 183.066 20.3672C182.678 20.5758 182.373 20.8665 182.149 21.2391C181.926 21.6117 181.814 22.0414 181.814 22.5283V29.2578H179.116ZM189.896 25.6658L189.889 22.4091H190.321L194.434 17.811H197.587L192.527 23.445H191.968L189.896 25.6658ZM187.437 29.2578V13.9954H190.134V29.2578H187.437ZM194.621 29.2578L190.895 24.0486L192.713 22.1483L197.848 29.2578H194.621ZM199.385 29.2578V17.811H202.082V29.2578H199.385ZM200.741 16.1864C200.314 16.1864 199.946 16.0448 199.638 15.7616C199.33 15.4734 199.176 15.1281 199.176 14.7257C199.176 14.3183 199.33 13.973 199.638 13.6898C199.946 13.4017 200.314 13.2576 200.741 13.2576C201.173 13.2576 201.541 13.4017 201.844 13.6898C202.152 13.973 202.306 14.3183 202.306 14.7257C202.306 15.1281 202.152 15.4734 201.844 15.7616C201.541 16.0448 201.173 16.1864 200.741 16.1864ZM207.554 22.5507V29.2578H204.857V17.811H207.435V19.7561H207.569C207.833 19.1152 208.252 18.6059 208.829 18.2283C209.41 17.8507 210.128 17.6619 210.982 17.6619C211.772 17.6619 212.46 17.8309 213.047 18.1687C213.638 18.5065 214.095 18.9959 214.418 19.6368C214.746 20.2777 214.907 21.0553 214.902 21.9694V29.2578H212.205V22.3867C212.205 21.6216 212.006 21.023 211.608 20.5907C211.216 20.1585 210.672 19.9424 209.976 19.9424C209.504 19.9424 209.085 20.0467 208.717 20.2554C208.354 20.4591 208.069 20.7547 207.86 21.1422C207.656 21.5297 207.554 21.9992 207.554 22.5507ZM222.623 33.7888C221.654 33.7888 220.822 33.6572 220.126 33.3939C219.431 33.1355 218.872 32.7877 218.45 32.3505C218.027 31.9133 217.734 31.4289 217.57 30.8973L220 30.3086C220.109 30.5322 220.268 30.7533 220.477 30.9719C220.685 31.1954 220.966 31.3792 221.319 31.5233C221.677 31.6724 222.126 31.7469 222.668 31.7469C223.433 31.7469 224.066 31.5606 224.568 31.188C225.07 30.8203 225.321 30.2142 225.321 29.3696V27.201H225.187C225.047 27.4792 224.844 27.7649 224.575 28.058C224.312 28.3511 223.962 28.597 223.525 28.7958C223.092 28.9945 222.548 29.0939 221.893 29.0939C221.013 29.0939 220.216 28.8877 219.5 28.4753C218.79 28.058 218.224 27.437 217.801 26.6122C217.384 25.7825 217.175 24.7442 217.175 23.4971C217.175 22.2402 217.384 21.1795 217.801 20.315C218.224 19.4455 218.792 18.7873 219.508 18.3401C220.223 17.888 221.021 17.6619 221.9 17.6619C222.571 17.6619 223.122 17.7762 223.555 18.0048C223.992 18.2283 224.34 18.4991 224.598 18.8171C224.856 19.1301 225.052 19.4257 225.187 19.7039H225.336V17.811H227.996V29.4441C227.996 30.4229 227.763 31.2327 227.296 31.8736C226.829 32.5145 226.19 32.9939 225.38 33.3119C224.571 33.6299 223.651 33.7888 222.623 33.7888ZM222.645 26.9774C223.217 26.9774 223.704 26.8383 224.106 26.5601C224.508 26.2818 224.814 25.8819 225.023 25.3602C225.231 24.8386 225.336 24.2126 225.336 23.4822C225.336 22.7618 225.231 22.1309 225.023 21.5893C224.819 21.0478 224.516 20.628 224.113 20.3299C223.716 20.0268 223.227 19.8753 222.645 19.8753C222.044 19.8753 221.542 20.0318 221.14 20.3448C220.738 20.6578 220.434 21.0875 220.231 21.6341C220.027 22.1756 219.925 22.7917 219.925 23.4822C219.925 24.1828 220.027 24.7963 220.231 25.323C220.439 25.8446 220.745 26.252 221.147 26.5452C221.555 26.8333 222.054 26.9774 222.645 26.9774Z" fill="white"/>
</svg>
