<svg width="20" height="20" viewBox="0 0 20 20" fill="none" xmlns="http://www.w3.org/2000/svg">
<g clip-path="url(#clip0_9716_20408)">
<path d="M15.0013 16.6693H3.33464V5.0026H10.8346V3.33594H3.33464C2.41797 3.33594 1.66797 4.08594 1.66797 5.0026V16.6693C1.66797 17.5859 2.41797 18.3359 3.33464 18.3359H15.0013C15.918 18.3359 16.668 17.5859 16.668 16.6693V9.16927H15.0013V16.6693ZM8.50964 14.0276L6.8763 12.0609L4.58464 15.0026H13.7513L10.8013 11.0776L8.50964 14.0276ZM16.668 3.33594V0.835938H15.0013V3.33594H12.5013C12.5096 3.34427 12.5013 5.0026 12.5013 5.0026H15.0013V7.49427C15.0096 7.5026 16.668 7.49427 16.668 7.49427V5.0026H19.168V3.33594H16.668Z" fill="#98A2B3"/>
</g>
<defs>
<clipPath id="clip0_9716_20408">
<rect width="20" height="20" fill="white"/>
</clipPath>
</defs>
</svg>
