<svg width="285" height="284" viewBox="0 0 285 284" fill="none" xmlns="http://www.w3.org/2000/svg">
<path d="M278.634 144.353H197.117C197.117 144.353 205.204 122.273 217.645 122.273C230.087 122.273 233.981 137.512 233.981 137.512C233.981 137.512 242.38 129.236 249.274 129.236C256.169 129.236 262.142 140.174 262.142 140.174C262.142 140.174 271.909 134.268 278.634 144.353Z" fill="#EBEBEB"/>
<path d="M181.814 29.4444H143.711C143.711 29.4444 152.224 17.0977 158.936 17.0977C165.648 17.0977 167.626 25.3333 167.626 25.3333C167.626 25.3333 172.366 21.4999 176.742 22.184C181.117 22.868 181.814 29.4444 181.814 29.4444Z" fill="#EBEBEB"/>
<path d="M254.251 55.2072H216.141C216.141 55.2072 224.654 42.8672 231.359 42.8672C238.064 42.8672 240.028 51.0961 240.028 51.0961C240.028 51.0961 244.769 47.2559 249.144 47.94C253.519 48.624 254.251 55.2072 254.251 55.2072Z" fill="#EBEBEB"/>
<path d="M200.635 116.856H162.531C162.531 116.856 171.045 104.516 177.75 104.516C184.455 104.516 186.439 112.745 186.439 112.745C186.439 112.745 191.18 108.904 195.562 109.588C199.944 110.272 200.635 116.856 200.635 116.856Z" fill="#EBEBEB"/>
<path d="M44.4504 143.178H6.36719C6.36719 143.178 14.8602 130.879 21.5653 130.879C28.2703 130.879 30.2615 139.101 30.2615 139.101C30.2615 139.101 35.0024 135.261 39.3776 135.952C43.7528 136.643 44.4504 143.178 44.4504 143.178Z" fill="#EBEBEB"/>
<path d="M95.0274 66.7211H20.8047C20.8047 66.7211 30.9638 44.0324 41.8409 42.6101C52.7179 41.1878 57.9126 59.4743 57.9126 59.4743C57.9126 59.4743 64.9292 53.0131 70.4423 53.0131C75.9553 53.0131 80.1883 61.5197 80.1883 61.5197C80.1883 61.5197 91.2414 55.7019 95.0274 66.7211Z" fill="#EBEBEB"/>
<path d="M224.607 161.086H202.148V278.83H224.607V161.086Z" fill="#DBDBDB"/>
<path d="M209.993 164.914H205.625V169.411H209.993V164.914Z" fill="#EBEBEB"/>
<path d="M215.587 164.914H211.219V169.411H215.587V164.914Z" fill="#EBEBEB"/>
<path d="M209.993 172.539H205.625V177.036H209.993V172.539Z" fill="#EBEBEB"/>
<path d="M215.587 172.539H211.219V177.036H215.587V172.539Z" fill="#EBEBEB"/>
<path d="M209.993 180.172H205.625V184.669H209.993V180.172Z" fill="#EBEBEB"/>
<path d="M215.587 180.172H211.219V184.669H215.587V180.172Z" fill="#EBEBEB"/>
<path d="M209.993 187.805H205.625V192.302H209.993V187.805Z" fill="#EBEBEB"/>
<path d="M215.587 187.805H211.219V192.302H215.587V187.805Z" fill="#EBEBEB"/>
<path d="M209.993 195.438H205.625V199.935H209.993V195.438Z" fill="#EBEBEB"/>
<path d="M215.587 195.438H211.219V199.935H215.587V195.438Z" fill="#EBEBEB"/>
<path d="M209.993 203.07H205.625V207.567H209.993V203.07Z" fill="#EBEBEB"/>
<path d="M215.587 203.07H211.219V207.567H215.587V203.07Z" fill="#EBEBEB"/>
<path d="M209.993 210.703H205.625V215.2H209.993V210.703Z" fill="#EBEBEB"/>
<path d="M215.587 210.703H211.219V215.2H215.587V210.703Z" fill="#EBEBEB"/>
<path d="M209.993 218.336H205.625V222.833H209.993V218.336Z" fill="#EBEBEB"/>
<path d="M215.587 218.336H211.219V222.833H215.587V218.336Z" fill="#EBEBEB"/>
<path d="M209.993 225.969H205.625V230.466H209.993V225.969Z" fill="#EBEBEB"/>
<path d="M215.587 225.969H211.219V230.466H215.587V225.969Z" fill="#EBEBEB"/>
<path d="M209.993 233.602H205.625V238.099H209.993V233.602Z" fill="#EBEBEB"/>
<path d="M215.587 233.602H211.219V238.099H215.587V233.602Z" fill="#EBEBEB"/>
<path d="M209.993 241.234H205.625V245.731H209.993V241.234Z" fill="#EBEBEB"/>
<path d="M215.587 241.234H211.219V245.731H215.587V241.234Z" fill="#EBEBEB"/>
<path d="M209.993 248.867H205.625V253.364H209.993V248.867Z" fill="#EBEBEB"/>
<path d="M215.587 248.867H211.219V253.364H215.587V248.867Z" fill="#EBEBEB"/>
<path d="M209.993 256.5H205.625V260.997H209.993V256.5Z" fill="#EBEBEB"/>
<path d="M215.587 256.5H211.219V260.997H215.587V256.5Z" fill="#EBEBEB"/>
<path d="M209.993 264.133H205.625V268.63H209.993V264.133Z" fill="#EBEBEB"/>
<path d="M216.749 268.633H221.117V264.136H216.749V268.633Z" fill="#EBEBEB"/>
<path d="M216.749 261H221.117V256.503H216.749V261Z" fill="#EBEBEB"/>
<path d="M216.749 253.367H221.117V248.87H216.749V253.367Z" fill="#EBEBEB"/>
<path d="M216.749 245.734H221.117V241.237H216.749V245.734Z" fill="#EBEBEB"/>
<path d="M216.749 238.102H221.117V233.604H216.749V238.102Z" fill="#EBEBEB"/>
<path d="M216.749 230.473H221.117V225.976H216.749V230.473Z" fill="#EBEBEB"/>
<path d="M216.749 222.84H221.117V218.343H216.749V222.84Z" fill="#EBEBEB"/>
<path d="M216.749 215.207H221.117V210.71H216.749V215.207Z" fill="#EBEBEB"/>
<path d="M216.749 207.574H221.117V203.077H216.749V207.574Z" fill="#EBEBEB"/>
<path d="M216.749 199.941H221.117V195.444H216.749V199.941Z" fill="#EBEBEB"/>
<path d="M216.749 192.309H221.117V187.811H216.749V192.309Z" fill="#EBEBEB"/>
<path d="M216.749 184.676H221.117V180.179H216.749V184.676Z" fill="#EBEBEB"/>
<path d="M216.749 177.043H221.117V172.546H216.749V177.043Z" fill="#EBEBEB"/>
<path d="M216.749 169.402H221.117V164.905H216.749V169.402Z" fill="#EBEBEB"/>
<path d="M215.587 264.133H211.219V268.63H215.587V264.133Z" fill="#EBEBEB"/>
<path d="M242.32 161.086H224.609V278.83H242.32V161.086Z" fill="#A6A6A6"/>
<path d="M236.881 268.633H240.484V264.136H236.881V268.633Z" fill="#C7C7C7"/>
<path d="M232.272 268.633H235.875V264.136H232.272V268.633Z" fill="#C7C7C7"/>
<path d="M236.881 261H240.484V256.503H236.881V261Z" fill="#C7C7C7"/>
<path d="M232.272 261H235.875V256.503H232.272V261Z" fill="#C7C7C7"/>
<path d="M236.881 253.367H240.484V248.87H236.881V253.367Z" fill="#C7C7C7"/>
<path d="M232.272 253.367H235.875V248.87H232.272V253.367Z" fill="#C7C7C7"/>
<path d="M236.881 245.734H240.484V241.237H236.881V245.734Z" fill="#C7C7C7"/>
<path d="M232.272 245.734H235.875V241.237H232.272V245.734Z" fill="#C7C7C7"/>
<path d="M236.881 238.102H240.484V233.604H236.881V238.102Z" fill="#C7C7C7"/>
<path d="M232.272 238.102H235.875V233.604H232.272V238.102Z" fill="#C7C7C7"/>
<path d="M236.881 230.473H240.484V225.976H236.881V230.473Z" fill="#C7C7C7"/>
<path d="M232.272 230.473H235.875V225.976H232.272V230.473Z" fill="#C7C7C7"/>
<path d="M236.881 222.84H240.484V218.343H236.881V222.84Z" fill="#C7C7C7"/>
<path d="M232.272 222.84H235.875V218.343H232.272V222.84Z" fill="#C7C7C7"/>
<path d="M236.881 215.207H240.484V210.71H236.881V215.207Z" fill="#C7C7C7"/>
<path d="M232.272 215.207H235.875V210.71H232.272V215.207Z" fill="#C7C7C7"/>
<path d="M236.881 207.574H240.484V203.077H236.881V207.574Z" fill="#C7C7C7"/>
<path d="M232.272 207.574H235.875V203.077H232.272V207.574Z" fill="#C7C7C7"/>
<path d="M236.881 199.941H240.484V195.444H236.881V199.941Z" fill="#C7C7C7"/>
<path d="M232.272 199.941H235.875V195.444H232.272V199.941Z" fill="#C7C7C7"/>
<path d="M236.881 192.309H240.484V187.811H236.881V192.309Z" fill="#C7C7C7"/>
<path d="M232.272 192.309H235.875V187.811H232.272V192.309Z" fill="#C7C7C7"/>
<path d="M236.881 184.676H240.484V180.179H236.881V184.676Z" fill="#C7C7C7"/>
<path d="M232.272 184.676H235.875V180.179H232.272V184.676Z" fill="#C7C7C7"/>
<path d="M236.881 177.043H240.484V172.546H236.881V177.043Z" fill="#C7C7C7"/>
<path d="M232.272 177.043H235.875V172.546H232.272V177.043Z" fill="#C7C7C7"/>
<path d="M236.881 169.402H240.484V164.905H236.881V169.402Z" fill="#C7C7C7"/>
<path d="M231.306 164.914H227.703V169.411H231.306V164.914Z" fill="#C7C7C7"/>
<path d="M231.306 172.539H227.703V177.036H231.306V172.539Z" fill="#C7C7C7"/>
<path d="M231.306 180.172H227.703V184.669H231.306V180.172Z" fill="#C7C7C7"/>
<path d="M231.306 187.805H227.703V192.302H231.306V187.805Z" fill="#C7C7C7"/>
<path d="M231.306 195.438H227.703V199.935H231.306V195.438Z" fill="#C7C7C7"/>
<path d="M231.306 203.07H227.703V207.567H231.306V203.07Z" fill="#C7C7C7"/>
<path d="M231.306 210.703H227.703V215.2H231.306V210.703Z" fill="#C7C7C7"/>
<path d="M231.306 218.336H227.703V222.833H231.306V218.336Z" fill="#C7C7C7"/>
<path d="M231.306 225.969H227.703V230.466H231.306V225.969Z" fill="#C7C7C7"/>
<path d="M231.306 233.602H227.703V238.099H231.306V233.602Z" fill="#C7C7C7"/>
<path d="M231.306 241.234H227.703V245.731H231.306V241.234Z" fill="#C7C7C7"/>
<path d="M231.306 248.867H227.703V253.364H231.306V248.867Z" fill="#C7C7C7"/>
<path d="M231.306 256.5H227.703V260.997H231.306V256.5Z" fill="#C7C7C7"/>
<path d="M231.306 264.133H227.703V268.63H231.306V264.133Z" fill="#C7C7C7"/>
<path d="M232.272 169.402H235.875V164.905H232.272V169.402Z" fill="#C7C7C7"/>
<path d="M65.1242 154.734H38.5547V278.825H65.1242V154.734Z" fill="#EBEBEB"/>
<path d="M65.127 152.02H37.9141V154.735H65.127V152.02Z" fill="#C7C7C7"/>
<path d="M43.6419 158.742H40.9531V278.83H43.6419V158.742Z" fill="white"/>
<path d="M48.4232 158.742H45.7344V278.83H48.4232V158.742Z" fill="white"/>
<path d="M53.1888 158.742H50.5V278.83H53.1888V158.742Z" fill="white"/>
<path d="M57.9612 158.742H55.2656V278.83H57.9612V158.742Z" fill="white"/>
<path d="M62.72 158.742H60.0312V278.83H62.72V158.742Z" fill="white"/>
<path d="M43.6419 162.176H40.9531V167.54H43.6419V162.176Z" fill="#EBEBEB"/>
<path d="M48.4232 162.176H45.7344V167.54H48.4232V162.176Z" fill="#EBEBEB"/>
<path d="M53.1888 162.176H50.5V167.54H53.1888V162.176Z" fill="#EBEBEB"/>
<path d="M57.9612 162.176H55.2656V167.54H57.9612V162.176Z" fill="#EBEBEB"/>
<path d="M62.72 162.176H60.0312V167.54H62.72V162.176Z" fill="#EBEBEB"/>
<path d="M43.6419 170.887H40.9531V176.251H43.6419V170.887Z" fill="#EBEBEB"/>
<path d="M48.4232 170.887H45.7344V176.251H48.4232V170.887Z" fill="#EBEBEB"/>
<path d="M53.1888 170.887H50.5V176.251H53.1888V170.887Z" fill="#EBEBEB"/>
<path d="M57.9612 170.887H55.2656V176.251H57.9612V170.887Z" fill="#EBEBEB"/>
<path d="M62.72 170.887H60.0312V176.251H62.72V170.887Z" fill="#EBEBEB"/>
<path d="M43.6419 179.602H40.9531V184.966H43.6419V179.602Z" fill="#EBEBEB"/>
<path d="M48.4232 179.602H45.7344V184.966H48.4232V179.602Z" fill="#EBEBEB"/>
<path d="M53.1888 179.602H50.5V184.966H53.1888V179.602Z" fill="#EBEBEB"/>
<path d="M57.9612 179.602H55.2656V184.966H57.9612V179.602Z" fill="#EBEBEB"/>
<path d="M62.72 179.602H60.0312V184.966H62.72V179.602Z" fill="#EBEBEB"/>
<path d="M43.6419 188.32H40.9531V193.684H43.6419V188.32Z" fill="#EBEBEB"/>
<path d="M48.4232 188.32H45.7344V193.684H48.4232V188.32Z" fill="#EBEBEB"/>
<path d="M53.1888 188.32H50.5V193.684H53.1888V188.32Z" fill="#EBEBEB"/>
<path d="M57.9612 188.32H55.2656V193.684H57.9612V188.32Z" fill="#EBEBEB"/>
<path d="M62.72 188.32H60.0312V193.684H62.72V188.32Z" fill="#EBEBEB"/>
<path d="M43.6419 197.035H40.9531V202.399H43.6419V197.035Z" fill="#EBEBEB"/>
<path d="M48.4232 197.035H45.7344V202.399H48.4232V197.035Z" fill="#EBEBEB"/>
<path d="M53.1888 197.035H50.5V202.399H53.1888V197.035Z" fill="#EBEBEB"/>
<path d="M57.9612 197.035H55.2656V202.399H57.9612V197.035Z" fill="#EBEBEB"/>
<path d="M62.72 197.035H60.0312V202.399H62.72V197.035Z" fill="#EBEBEB"/>
<path d="M43.6419 205.754H40.9531V211.118H43.6419V205.754Z" fill="#EBEBEB"/>
<path d="M48.4232 205.754H45.7344V211.118H48.4232V205.754Z" fill="#EBEBEB"/>
<path d="M53.1888 205.754H50.5V211.118H53.1888V205.754Z" fill="#EBEBEB"/>
<path d="M57.9612 205.754H55.2656V211.118H57.9612V205.754Z" fill="#EBEBEB"/>
<path d="M62.72 205.754H60.0312V211.118H62.72V205.754Z" fill="#EBEBEB"/>
<path d="M43.6419 214.469H40.9531V219.833H43.6419V214.469Z" fill="#EBEBEB"/>
<path d="M48.4232 214.469H45.7344V219.833H48.4232V214.469Z" fill="#EBEBEB"/>
<path d="M53.1888 214.469H50.5V219.833H53.1888V214.469Z" fill="#EBEBEB"/>
<path d="M57.9612 214.469H55.2656V219.833H57.9612V214.469Z" fill="#EBEBEB"/>
<path d="M62.72 214.469H60.0312V219.833H62.72V214.469Z" fill="#EBEBEB"/>
<path d="M43.6419 223.188H40.9531V228.552H43.6419V223.188Z" fill="#EBEBEB"/>
<path d="M48.4232 223.188H45.7344V228.552H48.4232V223.188Z" fill="#EBEBEB"/>
<path d="M53.1888 223.188H50.5V228.552H53.1888V223.188Z" fill="#EBEBEB"/>
<path d="M57.9612 223.188H55.2656V228.552H57.9612V223.188Z" fill="#EBEBEB"/>
<path d="M62.72 223.188H60.0312V228.552H62.72V223.188Z" fill="#EBEBEB"/>
<path d="M43.6419 231.902H40.9531V237.266H43.6419V231.902Z" fill="#EBEBEB"/>
<path d="M48.4232 231.902H45.7344V237.266H48.4232V231.902Z" fill="#EBEBEB"/>
<path d="M53.1888 231.902H50.5V237.266H53.1888V231.902Z" fill="#EBEBEB"/>
<path d="M57.9612 231.902H55.2656V237.266H57.9612V231.902Z" fill="#EBEBEB"/>
<path d="M62.72 231.902H60.0312V237.266H62.72V231.902Z" fill="#EBEBEB"/>
<path d="M43.6419 240.621H40.9531V245.985H43.6419V240.621Z" fill="#EBEBEB"/>
<path d="M48.4232 240.621H45.7344V245.985H48.4232V240.621Z" fill="#EBEBEB"/>
<path d="M53.1888 240.621H50.5V245.985H53.1888V240.621Z" fill="#EBEBEB"/>
<path d="M57.9612 240.621H55.2656V245.985H57.9612V240.621Z" fill="#EBEBEB"/>
<path d="M62.72 240.621H60.0312V245.985H62.72V240.621Z" fill="#EBEBEB"/>
<path d="M43.6419 249.336H40.9531V254.7H43.6419V249.336Z" fill="#EBEBEB"/>
<path d="M48.4232 249.336H45.7344V254.7H48.4232V249.336Z" fill="#EBEBEB"/>
<path d="M53.1888 249.336H50.5V254.7H53.1888V249.336Z" fill="#EBEBEB"/>
<path d="M57.9612 249.336H55.2656V254.7H57.9612V249.336Z" fill="#EBEBEB"/>
<path d="M62.72 249.336H60.0312V254.7H62.72V249.336Z" fill="#EBEBEB"/>
<path d="M43.6419 258.051H40.9531V263.415H43.6419V258.051Z" fill="#EBEBEB"/>
<path d="M48.4232 258.051H45.7344V263.415H48.4232V258.051Z" fill="#EBEBEB"/>
<path d="M53.1888 258.051H50.5V263.415H53.1888V258.051Z" fill="#EBEBEB"/>
<path d="M57.9612 258.051H55.2656V263.415H57.9612V258.051Z" fill="#EBEBEB"/>
<path d="M62.72 258.051H60.0312V263.415H62.72V258.051Z" fill="#EBEBEB"/>
<path d="M43.6419 266.77H40.9531V272.134H43.6419V266.77Z" fill="#EBEBEB"/>
<path d="M48.4232 266.77H45.7344V272.134H48.4232V266.77Z" fill="#EBEBEB"/>
<path d="M53.1888 266.77H50.5V272.134H53.1888V266.77Z" fill="#EBEBEB"/>
<path d="M57.9612 266.77H55.2656V272.134H57.9612V266.77Z" fill="#EBEBEB"/>
<path d="M62.72 266.77H60.0312V272.134H62.72V266.77Z" fill="#EBEBEB"/>
<path d="M43.6419 275.484H40.9531V278.83H43.6419V275.484Z" fill="#EBEBEB"/>
<path d="M48.4232 275.484H45.7344V278.83H48.4232V275.484Z" fill="#EBEBEB"/>
<path d="M53.1888 275.484H50.5V278.83H53.1888V275.484Z" fill="#EBEBEB"/>
<path d="M57.9612 275.484H55.2656V278.83H57.9612V275.484Z" fill="#EBEBEB"/>
<path d="M62.72 275.484H60.0312V278.83H62.72V275.484Z" fill="#EBEBEB"/>
<path d="M82.1856 154.734H65.125V278.825H82.1856V154.734Z" fill="#DBDBDB"/>
<path d="M82.9238 152.02H65.125V154.735H82.9238V152.02Z" fill="#C7C7C7"/>
<path d="M70.2268 158.742H67.5312V278.83H70.2268V158.742Z" fill="#C7C7C7"/>
<path d="M74.9857 158.742H72.2969V278.83H74.9857V158.742Z" fill="#C7C7C7"/>
<path d="M79.7591 158.742H77.0703V278.83H79.7591V158.742Z" fill="#C7C7C7"/>
<path d="M70.2268 162.176H67.5312V167.54H70.2268V162.176Z" fill="#DBDBDB"/>
<path d="M74.9857 162.176H72.2969V167.54H74.9857V162.176Z" fill="#DBDBDB"/>
<path d="M79.7591 162.176H77.0703V167.54H79.7591V162.176Z" fill="#DBDBDB"/>
<path d="M70.2268 170.887H67.5312V176.251H70.2268V170.887Z" fill="#DBDBDB"/>
<path d="M74.9857 170.887H72.2969V176.251H74.9857V170.887Z" fill="#DBDBDB"/>
<path d="M79.7591 170.887H77.0703V176.251H79.7591V170.887Z" fill="#DBDBDB"/>
<path d="M70.2268 179.602H67.5312V184.966H70.2268V179.602Z" fill="#DBDBDB"/>
<path d="M74.9857 179.602H72.2969V184.966H74.9857V179.602Z" fill="#DBDBDB"/>
<path d="M79.7591 179.602H77.0703V184.966H79.7591V179.602Z" fill="#DBDBDB"/>
<path d="M70.2268 188.32H67.5312V193.684H70.2268V188.32Z" fill="#DBDBDB"/>
<path d="M74.9857 188.32H72.2969V193.684H74.9857V188.32Z" fill="#DBDBDB"/>
<path d="M79.7591 188.32H77.0703V193.684H79.7591V188.32Z" fill="#DBDBDB"/>
<path d="M70.2268 197.035H67.5312V202.399H70.2268V197.035Z" fill="#DBDBDB"/>
<path d="M74.9857 197.035H72.2969V202.399H74.9857V197.035Z" fill="#DBDBDB"/>
<path d="M79.7591 197.035H77.0703V202.399H79.7591V197.035Z" fill="#DBDBDB"/>
<path d="M70.2268 205.754H67.5312V211.118H70.2268V205.754Z" fill="#DBDBDB"/>
<path d="M74.9857 205.754H72.2969V211.118H74.9857V205.754Z" fill="#DBDBDB"/>
<path d="M79.7591 205.754H77.0703V211.118H79.7591V205.754Z" fill="#DBDBDB"/>
<path d="M70.2268 214.469H67.5312V219.833H70.2268V214.469Z" fill="#DBDBDB"/>
<path d="M74.9857 214.469H72.2969V219.833H74.9857V214.469Z" fill="#DBDBDB"/>
<path d="M79.7591 214.469H77.0703V219.833H79.7591V214.469Z" fill="#DBDBDB"/>
<path d="M70.2268 223.188H67.5312V228.552H70.2268V223.188Z" fill="#DBDBDB"/>
<path d="M74.9857 223.188H72.2969V228.552H74.9857V223.188Z" fill="#DBDBDB"/>
<path d="M79.7591 223.188H77.0703V228.552H79.7591V223.188Z" fill="#DBDBDB"/>
<path d="M70.2268 231.902H67.5312V237.266H70.2268V231.902Z" fill="#DBDBDB"/>
<path d="M74.9857 231.902H72.2969V237.266H74.9857V231.902Z" fill="#DBDBDB"/>
<path d="M79.7591 231.902H77.0703V237.266H79.7591V231.902Z" fill="#DBDBDB"/>
<path d="M70.2268 240.621H67.5312V245.985H70.2268V240.621Z" fill="#DBDBDB"/>
<path d="M74.9857 240.621H72.2969V245.985H74.9857V240.621Z" fill="#DBDBDB"/>
<path d="M79.7591 240.621H77.0703V245.985H79.7591V240.621Z" fill="#DBDBDB"/>
<path d="M70.2268 249.336H67.5312V254.7H70.2268V249.336Z" fill="#DBDBDB"/>
<path d="M74.9857 249.336H72.2969V254.7H74.9857V249.336Z" fill="#DBDBDB"/>
<path d="M79.7591 249.336H77.0703V254.7H79.7591V249.336Z" fill="#DBDBDB"/>
<path d="M70.2268 258.051H67.5312V263.415H70.2268V258.051Z" fill="#DBDBDB"/>
<path d="M74.9857 258.051H72.2969V263.415H74.9857V258.051Z" fill="#DBDBDB"/>
<path d="M79.7591 258.051H77.0703V263.415H79.7591V258.051Z" fill="#DBDBDB"/>
<path d="M70.2268 266.77H67.5312V272.134H70.2268V266.77Z" fill="#DBDBDB"/>
<path d="M74.9857 266.77H72.2969V272.134H74.9857V266.77Z" fill="#DBDBDB"/>
<path d="M79.7591 266.77H77.0703V272.134H79.7591V266.77Z" fill="#DBDBDB"/>
<path d="M70.2268 275.484H67.5312V278.83H70.2268V275.484Z" fill="#DBDBDB"/>
<path d="M74.9857 275.484H72.2969V278.83H74.9857V275.484Z" fill="#DBDBDB"/>
<path d="M79.7591 275.484H77.0703V278.83H79.7591V275.484Z" fill="#DBDBDB"/>
<path d="M31.6565 200.34H5.19531V278.829H31.6565V200.34Z" fill="#EBEBEB"/>
<path d="M31.6565 193.684H8.96094V200.341H31.6565V193.684Z" fill="#C7C7C7"/>
<path d="M28.7585 203.816H8.10156V278.832H28.7585V203.816Z" fill="#DBDBDB"/>
<path d="M28.7585 210.977H8.10156V212.751H28.7585V210.977Z" fill="white"/>
<path d="M28.7585 218.316H8.10156V220.091H28.7585V218.316Z" fill="white"/>
<path d="M28.7585 225.656H8.10156V227.431H28.7585V225.656Z" fill="white"/>
<path d="M28.7585 233H8.10156V234.774H28.7585V233Z" fill="white"/>
<path d="M28.7585 240.34H8.10156V242.114H28.7585V240.34Z" fill="white"/>
<path d="M28.7585 247.684H8.10156V249.458H28.7585V247.684Z" fill="white"/>
<path d="M28.7585 255.023H8.10156V256.798H28.7585V255.023Z" fill="white"/>
<path d="M28.7585 262.367H8.10156V264.142H28.7585V262.367Z" fill="white"/>
<path d="M28.7585 269.715H8.10156V271.489H28.7585V269.715Z" fill="white"/>
<path d="M28.7585 277.055H8.10156V278.829H28.7585V277.055Z" fill="white"/>
<path d="M48.2292 200.34H31.6562V278.829H48.2292V200.34Z" fill="#DBDBDB"/>
<path d="M45.7436 193.684H31.6562V200.341H45.7436V193.684Z" fill="#A6A6A6"/>
<path d="M46.6771 203.816H33.9375V278.832H46.6771V203.816Z" fill="#C7C7C7"/>
<path d="M46.6771 210.977H33.9375V212.751H46.6771V210.977Z" fill="white"/>
<path d="M46.6771 218.316H33.9375V220.091H46.6771V218.316Z" fill="white"/>
<path d="M46.6771 225.656H33.9375V227.431H46.6771V225.656Z" fill="white"/>
<path d="M46.6771 233H33.9375V234.774H46.6771V233Z" fill="white"/>
<path d="M46.6771 240.34H33.9375V242.114H46.6771V240.34Z" fill="white"/>
<path d="M46.6771 247.684H33.9375V249.458H46.6771V247.684Z" fill="white"/>
<path d="M46.6771 255.023H33.9375V256.798H46.6771V255.023Z" fill="white"/>
<path d="M46.6771 262.367H33.9375V264.142H46.6771V262.367Z" fill="white"/>
<path d="M46.6771 269.715H33.9375V271.489H46.6771V269.715Z" fill="white"/>
<path d="M46.6771 277.055H33.9375V278.829H46.6771V277.055Z" fill="white"/>
<path d="M105.813 232.879H85.3594V278.825H105.813V232.879Z" fill="#DBDBDB"/>
<path d="M92.1948 236.852H88.5781V239.669H92.1948V236.852Z" fill="#C7C7C7"/>
<path d="M92.1948 242.867H88.5781V245.685H92.1948V242.867Z" fill="#C7C7C7"/>
<path d="M92.1948 248.883H88.5781V251.7H92.1948V248.883Z" fill="#C7C7C7"/>
<path d="M92.1948 254.895H88.5781V257.712H92.1948V254.895Z" fill="#C7C7C7"/>
<path d="M92.1948 260.91H88.5781V263.728H92.1948V260.91Z" fill="#C7C7C7"/>
<path d="M92.1948 266.918H88.5781V269.735H92.1948V266.918Z" fill="#C7C7C7"/>
<path d="M92.1948 272.934H88.5781V275.751H92.1948V272.934Z" fill="#C7C7C7"/>
<path d="M97.3979 236.852H93.7812V239.669H97.3979V236.852Z" fill="#C7C7C7"/>
<path d="M97.3979 242.867H93.7812V245.685H97.3979V242.867Z" fill="#C7C7C7"/>
<path d="M97.3979 248.883H93.7812V251.7H97.3979V248.883Z" fill="#C7C7C7"/>
<path d="M97.3979 254.895H93.7812V257.712H97.3979V254.895Z" fill="#C7C7C7"/>
<path d="M97.3979 260.91H93.7812V263.728H97.3979V260.91Z" fill="#C7C7C7"/>
<path d="M97.3979 266.918H93.7812V269.735H97.3979V266.918Z" fill="#C7C7C7"/>
<path d="M97.3979 272.934H93.7812V275.751H97.3979V272.934Z" fill="#C7C7C7"/>
<path d="M102.593 236.852H98.9766V239.669H102.593V236.852Z" fill="#C7C7C7"/>
<path d="M102.593 242.867H98.9766V245.685H102.593V242.867Z" fill="#C7C7C7"/>
<path d="M102.593 248.883H98.9766V251.7H102.593V248.883Z" fill="#C7C7C7"/>
<path d="M102.593 254.895H98.9766V257.712H102.593V254.895Z" fill="#C7C7C7"/>
<path d="M102.593 260.91H98.9766V263.728H102.593V260.91Z" fill="#C7C7C7"/>
<path d="M102.593 266.918H98.9766V269.735H102.593V266.918Z" fill="#C7C7C7"/>
<path d="M102.593 272.934H98.9766V275.751H102.593V272.934Z" fill="#C7C7C7"/>
<path d="M120.164 232.879H105.812V278.825H120.164V232.879Z" fill="#A6A6A6"/>
<path d="M115.749 275.297H118.695V272.479H115.749V275.297Z" fill="#C7C7C7"/>
<path d="M115.749 269.289H118.695V266.472H115.749V269.289Z" fill="#C7C7C7"/>
<path d="M115.749 263.273H118.695V260.456H115.749V263.273Z" fill="#C7C7C7"/>
<path d="M115.749 257.266H118.695V254.448H115.749V257.266Z" fill="#C7C7C7"/>
<path d="M115.749 251.246H118.695V248.429H115.749V251.246Z" fill="#C7C7C7"/>
<path d="M115.749 245.23H118.695V242.413H115.749V245.23Z" fill="#C7C7C7"/>
<path d="M115.749 239.223H118.695V236.405H115.749V239.223Z" fill="#C7C7C7"/>
<path d="M111.507 275.297H114.453V272.479H111.507V275.297Z" fill="#C7C7C7"/>
<path d="M111.507 269.289H114.453V266.472H111.507V269.289Z" fill="#C7C7C7"/>
<path d="M111.507 263.273H114.453V260.456H111.507V263.273Z" fill="#C7C7C7"/>
<path d="M111.507 257.266H114.453V254.448H111.507V257.266Z" fill="#C7C7C7"/>
<path d="M111.507 251.246H114.453V248.429H111.507V251.246Z" fill="#C7C7C7"/>
<path d="M111.507 245.23H114.453V242.413H111.507V245.23Z" fill="#C7C7C7"/>
<path d="M111.507 239.223H114.453V236.405H111.507V239.223Z" fill="#C7C7C7"/>
<path d="M107.28 275.297H110.227V272.479H107.28V275.297Z" fill="#C7C7C7"/>
<path d="M107.28 269.289H110.227V266.472H107.28V269.289Z" fill="#C7C7C7"/>
<path d="M107.28 263.273H110.227V260.456H107.28V263.273Z" fill="#C7C7C7"/>
<path d="M107.28 257.266H110.227V254.448H107.28V257.266Z" fill="#C7C7C7"/>
<path d="M107.28 251.246H110.227V248.429H107.28V251.246Z" fill="#C7C7C7"/>
<path d="M107.28 245.23H110.227V242.413H107.28V245.23Z" fill="#C7C7C7"/>
<path d="M107.28 239.223H110.227V236.405H107.28V239.223Z" fill="#C7C7C7"/>
<path d="M257.98 180.172H243.852V196.867H257.98V180.172Z" fill="#DBDBDB"/>
<path d="M266.945 180.172H257.984V197.476H266.945V180.172Z" fill="#C7C7C7"/>
<path d="M267.541 187.547H258.648V197.483H267.541V187.547Z" fill="#DBDBDB"/>
<path d="M273.094 187.547H267.547V197.483H273.094V187.547Z" fill="#C7C7C7"/>
<path d="M261.289 195.785H238.438V278.826H261.289V195.785Z" fill="#EBEBEB"/>
<path d="M248.233 199.352H241.047V202.284H248.233V199.352Z" fill="white"/>
<path d="M257.428 199.352H250.242V202.284H257.428V199.352Z" fill="white"/>
<path d="M248.233 204.336H241.047V207.269H248.233V204.336Z" fill="white"/>
<path d="M257.428 204.336H250.242V207.269H257.428V204.336Z" fill="white"/>
<path d="M248.233 209.32H241.047V212.253H248.233V209.32Z" fill="white"/>
<path d="M257.428 209.32H250.242V212.253H257.428V209.32Z" fill="white"/>
<path d="M248.233 214.309H241.047V217.241H248.233V214.309Z" fill="white"/>
<path d="M257.428 214.309H250.242V217.241H257.428V214.309Z" fill="white"/>
<path d="M248.233 219.293H241.047V222.226H248.233V219.293Z" fill="white"/>
<path d="M257.428 219.293H250.242V222.226H257.428V219.293Z" fill="white"/>
<path d="M248.233 224.277H241.047V227.21H248.233V224.277Z" fill="white"/>
<path d="M257.428 224.277H250.242V227.21H257.428V224.277Z" fill="white"/>
<path d="M248.233 229.262H241.047V232.194H248.233V229.262Z" fill="white"/>
<path d="M257.428 229.262H250.242V232.194H257.428V229.262Z" fill="white"/>
<path d="M248.233 234.246H241.047V237.179H248.233V234.246Z" fill="white"/>
<path d="M257.428 234.246H250.242V237.179H257.428V234.246Z" fill="white"/>
<path d="M248.233 239.23H241.047V242.163H248.233V239.23Z" fill="white"/>
<path d="M257.428 239.23H250.242V242.163H257.428V239.23Z" fill="white"/>
<path d="M248.233 244.215H241.047V247.147H248.233V244.215Z" fill="white"/>
<path d="M257.428 244.215H250.242V247.147H257.428V244.215Z" fill="white"/>
<path d="M248.233 249.199H241.047V252.132H248.233V249.199Z" fill="white"/>
<path d="M257.428 249.199H250.242V252.132H257.428V249.199Z" fill="white"/>
<path d="M248.233 254.184H241.047V257.123H248.233V254.184Z" fill="white"/>
<path d="M257.428 254.184H250.242V257.123H257.428V254.184Z" fill="white"/>
<path d="M248.233 259.168H241.047V262.101H248.233V259.168Z" fill="white"/>
<path d="M257.428 259.168H250.242V262.101H257.428V259.168Z" fill="white"/>
<path d="M248.233 264.156H241.047V267.089H248.233V264.156Z" fill="white"/>
<path d="M257.428 264.156H250.242V267.089H257.428V264.156Z" fill="white"/>
<path d="M279.806 195.785H261.289V278.826H279.806V195.785Z" fill="#C7C7C7"/>
<path d="M272.046 267.086H277.945V264.153H272.046V267.086Z" fill="#EBEBEB"/>
<path d="M264.499 267.086H270.398V264.153H264.499V267.086Z" fill="#EBEBEB"/>
<path d="M272.046 262.102H277.945V259.169H272.046V262.102Z" fill="#EBEBEB"/>
<path d="M264.499 262.102H270.398V259.169H264.499V262.102Z" fill="#EBEBEB"/>
<path d="M272.046 257.117H277.945V254.178H272.046V257.117Z" fill="#EBEBEB"/>
<path d="M264.499 257.117H270.398V254.178H264.499V257.117Z" fill="#EBEBEB"/>
<path d="M272.046 252.133H277.945V249.2H272.046V252.133Z" fill="#EBEBEB"/>
<path d="M264.499 252.133H270.398V249.2H264.499V252.133Z" fill="#EBEBEB"/>
<path d="M272.046 247.148H277.945V244.216H272.046V247.148Z" fill="#EBEBEB"/>
<path d="M264.499 247.148H270.398V244.216H264.499V247.148Z" fill="#EBEBEB"/>
<path d="M272.046 242.164H277.945V239.231H272.046V242.164Z" fill="#EBEBEB"/>
<path d="M264.499 242.164H270.398V239.231H264.499V242.164Z" fill="#EBEBEB"/>
<path d="M272.046 237.18H277.945V234.247H272.046V237.18Z" fill="#EBEBEB"/>
<path d="M264.499 237.18H270.398V234.247H264.499V237.18Z" fill="#EBEBEB"/>
<path d="M272.046 232.195H277.945V229.263H272.046V232.195Z" fill="#EBEBEB"/>
<path d="M264.499 232.195H270.398V229.263H264.499V232.195Z" fill="#EBEBEB"/>
<path d="M272.046 227.211H277.945V224.278H272.046V227.211Z" fill="#EBEBEB"/>
<path d="M264.499 227.211H270.398V224.278H264.499V227.211Z" fill="#EBEBEB"/>
<path d="M272.046 222.223H277.945V219.29H272.046V222.223Z" fill="#EBEBEB"/>
<path d="M264.499 222.223H270.398V219.29H264.499V222.223Z" fill="#EBEBEB"/>
<path d="M272.046 217.238H277.945V214.306H272.046V217.238Z" fill="#EBEBEB"/>
<path d="M264.499 217.238H270.398V214.306H264.499V217.238Z" fill="#EBEBEB"/>
<path d="M272.046 212.254H277.945V209.321H272.046V212.254Z" fill="#EBEBEB"/>
<path d="M264.499 212.254H270.398V209.321H264.499V212.254Z" fill="#EBEBEB"/>
<path d="M272.046 207.27H277.945V204.337H272.046V207.27Z" fill="#EBEBEB"/>
<path d="M264.499 207.27H270.398V204.337H264.499V207.27Z" fill="#EBEBEB"/>
<path d="M272.046 202.293H277.945V199.36H272.046V202.293Z" fill="#EBEBEB"/>
<path d="M264.499 202.293H270.398V199.36H264.499V202.293Z" fill="#EBEBEB"/>
<path d="M164.605 224.715H137.656V278.829H164.605V224.715Z" fill="#C7C7C7"/>
<path d="M146.666 229.398H141.898V232.71H146.666V229.398Z" fill="#DBDBDB"/>
<path d="M146.666 236.48H141.898V239.799H146.666V236.48Z" fill="#DBDBDB"/>
<path d="M146.666 243.559H141.898V246.877H146.666V243.559Z" fill="#DBDBDB"/>
<path d="M146.666 250.645H141.898V253.963H146.666V250.645Z" fill="#DBDBDB"/>
<path d="M146.666 257.719H141.898V261.037H146.666V257.719Z" fill="#DBDBDB"/>
<path d="M146.666 264.805H141.898V268.123H146.666V264.805Z" fill="#DBDBDB"/>
<path d="M146.666 271.883H141.898V275.201H146.666V271.883Z" fill="#DBDBDB"/>
<path d="M153.526 229.398H148.758V232.71H153.526V229.398Z" fill="#DBDBDB"/>
<path d="M153.526 236.48H148.758V239.799H153.526V236.48Z" fill="#DBDBDB"/>
<path d="M153.526 243.559H148.758V246.877H153.526V243.559Z" fill="#DBDBDB"/>
<path d="M153.526 250.645H148.758V253.963H153.526V250.645Z" fill="#DBDBDB"/>
<path d="M153.526 257.719H148.758V261.037H153.526V257.719Z" fill="#DBDBDB"/>
<path d="M153.526 264.805H148.758V268.123H153.526V264.805Z" fill="#DBDBDB"/>
<path d="M153.526 271.883H148.758V275.201H153.526V271.883Z" fill="#DBDBDB"/>
<path d="M160.362 229.398H155.594V232.71H160.362V229.398Z" fill="#DBDBDB"/>
<path d="M160.362 236.48H155.594V239.799H160.362V236.48Z" fill="#DBDBDB"/>
<path d="M160.362 243.559H155.594V246.877H160.362V243.559Z" fill="#DBDBDB"/>
<path d="M160.362 250.645H155.594V253.963H160.362V250.645Z" fill="#DBDBDB"/>
<path d="M160.362 257.719H155.594V261.037H160.362V257.719Z" fill="#DBDBDB"/>
<path d="M160.362 264.805H155.594V268.123H160.362V264.805Z" fill="#DBDBDB"/>
<path d="M160.362 271.883H155.594V275.201H160.362V271.883Z" fill="#DBDBDB"/>
<path d="M164.605 219.074H146.664V224.709H164.605V219.074Z" fill="#DBDBDB"/>
<path d="M164.613 215.586H153.234V219.074H164.613V215.586Z" fill="#EBEBEB"/>
<path d="M183.511 224.715H164.602V278.829H183.511V224.715Z" fill="#A6A6A6"/>
<path d="M177.705 274.672H181.586V271.353H177.705V274.672Z" fill="#C7C7C7"/>
<path d="M177.705 267.59H181.586V264.271H177.705V267.59Z" fill="#C7C7C7"/>
<path d="M177.705 260.512H181.586V257.193H177.705V260.512Z" fill="#C7C7C7"/>
<path d="M177.705 253.426H181.586V250.107H177.705V253.426Z" fill="#C7C7C7"/>
<path d="M177.705 246.348H181.586V243.029H177.705V246.348Z" fill="#C7C7C7"/>
<path d="M177.705 239.266H181.586V235.947H177.705V239.266Z" fill="#C7C7C7"/>
<path d="M177.705 232.188H181.586V228.869H177.705V232.188Z" fill="#C7C7C7"/>
<path d="M172.119 274.672H176V271.353H172.119V274.672Z" fill="#C7C7C7"/>
<path d="M172.119 267.59H176V264.271H172.119V267.59Z" fill="#C7C7C7"/>
<path d="M172.119 260.512H176V257.193H172.119V260.512Z" fill="#C7C7C7"/>
<path d="M172.119 253.426H176V250.107H172.119V253.426Z" fill="#C7C7C7"/>
<path d="M172.119 246.348H176V243.029H172.119V246.348Z" fill="#C7C7C7"/>
<path d="M172.119 239.266H176V235.947H172.119V239.266Z" fill="#C7C7C7"/>
<path d="M172.119 232.188H176V228.869H172.119V232.188Z" fill="#C7C7C7"/>
<path d="M166.549 274.672H170.43V271.353H166.549V274.672Z" fill="#C7C7C7"/>
<path d="M166.549 267.59H170.43V264.271H166.549V267.59Z" fill="#C7C7C7"/>
<path d="M166.549 260.512H170.43V257.193H166.549V260.512Z" fill="#C7C7C7"/>
<path d="M166.549 253.426H170.43V250.107H166.549V253.426Z" fill="#C7C7C7"/>
<path d="M166.549 246.348H170.43V243.029H166.549V246.348Z" fill="#C7C7C7"/>
<path d="M166.549 239.266H170.43V235.947H166.549V239.266Z" fill="#C7C7C7"/>
<path d="M166.549 232.188H170.43V228.869H166.549V232.188Z" fill="#C7C7C7"/>
<path d="M180.646 219.074H164.602V224.709H180.646V219.074Z" fill="#C7C7C7"/>
<path d="M173.298 215.586H164.602V219.074H173.298V215.586Z" fill="#DBDBDB"/>
<path d="M284.718 283.124L249.168 283.286L213.611 283.347L142.503 283.462L71.3963 283.347L35.8461 283.286L0.289062 283.124L35.8461 282.954L71.3963 282.9L142.503 282.785L213.611 282.9L249.168 282.961L284.718 283.124Z" fill="#263238"/>
<path d="M284.718 278.824H0.289062V282.949H284.718V278.824Z" fill="#C7C7C7"/>
<path d="M20.2293 278.824C20.4666 279.486 20.5814 280.186 20.568 280.89C20.5814 281.582 20.4666 282.271 20.2293 282.921C19.7777 281.584 19.7777 280.135 20.2293 278.797V278.824Z" fill="#263238"/>
<path d="M42.4652 278.824C42.9169 280.162 42.9169 281.611 42.4652 282.949C42.228 282.298 42.1132 281.609 42.1266 280.917C42.1099 280.205 42.2247 279.495 42.4652 278.824Z" fill="#263238"/>
<path d="M64.6903 278.824C64.9276 279.486 65.0423 280.186 65.0289 280.89C65.0423 281.582 64.9275 282.271 64.6903 282.921C64.2387 281.584 64.2387 280.135 64.6903 278.797V278.824Z" fill="#263238"/>
<path d="M86.9262 278.824C87.3778 280.162 87.3778 281.611 86.9262 282.949C86.689 282.298 86.5741 281.609 86.5875 280.917C86.5708 280.205 86.6856 279.495 86.9262 278.824Z" fill="#263238"/>
<path d="M109.159 278.824C109.396 279.486 109.511 280.186 109.498 280.89C109.511 281.582 109.396 282.271 109.159 282.921C108.707 281.584 108.707 280.135 109.159 278.797V278.824Z" fill="#263238"/>
<path d="M131.387 278.824C131.839 280.162 131.839 281.611 131.387 282.949C131.15 282.298 131.035 281.609 131.048 280.917C131.032 280.205 131.147 279.495 131.387 278.824Z" fill="#263238"/>
<path d="M153.62 278.824C153.857 279.486 153.972 280.186 153.959 280.89C153.972 281.582 153.857 282.271 153.62 282.921C153.168 281.584 153.168 280.135 153.62 278.797V278.824Z" fill="#263238"/>
<path d="M175.856 278.824C176.307 280.162 176.307 281.611 175.856 282.949C175.619 282.298 175.504 281.609 175.517 280.917C175.501 280.205 175.615 279.495 175.856 278.824Z" fill="#263238"/>
<path d="M198.081 278.824C198.318 279.486 198.433 280.186 198.42 280.89C198.433 281.582 198.318 282.271 198.081 282.921C197.629 281.584 197.629 280.135 198.081 278.797V278.824Z" fill="#263238"/>
<path d="M220.317 278.824C220.768 280.162 220.768 281.611 220.317 282.949C220.08 282.298 219.965 281.609 219.978 280.917C219.961 280.205 220.076 279.495 220.317 278.824Z" fill="#263238"/>
<path d="M242.542 278.824C242.779 279.486 242.894 280.186 242.88 280.89C242.894 281.582 242.779 282.271 242.542 282.921C242.09 281.584 242.09 280.135 242.542 278.797V278.824Z" fill="#263238"/>
<path d="M264.778 278.824C265.229 280.162 265.229 281.611 264.778 282.949C264.541 282.298 264.426 281.609 264.439 280.917C264.422 280.205 264.537 279.495 264.778 278.824Z" fill="#263238"/>
<path d="M233.428 19.2445L233.266 18.7637C233.692 18.6147 234.126 18.4792 234.559 18.3438L234.708 18.8246L233.428 19.2445Z" fill="#263238"/>
<path d="M169.226 73.9914L169.117 73.4902C170.011 73.3074 170.898 73.0838 171.759 72.8129L171.894 73.3006C171.027 73.5783 170.126 73.8018 169.226 73.9914ZM175.152 72.2237L174.969 71.7496C175.802 71.4245 176.642 71.0723 177.454 70.666L177.671 71.1265C176.845 71.5261 175.998 71.8918 175.152 72.2237ZM180.699 69.5146L180.434 69.0812C181.2 68.6206 181.965 68.1194 182.71 67.5979L183.001 68.0111C182.243 68.519 181.471 69.0202 180.699 69.4875V69.5146ZM185.731 65.925L185.406 65.5322C186.083 64.9701 186.76 64.3605 187.437 63.7307L187.783 64.1032C187.112 64.7127 186.422 65.3223 185.731 65.898V65.925ZM190.248 61.6853L189.876 61.3331C190.485 60.7032 191.102 60.026 191.725 59.3013L192.104 59.6399C191.481 60.3375 190.858 61.0216 190.248 61.6582V61.6853ZM194.312 57.0392L193.919 56.7141C194.495 56.0368 195.057 55.2986 195.619 54.5739L196.019 54.8854C195.463 55.5898 194.897 56.2987 194.319 57.0121L194.312 57.0392ZM198.091 52.1493L197.685 51.8512L199.31 49.6433L199.717 49.9413L198.091 52.1493ZM201.728 47.1645L201.315 46.8665L202.934 44.645L203.34 44.943L201.728 47.1645ZM205.379 42.1594L204.972 41.8547C205.521 41.1232 206.076 40.3917 206.638 39.6671L207.038 39.9786C206.476 40.7033 205.927 41.428 205.379 42.1594ZM209.165 37.3034L208.772 36.9783C209.354 36.301 209.943 35.5695 210.546 34.8787L210.925 35.2106C210.329 35.9014 209.74 36.599 209.165 37.3034ZM213.228 32.6776L212.856 32.3322C213.499 31.6549 214.149 30.9776 214.786 30.3681L215.145 30.7338C214.501 31.323 213.851 32.0003 213.221 32.6776H213.228ZM217.651 28.4243L217.319 28.0382C217.996 27.4287 218.734 26.8394 219.439 26.2909L219.757 26.6904C219.039 27.2594 218.362 27.8147 217.644 28.4243H217.651ZM222.507 24.6857L222.222 24.2658C222.981 23.7511 223.76 23.2499 224.539 22.7893L224.803 23.2228C224.024 23.6833 223.252 24.1778 222.5 24.6857H222.507ZM227.783 21.5973L227.559 21.1436C228.372 20.7372 229.219 20.3511 230.058 19.9922L230.255 20.4595C229.415 20.8117 228.589 21.1977 227.776 21.5973H227.783Z" fill="#263238"/>
<path d="M164.415 74.7088L164.367 74.2008C164.819 74.1602 165.27 74.1128 165.722 74.0586L165.783 74.5598L164.415 74.7088Z" fill="#263238"/>
<path d="M239.821 10.0008L234.633 18.5886L242.787 14.4573L271.741 9.98047L239.821 10.0008Z" fill="#6366F1"/>
<path opacity="0.1" d="M239.821 10.0008L234.633 18.5886L242.787 14.4573L271.741 9.98047L239.821 10.0008Z" fill="black"/>
<path d="M243.275 16.7936L234.633 18.5884L242.787 14.457L243.275 16.7936Z" fill="#263238"/>
<path d="M242.789 14.4573L271.743 9.98047L245.315 27.2442L242.789 14.4573Z" fill="#6366F1"/>
<path d="M239.824 10.0006L230.023 0.539062L271.744 9.98029L239.824 10.0006Z" fill="#6366F1"/>
<path d="M78.3941 82.6602H69.6641V278.833H78.3941V82.6602Z" fill="#37474F"/>
<path d="M78.3986 278.824H83.1328L83.1328 82.6512H78.3986L78.3986 278.824Z" fill="#455A64"/>
<path d="M78.3954 80.1875H68.8594V82.6528H78.3954V80.1875Z" fill="#263238"/>
<path d="M78.3927 82.6602H83.9531V80.1949H78.3927V82.6602Z" fill="#37474F"/>
<path d="M78.3938 78.0078H70.7812V80.1954H78.3938V78.0078Z" fill="#37474F"/>
<path d="M82.2047 78.0078H78.3984V80.1954H82.2047V78.0078Z" fill="#455A64"/>
<path d="M81.4492 73.0829C81.4478 74.0565 81.1579 75.0078 80.616 75.8166C80.0742 76.6254 79.3047 77.2554 78.4049 77.6271C77.5051 77.9987 76.5153 78.0952 75.5606 77.9045C74.6059 77.7137 73.7292 77.2443 73.0413 76.5554C72.3534 75.8665 71.8851 74.9892 71.6957 74.0342C71.5062 73.0793 71.6041 72.0896 71.977 71.1903C72.3499 70.291 72.981 69.5224 73.7905 68.9817C74.6001 68.4409 75.5518 68.1523 76.5254 68.1523C77.1725 68.1523 77.8134 68.2799 78.4112 68.5278C79.009 68.7757 79.5521 69.1389 80.0094 69.5969C80.4667 70.0548 80.8293 70.5984 81.0763 71.1966C81.3233 71.7947 81.45 72.4357 81.4492 73.0829Z" fill="#37474F"/>
<path d="M40.8622 99.6187V120.614H18.2344V99.8152C18.2335 98.3542 18.5205 96.9073 19.079 95.5573C19.6374 94.2073 20.4565 92.9805 21.4892 91.9471C22.522 90.9137 23.7482 90.094 25.0979 89.5347C26.4476 88.9754 27.8943 88.6875 29.3552 88.6875H29.9309C32.8301 88.6875 35.6105 89.8392 37.6605 91.8892C39.7105 93.9392 40.8622 96.7196 40.8622 99.6187Z" fill="#6366F1"/>
<path d="M76.5263 97.912V120.635H40.8609V99.6391C40.8636 98.2018 40.5828 96.7782 40.0347 95.4496C39.4865 94.121 38.6818 92.9136 37.6664 91.8964C36.6511 90.8792 35.4452 90.0721 34.1176 89.5215C32.79 88.9709 31.3669 88.6875 29.9297 88.6875H67.3289C69.7707 88.6947 72.11 89.6697 73.8341 91.3989C75.5581 93.128 76.5263 95.4702 76.5263 97.912Z" fill="#6366F1"/>
<path opacity="0.1" d="M76.5263 97.912V120.635H40.8609V99.6391C40.8636 98.2018 40.5828 96.7782 40.0347 95.4496C39.4865 94.121 38.6818 92.9136 37.6664 91.8964C36.6511 90.8792 35.4452 90.0721 34.1176 89.5215C32.79 88.9709 31.3669 88.6875 29.9297 88.6875H67.3289C69.7707 88.6947 72.11 89.6697 73.8341 91.3989C75.5581 93.128 76.5263 95.4702 76.5263 97.912Z" fill="#020100"/>
<path opacity="0.1" d="M47.0525 99.2124V120.635H45.5963V99.6391C45.599 98.2024 45.3185 96.7793 44.7707 95.4512C44.223 94.123 43.4188 92.9159 42.4042 91.8988C41.3896 90.8816 40.1845 90.0745 38.8577 89.5235C37.5309 88.9725 36.1085 88.6884 34.6719 88.6875H36.5276C39.319 88.6875 41.996 89.7964 43.9698 91.7702C45.9436 93.744 47.0525 96.421 47.0525 99.2124Z" fill="#020100"/>
<path opacity="0.1" d="M73.2165 99.2116V120.634H71.7604V99.6383C71.7604 96.7403 70.6096 93.9609 68.5611 91.9111C66.5126 89.8613 63.7339 88.7088 60.8359 88.707H62.6917C65.4795 88.707 68.1535 89.8131 70.1267 91.7825C72.0999 93.7519 73.2112 96.4237 73.2165 99.2116Z" fill="#020100"/>
<g opacity="0.1">
<path d="M54.9664 114.998V111.612L53.7405 114.077H53.0632L51.8373 111.612V114.998H50.5234V109.336H51.9457L53.4154 112.289L54.8851 109.336H56.3006V114.998H54.9664Z" fill="#020100"/>
<path d="M58.8923 109.336H60.0775L62.1093 114.998H60.7548L60.3145 113.725H58.5536L58.1202 114.998H56.7656L58.8923 109.336ZM60.1452 112.824L59.468 110.792L58.7907 112.824H60.1452Z" fill="#020100"/>
<path d="M62.7031 114.998V109.336H64.0103V114.998H62.7031Z" fill="#020100"/>
<path d="M65.0938 114.998V109.336H66.4009V113.847H69.1439V114.998H65.0938Z" fill="#020100"/>
</g>
<path opacity="0.3" d="M39.7011 100.134V119.003H19.3828V100.31C19.3828 98.996 19.6421 97.6948 20.1458 96.481C20.6496 95.2672 21.3878 94.1647 22.3183 93.2367C23.2488 92.3087 24.3533 91.5734 25.5685 91.073C26.7836 90.5726 28.0856 90.3168 29.3997 90.3203H29.9145C32.5125 90.3275 35.0017 91.3646 36.8363 93.2043C38.6709 95.0439 39.7011 97.536 39.7011 100.134Z" fill="#020100"/>
<path d="M15.7175 122.756L18.2302 120.656H40.8579L38.5823 122.559C31.2609 128.702 21.244 133.687 15.1011 133.687H13.6247C7.59015 133.667 6.71646 129.684 15.7175 122.756Z" fill="#37474F"/>
<path d="M40.853 120.633L38.5841 122.536C31.2628 128.679 21.2459 133.664 15.103 133.664H13.4978C7.57843 133.603 6.77924 129.6 15.7193 122.732L18.2252 120.633H40.853Z" fill="#37474F"/>
<path d="M39.1801 120.633L36.9112 122.536C29.617 128.631 19.6475 133.623 13.4978 133.664C7.57843 133.603 6.77924 129.6 15.7193 122.732L18.2252 120.633H39.1801Z" fill="#455A64"/>
<path d="M73.0237 129.952V135.729L61.0156 120.633H65.6143L73.0237 129.952Z" fill="#455A64"/>
<path d="M73.0216 135.729H71.3284L59.3203 120.633H61.0203L73.0216 135.729Z" fill="#37474F"/>
<path d="M54.455 78.9152V84.2657H49.5583V104.36C49.5583 104.81 49.3799 105.24 49.0623 105.558C48.7448 105.875 48.3141 106.054 47.8651 106.054C47.416 106.054 46.9853 105.875 46.6678 105.558C46.3503 105.24 46.1719 104.81 46.1719 104.36V77.5742L49.5583 78.1228L54.455 78.9152Z" fill="#455A64"/>
<path d="M54.4607 78.9152V84.2657H49.564V104.36C49.5625 104.75 49.427 105.126 49.1803 105.427C48.9336 105.728 48.5907 105.935 48.2094 106.013C48.094 106.04 47.9758 106.054 47.8573 106.054C47.7627 106.064 47.6673 106.064 47.5728 106.054C47.2257 106 46.905 105.836 46.6585 105.586C46.3424 105.267 46.1647 104.837 46.1641 104.388V77.5742L49.5504 78.1228L54.4607 78.9152Z" fill="#455A64"/>
<path d="M47.8471 106.054H46.5265C46.1563 106.058 45.7987 105.92 45.5277 105.667C45.2566 105.415 45.0929 105.069 45.0703 104.699V77.5742H46.154V104.36C46.1546 104.81 46.3323 105.24 46.6484 105.559C46.981 105.854 47.4033 106.028 47.8471 106.054Z" fill="#37474F"/>
<path d="M39.699 100.133V113.401L36.3126 111.985L34.3349 111.152L33.4612 110.786L32.8923 110.542L32.2896 110.292L32.1067 110.217L31.8696 110.116L26.8984 108.016L27.9482 105.517L28.1514 105.043L29.0522 102.916L29.4111 102.049L29.5601 101.711L30.1832 100.221L30.8605 98.5412L33.5696 92.0664L37.1185 93.5632C38.169 94.7206 38.9241 96.1147 39.3197 97.6268C39.554 98.4422 39.6815 99.2846 39.699 100.133Z" fill="#EBEBEB"/>
<path d="M39.7043 103.589V105.065L39.6231 104.896V104.821L39.5621 104.693C39.5369 104.651 39.5143 104.608 39.4944 104.564L38.6884 102.905C38.6884 102.837 38.6207 102.769 38.5868 102.695L37.8757 101.205C37.7267 100.907 37.5845 100.609 37.4422 100.304L37.4016 100.209L36.3247 97.9402C36.0606 97.3645 35.7897 96.7889 35.5255 96.2064C34.9024 94.8518 34.259 93.4566 33.6562 92.0547C34.3877 93.3483 35.0718 94.6622 35.7829 95.9693C36.1215 96.6466 36.4602 97.2494 36.7988 97.8928L37.8689 99.9246L38.0111 100.202L38.4649 101.083L39.0203 102.173C39.0203 102.227 39.0812 102.282 39.1083 102.336L39.7043 103.589Z" fill="#DBDBDB"/>
<path d="M39.7004 104.806V104.867H39.6192L39.416 104.928C38.5558 105.192 37.6957 105.429 36.8288 105.653L36.5443 105.721L35.9145 105.876H35.84L35.095 106.052L33.6388 106.378C32.6094 106.594 31.607 106.797 30.5437 106.974H30.4218L29.7919 107.075C28.9182 107.224 28.0445 107.346 27.1641 107.441C27.9226 107.19 28.6812 106.974 29.4465 106.764L30.1238 106.587L30.3337 106.527C31.3903 106.256 32.4604 106.019 33.5237 105.782L34.4786 105.578C34.7631 105.531 35.0408 105.47 35.3252 105.416C35.6097 105.362 36.0025 105.28 36.3547 105.226L36.7475 105.158L36.9642 105.118C37.7499 104.982 38.5423 104.86 39.3483 104.766H39.5921L39.7004 104.806Z" fill="#DBDBDB"/>
<path d="M39.7076 101.449H22.1797V118.76H39.7076V101.449Z" fill="white"/>
<path d="M39.6998 109.437V110.284L39.5372 110.426L39.2257 110.704C39.1879 110.734 39.1517 110.765 39.1173 110.799L39.0225 110.887L38.9548 110.948L36.3337 113.223L35.9748 113.528L35.819 113.657L35.6632 113.528L34.3493 112.384L33.672 111.821C33.5366 111.7 33.3943 111.584 33.2589 111.456C33.2228 111.434 33.1907 111.407 33.1641 111.374L32.69 110.968L32.629 110.914L32.5207 110.819L32.4123 110.731C31.5093 109.968 30.6333 109.196 29.7845 108.415L29.4323 108.103L28.8701 107.602L27.9355 106.769C27.2582 106.186 26.6283 105.597 25.9849 105.001L25.7547 104.798L25.5041 104.575C24.3933 103.538 23.2691 102.543 22.1719 101.473C23.3436 102.373 24.4949 103.328 25.6531 104.249C25.7411 104.324 25.8359 104.392 25.924 104.473L26.2152 104.71L28.1387 106.288L29.114 107.094L30.1096 107.927L30.5362 108.286C31.3399 108.959 32.1414 109.636 32.9406 110.318L33.1167 110.467L33.584 110.866L33.7939 111.043L34.1868 111.381L35.8054 112.736C36.7536 111.923 37.7086 111.104 38.6635 110.298L38.948 110.054C39.1309 109.898 39.307 109.742 39.4966 109.593L39.6998 109.437Z" fill="#DBDBDB"/>
<path d="M32.9968 110.684L32.5633 111.049C31.8861 111.625 31.2088 112.18 30.4638 112.715C29.5969 113.393 28.7096 114.016 27.8156 114.646C26.9216 115.276 26.0141 115.878 25.1065 116.468C24.199 117.057 23.2508 117.639 22.2891 118.167C23.1153 117.443 23.9823 116.766 24.8492 116.102C25.7161 115.438 26.6101 114.801 27.4973 114.172C28.3845 113.542 29.3056 112.932 30.2064 112.343C30.9379 111.876 31.6829 111.408 32.4482 110.988L32.9833 110.69L32.9968 110.684Z" fill="#DBDBDB"/>
<path d="M39.7034 111.288V111.572L39.121 111.084L38.9584 110.949L38.6875 110.719H38.7349L39.06 110.902L39.2632 111.024L39.7034 111.288Z" fill="#DBDBDB"/>
<path d="M101.787 206.059C101.787 206.059 80.317 224.257 80.2967 224.264C76.1721 227.725 72.6164 230.833 70.93 232.608C70.4929 232.976 70.1455 233.44 69.9141 233.962C69.9141 233.962 69.9141 233.996 69.9141 234.01C70.1105 235.933 96.7884 269.702 98.1158 270.583C99.4433 271.463 102.01 267.738 102.017 265.598C102.024 263.458 97.5943 245.957 97.5943 245.957L118.881 227.562L101.787 206.059Z" fill="#EB9481"/>
<path d="M84.7058 220.52C84.7058 220.52 80.317 224.245 80.2967 224.251C76.1721 227.712 72.6164 230.821 70.93 232.595C70.539 233.005 70.198 233.46 69.9141 233.95C69.9141 233.95 69.9141 233.984 69.9141 233.997C70.1105 235.921 96.7884 269.69 98.1158 270.57C99.4433 271.451 102.01 267.726 102.017 265.585C102.024 263.445 97.5943 245.944 97.5943 245.944L102.119 242.213L84.7058 220.52Z" fill="#EBEBEB"/>
<path d="M98.0858 270.597C96.7313 269.737 70.0804 235.968 69.884 234.024C69.796 233.286 74.4895 229.114 80.3005 224.238L80.4902 224.082L97.9368 245.674L97.5643 245.958C97.5643 245.958 101.994 263.452 101.987 265.599C101.98 267.746 99.4065 271.471 98.0858 270.597Z" fill="#6366F1"/>
<path d="M99.0844 269.179C94.7295 263.381 76.6124 240.388 71.8647 234.983C71.8241 234.942 71.7902 234.983 71.8308 234.983C76.0232 240.828 94.3232 263.672 98.9964 269.226C99.0912 269.368 99.1522 269.3 99.0844 269.179Z" fill="#263238"/>
<path d="M98.9457 247.861C97.5911 245.294 95.0852 242.822 92.1391 242.375C92.0239 242.375 91.9968 242.517 92.0781 242.571C94.4602 244.167 96.6648 246.013 98.6544 248.078C98.6853 248.11 98.7268 248.13 98.7713 248.134C98.8158 248.137 98.8602 248.125 98.896 248.098C98.9318 248.072 98.9566 248.033 98.9658 247.989C98.9749 247.945 98.9678 247.9 98.9457 247.861Z" fill="#263238"/>
<path d="M99.2433 250.244C97.8888 247.677 95.3829 245.212 92.4706 244.758C92.3554 244.758 92.3351 244.9 92.4164 244.954C94.7963 246.55 96.9987 248.396 98.986 250.46C99.018 250.477 99.054 250.483 99.0896 250.479C99.1252 250.475 99.1588 250.46 99.1863 250.437C99.2137 250.414 99.2337 250.383 99.2439 250.349C99.254 250.315 99.2538 250.278 99.2433 250.244Z" fill="#263238"/>
<path d="M99.5506 252.633C98.1961 250.06 95.6902 247.594 92.744 247.141C92.6289 247.141 92.6086 247.29 92.6898 247.344C95.0696 248.937 97.272 250.781 99.2594 252.843C99.2903 252.872 99.3304 252.89 99.3728 252.893C99.4151 252.895 99.4571 252.883 99.4916 252.858C99.526 252.834 99.5507 252.798 99.5615 252.756C99.5723 252.715 99.5684 252.672 99.5506 252.633Z" fill="#263238"/>
<path d="M113.139 184.691C111.784 192.384 80.7109 223.681 80.7109 223.681L103.454 248.741C103.454 248.741 147.477 202.686 144.768 185.808C142.377 171.138 118.963 112.473 118.963 112.473L93.5453 113.069C93.5453 113.069 114.487 177.125 113.139 184.691Z" fill="#37474F"/>
<path d="M105.828 242.591C102.801 238.994 103.722 239.983 100.654 236.421C99.1501 234.68 89.2754 223.241 87.589 221.859C87.5484 221.859 87.4874 221.859 87.5145 221.927C88.6659 223.776 98.7438 235.039 100.274 236.753C103.41 240.254 102.55 239.218 105.693 242.679C105.698 242.688 105.706 242.695 105.715 242.701C105.723 242.707 105.733 242.712 105.744 242.714C105.754 242.716 105.765 242.716 105.775 242.714C105.786 242.712 105.795 242.708 105.804 242.703C105.813 242.697 105.821 242.689 105.827 242.681C105.833 242.672 105.837 242.662 105.839 242.652C105.842 242.641 105.842 242.631 105.84 242.62C105.838 242.61 105.834 242.6 105.828 242.591Z" fill="#263238"/>
<path d="M117.442 182.067C117.035 180.164 116.575 178.268 116.128 176.378C115.225 172.513 114.261 168.657 113.236 164.81C111.222 157.184 109.052 149.606 106.727 142.074C104.384 134.523 101.918 126.978 99.1078 119.582C98.7556 118.668 98.3966 117.76 98.0444 116.873C98.0391 116.858 98.0278 116.845 98.0132 116.838C97.9986 116.831 97.9818 116.83 97.9665 116.836C97.9513 116.841 97.9388 116.852 97.9318 116.867C97.9248 116.881 97.9239 116.898 97.9293 116.913C100.388 124.33 102.921 131.725 105.237 139.189C107.553 146.653 109.694 154.089 111.732 161.614C112.755 165.386 113.71 169.172 114.651 172.965C115.103 174.83 115.554 176.697 116.006 178.566C116.547 180.457 116.947 182.386 117.205 184.336C117.317 186.189 116.843 188.03 115.85 189.599C114.936 191.177 113.818 192.673 112.802 194.163C110.696 197.164 90.547 220.699 89.8968 221.336C89.8426 221.39 89.8968 221.465 89.9781 221.41C92.6872 218.857 109.809 199.446 111.969 196.453C113.033 194.976 114.076 193.473 115.098 191.962C116.12 190.585 116.935 189.065 117.516 187.452C117.96 185.681 117.935 183.825 117.442 182.067Z" fill="#263238"/>
<path d="M113.729 112.594L112.774 180.003C109.916 163.179 93.5391 113.068 93.5391 113.068L113.729 112.594Z" fill="#263238"/>
<path d="M106.562 237.503C106.562 237.503 112.658 264.093 112.658 264.107C112.854 269.525 113.125 274.198 113.498 276.623C113.495 276.636 113.495 276.65 113.498 276.664C113.52 277.24 113.676 277.803 113.952 278.309L113.985 278.343C115.624 279.373 158.686 279.02 160.155 278.519C161.625 278.018 160.298 273.69 158.618 272.376C156.938 271.063 140.399 263.816 140.399 263.816L134.019 237.246L106.562 237.503Z" fill="#EB9481"/>
<path d="M160.18 278.526C158.683 279.048 115.649 279.387 114.01 278.357L113.976 278.323C113.696 277.819 113.54 277.254 113.522 276.677C113.519 276.671 113.518 276.664 113.518 276.657C113.518 276.65 113.519 276.643 113.522 276.637C113.157 274.212 112.893 269.505 112.689 264.128L111.633 259.495L139.239 258.852L140.431 263.823C140.431 263.823 156.963 271.07 158.656 272.39C160.349 273.711 161.684 278.005 160.18 278.526Z" fill="#EBEBEB"/>
<path d="M160.181 278.525C158.684 279.039 115.657 279.378 114.011 278.349C113.374 277.969 112.961 271.704 112.656 264.126C112.656 264.051 112.656 263.97 112.656 263.889L140.425 263.367V263.835C140.425 263.835 156.95 271.075 158.643 272.395C160.336 273.716 161.678 278.003 160.181 278.525Z" fill="#6366F1"/>
<path d="M159.68 276.852C152.426 276.73 123.155 276.927 115.975 277.353C115.914 277.353 115.914 277.401 115.975 277.401C123.161 277.678 152.433 277.245 159.68 276.974C159.836 276.967 159.836 276.852 159.68 276.852Z" fill="#263238"/>
<path d="M142.753 263.884C139.895 263.369 136.407 263.836 134.247 265.915C134.159 265.997 134.247 266.112 134.369 266.085C137.087 265.179 139.896 264.57 142.746 264.27C142.772 264.27 142.797 264.266 142.821 264.256C142.844 264.247 142.866 264.233 142.884 264.216C142.902 264.198 142.917 264.177 142.927 264.154C142.937 264.13 142.942 264.105 142.943 264.08C142.943 264.055 142.939 264.03 142.929 264.006C142.92 263.982 142.906 263.961 142.889 263.943C142.871 263.924 142.85 263.91 142.827 263.9C142.804 263.89 142.779 263.884 142.753 263.884Z" fill="#263238"/>
<path d="M144.827 265.11C141.969 264.595 138.481 265.063 136.314 267.142C136.233 267.223 136.314 267.338 136.436 267.311C139.157 266.406 141.968 265.798 144.821 265.496C144.846 265.497 144.871 265.492 144.895 265.483C144.918 265.474 144.94 265.46 144.958 265.442C144.976 265.424 144.991 265.403 145.001 265.38C145.011 265.357 145.017 265.332 145.017 265.307C145.017 265.281 145.013 265.256 145.004 265.232C144.994 265.209 144.98 265.187 144.963 265.169C144.945 265.151 144.924 265.136 144.901 265.126C144.878 265.116 144.853 265.111 144.827 265.11Z" fill="#263238"/>
<path d="M146.894 266.337C144.036 265.822 140.548 266.289 138.387 268.369C138.299 268.45 138.387 268.565 138.509 268.538C141.228 267.633 144.037 267.024 146.887 266.723C146.938 266.724 146.988 266.704 147.025 266.669C147.061 266.633 147.083 266.584 147.083 266.533C147.084 266.482 147.065 266.433 147.029 266.396C146.994 266.359 146.945 266.338 146.894 266.337Z" fill="#263238"/>
<path d="M116.499 112.52C116.499 113.055 114.433 134.87 113.743 135.486C113.052 136.103 108.555 139.259 107.221 140.119C107.221 140.119 120.292 177.789 123.814 190.366C128.927 208.605 141.423 263.383 141.423 263.383L111.521 264.06C111.521 264.06 101.206 211.876 96.8243 194.504C93.0722 179.604 78.9713 134.992 78.9713 134.992C77.0895 127.878 77.2799 120.375 79.5199 113.366C79.5199 113.366 116.506 112.5 116.499 112.52Z" fill="#37474F"/>
<path d="M140.219 257.594C135.519 257.675 136.867 257.594 132.166 257.722C129.87 257.79 114.76 258.244 112.627 258.684C112.579 258.684 112.586 258.772 112.627 258.779C114.787 259.05 129.884 258.332 132.18 258.224C136.873 257.993 135.526 258.007 140.219 257.729C140.237 257.729 140.254 257.722 140.267 257.709C140.28 257.697 140.287 257.679 140.287 257.661C140.287 257.644 140.28 257.626 140.267 257.614C140.254 257.601 140.237 257.594 140.219 257.594Z" fill="#263238"/>
<path d="M115.047 134.357C112.176 136.021 109.457 137.934 106.92 140.073C106.909 140.08 106.899 140.09 106.892 140.101C106.884 140.112 106.879 140.125 106.877 140.138C106.874 140.151 106.874 140.165 106.877 140.178C106.88 140.191 106.885 140.204 106.893 140.215C106.9 140.226 106.91 140.236 106.921 140.243C106.932 140.25 106.945 140.255 106.958 140.258C106.971 140.26 106.985 140.26 106.998 140.258C107.011 140.255 107.024 140.25 107.035 140.242C109.785 138.42 112.609 136.652 115.264 134.688C115.296 134.655 115.316 134.612 115.32 134.566C115.325 134.52 115.313 134.474 115.288 134.436C115.263 134.397 115.225 134.368 115.182 134.354C115.138 134.34 115.09 134.34 115.047 134.357Z" fill="#263238"/>
<path d="M112.274 113.751C112.274 113.649 112.064 113.663 112.084 113.751C112.685 117.089 113.117 120.454 113.378 123.836C113.513 125.393 113.798 134.11 111.028 133.995C110.561 133.995 110.256 133.575 110.059 132.918C109.915 132.036 109.878 131.14 109.951 130.249C109.951 128.414 109.843 126.592 109.673 124.763C109.387 121.363 108.747 118.001 107.763 114.733C107.755 114.713 107.741 114.697 107.722 114.688C107.703 114.678 107.682 114.675 107.661 114.68C107.641 114.685 107.623 114.697 107.61 114.715C107.598 114.732 107.592 114.753 107.594 114.774C108.506 119.398 109.065 124.084 109.267 128.793C109.335 131.062 108.813 134.591 111.19 134.516C113.568 134.442 114.13 128.597 114.143 127.019C114.1 122.534 113.472 118.073 112.274 113.751Z" fill="#263238"/>
<path d="M111.129 134.184C110.997 134.801 110.902 135.425 110.845 136.053C110.75 136.548 110.75 137.056 110.845 137.55C110.845 137.638 110.994 137.625 111.034 137.55C111.235 137.067 111.359 136.555 111.4 136.033C111.508 135.451 111.624 134.875 111.712 134.292C111.708 134.224 111.681 134.159 111.636 134.108C111.591 134.056 111.53 134.022 111.463 134.009C111.396 133.997 111.326 134.007 111.266 134.039C111.205 134.07 111.157 134.122 111.129 134.184Z" fill="#263238"/>
<path d="M107.543 241.872C107.449 241.194 107.34 240.517 107.225 239.806C107.008 238.485 106.751 237.171 106.548 235.851C106.074 233.203 105.559 230.561 105.024 227.927C103.961 222.671 102.755 217.429 101.495 212.221C100.777 209.274 99.9579 206.362 99.0978 203.457C99.0368 203.253 98.7524 203.362 98.793 203.558C99.3348 206.22 99.8631 208.888 100.473 211.543C101.082 214.198 101.685 216.833 102.281 219.481C103.446 224.716 104.543 229.972 105.701 235.207C106.033 236.684 106.331 238.167 106.656 239.643C106.819 240.384 106.988 241.122 107.164 241.858C107.34 242.59 107.584 243.308 107.726 244.046C107.726 244.113 107.841 244.08 107.828 244.046C107.672 243.308 107.645 242.583 107.543 241.872Z" fill="#263238"/>
<path d="M127.23 201.664C126.119 196.727 124.663 191.864 123.2 187.021C120.254 177.275 116.827 167.678 113.414 158.088L110.461 149.798C109.966 148.444 107.535 140.96 107.244 140.256C107.238 140.24 107.227 140.228 107.212 140.221C107.198 140.214 107.181 140.213 107.166 140.218C107.15 140.224 107.138 140.235 107.131 140.25C107.124 140.264 107.123 140.281 107.128 140.296C107.806 142.836 108.808 146.541 109.607 149.06C110.406 151.58 111.267 154.004 112.106 156.51C113.745 161.366 115.412 166.216 117.01 171.092C120.166 180.723 123.302 190.354 125.916 200.154C126.641 202.897 127.372 205.64 128.043 208.403C128.713 211.166 129.303 213.93 129.946 216.693C129.946 216.767 130.088 216.74 130.081 216.693C129.383 211.639 128.432 206.623 127.23 201.664Z" fill="#263238"/>
<path d="M109.246 228.049C107.384 218.621 105.182 209.254 102.785 199.955C100.387 190.656 97.712 181.317 94.7998 172.112C91.8875 162.908 88.7043 153.792 85.2772 144.757C83.5666 140.51 82.1079 136.166 80.9088 131.747C79.8252 127.345 79.2089 122.577 80.1367 118.093C80.3678 116.955 80.6847 115.837 81.0849 114.747C81.0849 114.673 80.9969 114.612 80.9698 114.686C77.5834 123.152 80.1164 132.262 83.049 140.423C84.6542 144.913 86.3541 149.37 87.9389 153.867C89.5734 158.481 91.1379 163.118 92.6325 167.778C95.6125 177.016 98.3893 186.308 100.902 195.682C103.415 205.055 105.684 214.483 107.675 223.972C109.666 233.46 111.447 243.057 113.208 252.627C113.438 253.873 113.628 255.126 113.818 256.379C113.818 256.447 113.94 256.447 113.933 256.379C112.585 246.918 111.109 237.463 109.246 228.049Z" fill="#263238"/>
<path d="M103.224 73.7927C106.319 85.2251 113.586 102.916 119.641 102.699C125.161 102.482 137.25 92.3975 142.35 89.0653C147.45 85.7331 135.577 73.3525 132.651 75.4723C128.134 78.7504 121.402 84.5749 120.23 84.2295C118.774 83.7961 116.844 80.2878 108.364 70.0067C104.856 65.7805 101.869 68.9231 103.224 73.7927Z" fill="#EB9481"/>
<path d="M138.05 70.466C140.461 69.5449 143.157 68.2987 145.866 68.2852C148.575 68.2716 150.898 71.7935 150.925 72.8162C150.952 73.8389 150.072 80.2662 147.369 80.3068C144.667 80.3475 146.184 75.4305 146.069 74.8886C145.954 74.3468 145.832 73.6154 145.324 73.6831C144.816 73.7508 135.984 78.187 135.984 78.187L138.05 70.466Z" fill="#EB9481"/>
<path d="M138.227 70.834C138.382 70.834 145.561 67.8066 148.271 67.793C150.98 67.7795 153.337 71.281 153.337 72.3172C153.337 73.3534 152.483 79.7672 149.781 79.8079C147.079 79.8485 148.596 74.9315 148.481 74.3897C148.365 73.8478 148.243 73.1096 147.736 73.1773C147.228 73.2451 138.396 77.688 138.396 77.688L138.227 70.834Z" fill="#EB9481"/>
<path d="M148.85 79.4878C148.554 79.0075 148.386 78.4596 148.362 77.8962C148.294 77.3208 148.315 76.7383 148.423 76.1691C148.56 75.6789 148.658 75.1783 148.714 74.6723C148.699 74.1718 148.56 73.6829 148.308 73.2501C148.091 72.8776 147.692 73.013 147.353 73.1417C146.856 73.3415 146.37 73.5675 145.897 73.819L144.38 74.6656C143.845 74.9339 143.327 75.2348 142.829 75.5664C142.819 75.5708 142.811 75.5791 142.807 75.5892C142.803 75.5994 142.804 75.6107 142.808 75.6205C142.813 75.6304 142.821 75.6381 142.831 75.6419C142.841 75.6457 142.853 75.6454 142.863 75.6409C143.325 75.4387 143.778 75.2126 144.217 74.9636L145.748 74.2186C146.229 73.9951 146.696 73.7377 147.184 73.5413C147.353 73.4668 147.692 73.2704 147.861 73.311C148.03 73.3517 148.179 73.8596 148.233 74.0222C148.355 74.5054 148.334 75.0137 148.172 75.4851C148.041 75.9722 147.959 76.4715 147.929 76.9751C147.891 77.4494 147.939 77.9267 148.071 78.3838C148.25 78.7909 148.478 79.1752 148.748 79.5284C148.802 79.5894 148.89 79.5284 148.85 79.4878Z" fill="#263238"/>
<path d="M129.82 78.1351C129.82 78.1351 137.155 71.1253 138.686 69.7368C141.754 66.9397 154.812 61.2438 156.647 61.0068C158.483 60.7697 159.228 64.5218 150.369 68.6464C145.702 70.8137 144.951 73.5364 145.052 75.0331C145.154 76.5299 146.671 79.2864 149.184 79.1578C151.696 79.0291 153.247 75.3176 155.557 74.857C157.866 74.3965 156.43 78.6701 154.88 81.1557C153.22 83.555 150.914 85.4339 148.229 86.5739C146.068 87.4408 139.424 90.5021 139.424 90.5021L129.82 78.1351Z" fill="#EB9481"/>
<path d="M152.268 77.3126C151.334 78.0711 150.284 79.0464 149.038 79.1209C147.792 79.1954 146.891 78.3827 146.268 77.3464C145.584 76.3288 145.317 75.0874 145.523 73.8788C145.792 72.7853 146.367 71.7914 147.182 71.0139C148.193 70.073 149.333 69.2816 150.568 68.6637C150.623 68.6637 150.568 68.5554 150.514 68.5825C149.37 69.1311 145.773 70.6888 145.157 73.8855C144.957 75.1202 145.235 76.3847 145.936 77.4209C146.518 78.4097 147.351 79.3579 148.577 79.4528C150.067 79.5408 151.32 78.3014 152.37 77.3735C152.384 77.3058 152.316 77.2719 152.268 77.3126Z" fill="#263238"/>
<path d="M129.798 77.1771L141.413 94.3054C141.413 94.3054 123.858 104.702 118.799 103.212C113.74 101.722 105.788 87.4717 102.361 74.8879C98.9344 62.3041 106.825 66.9638 109.933 70.8243C113.042 74.6848 119.795 83.5571 120.154 83.4284C120.512 83.2997 129.798 77.1771 129.798 77.1771Z" fill="#6366F1"/>
<path d="M136.362 97.1185C135.271 97.701 134.073 98.3173 132.813 98.9336L122.688 81.8121C123.703 81.1348 124.882 80.3898 125.986 79.6719C129.176 85.0224 133.05 91.531 136.362 97.1185Z" fill="#EBEBEB"/>
<path d="M131.447 99.5957L130.282 100.131L120.312 83.314C120.529 83.1921 120.895 82.9618 121.369 82.6367C124.505 87.9195 128.237 94.191 131.447 99.5957Z" fill="#EBEBEB"/>
<path d="M129.015 100.693C124.999 102.44 121.051 103.734 118.965 103.26L118.782 103.212C113.716 101.722 105.778 87.4793 102.344 74.8887C101.834 73.2045 101.549 71.46 101.498 69.7008C101.498 69.633 101.498 69.5789 101.498 69.5111C101.498 69.4434 101.498 69.3147 101.498 69.2131C101.494 69.1726 101.494 69.1318 101.498 69.0912C101.49 69.0011 101.49 68.9105 101.498 68.8203L129.015 100.693Z" fill="#263238"/>
<path d="M135.113 92.755C134.747 92.1455 134.368 91.5359 133.995 90.9331C133.243 89.7208 128.733 82.5349 126.965 80.3609C126.918 80.2999 126.83 80.3609 126.857 80.4354C128.116 82.9548 132.783 90.0053 133.562 91.1702C133.961 91.7594 134.354 92.3554 134.76 92.9446C135.167 93.5339 135.641 94.0825 136.047 94.6785C136.088 94.7327 136.183 94.6785 136.149 94.6243C135.776 94.0147 135.478 93.3646 135.113 92.755Z" fill="#263238"/>
<path d="M77.0111 124.427C77.1195 124.542 121.921 119.198 122.314 118.717C122.869 118.04 111.417 73.394 106.574 67.5017C105.538 66.2419 102.253 65.9913 99.4831 66.4316C98.7607 66.5379 98.049 66.7079 97.3565 66.9395H97.2888C96.7282 67.1208 96.2034 67.3981 95.7378 67.759C88.2065 74.1999 82.4158 96.015 81.1154 102.557C78.9481 113.353 76.6251 124.014 77.0111 124.427Z" fill="#6366F1"/>
<path d="M121.394 113.873C110.558 115.275 87.0495 118.323 77.7031 119.441C78.0282 117.781 78.421 115.804 78.868 113.623L120.067 108.469C120.588 110.501 121.042 112.343 121.394 113.873Z" fill="#EBEBEB"/>
<path d="M119.51 106.267C108.809 107.656 89.0325 110.209 79.3203 111.394L79.6996 109.539L119.07 104.574C119.219 105.143 119.368 105.712 119.51 106.267Z" fill="#EBEBEB"/>
<path d="M92.6865 79.4668C94.9554 91.1498 105.311 112.85 111.772 114.766C119.256 116.981 144.837 108.143 149.808 104.316C151.786 102.799 140.753 90.0933 138.294 91.0415C127.891 95.1458 118.653 97.3469 117.265 96.4597C115.152 95.1051 106.428 83.1648 100.726 75.7689C93.567 66.4767 91.6638 74.2315 92.6865 79.4668Z" fill="#EB9481"/>
<path d="M149.151 104.689C150.289 104.248 158.05 98.3358 160.313 95.5928C162.772 92.7505 164.748 89.5246 166.164 86.0432C168.379 80.5302 169.388 76.5139 168.785 74.7395C168.108 72.6738 167.885 72.3419 162.636 81.5122C159.669 86.7069 156.737 87.3504 154.183 87.3571C147.897 87.3864 141.709 88.924 136.141 91.8407C136.141 91.8407 144.783 106.361 149.151 104.689Z" fill="#EB9481"/>
<path d="M172.545 67.8917L159.312 85.4129C159.122 85.6535 158.868 85.8353 158.579 85.9372C158.29 86.0391 157.978 86.0569 157.679 85.9886L148.096 83.0492C147.972 83.0239 147.859 82.9647 147.767 82.8782C147.675 82.7917 147.61 82.6815 147.577 82.5598C147.545 82.4381 147.547 82.3097 147.584 82.1892C147.62 82.0687 147.69 81.9607 147.784 81.8775L161.018 64.3564C161.207 64.1145 161.461 63.9317 161.75 63.8297C162.039 63.7276 162.352 63.7106 162.651 63.7807L172.234 66.7201C172.357 66.7454 172.471 66.8046 172.563 66.891C172.654 66.9775 172.72 67.0878 172.752 67.2095C172.785 67.3312 172.783 67.4595 172.746 67.58C172.709 67.7006 172.64 67.8085 172.545 67.8917Z" fill="#37474F"/>
<path d="M171.371 66.4323L161.787 63.4929C161.488 63.4253 161.176 63.4442 160.887 63.5473C160.598 63.6504 160.344 63.8335 160.155 64.0754L146.928 81.5965C146.825 81.678 146.748 81.7877 146.707 81.9121C146.665 82.0365 146.661 82.1703 146.694 82.2973C146.727 82.4242 146.796 82.5389 146.893 82.6273C146.99 82.7157 147.11 82.774 147.24 82.7953L156.823 85.7346C157.122 85.8013 157.433 85.7827 157.722 85.6809C158.01 85.5792 158.265 85.3983 158.455 85.159L171.682 67.6378C171.787 67.5568 171.866 67.4468 171.909 67.3213C171.952 67.1959 171.957 67.0607 171.924 66.9323C171.891 66.8039 171.821 66.6881 171.723 66.5993C171.624 66.5104 171.502 66.4523 171.371 66.4323ZM158.252 84.4004C158.08 84.6272 157.848 84.8009 157.582 84.9015C157.316 85.0022 157.027 85.0257 156.749 84.9693L148.181 82.3415C147.7 82.1925 147.592 81.6642 147.944 81.2375L160.264 64.9219C160.941 63.9873 161.395 64.055 161.875 64.204L163.589 64.7323C163.691 64.7323 163.697 64.8881 163.589 65.01L163.548 65.0642C163.325 65.3622 163.508 65.4164 163.731 65.4841L167.7 66.7032C167.805 66.7623 167.93 66.7777 168.046 66.746C168.163 66.7143 168.262 66.6382 168.323 66.5339L168.364 66.4797C168.4 66.421 168.453 66.374 168.515 66.344C168.578 66.3141 168.647 66.3024 168.716 66.3104L170.436 66.8386C170.91 66.9809 171.208 67.2247 170.558 68.0848L158.252 84.4004Z" fill="#263238"/>
<path d="M166.548 65.8949L165.471 65.5563C165.466 65.5518 165.461 65.5462 165.458 65.5397C165.455 65.5333 165.453 65.5262 165.453 65.519C165.453 65.5118 165.455 65.5048 165.458 65.4983C165.461 65.4919 165.466 65.4862 165.471 65.4818C165.484 65.4642 165.502 65.4509 165.523 65.4437C165.543 65.4364 165.565 65.4355 165.586 65.4411L166.67 65.773C166.677 65.7772 166.683 65.7832 166.687 65.7903C166.691 65.7974 166.693 65.8054 166.693 65.8136C166.693 65.8218 166.691 65.8298 166.687 65.837C166.683 65.8441 166.677 65.85 166.67 65.8543C166.655 65.8717 166.636 65.8848 166.615 65.8919C166.593 65.8991 166.57 65.9001 166.548 65.8949Z" fill="white"/>
<path d="M170.577 68.082L158.258 84.3976C158.086 84.6243 157.854 84.798 157.588 84.8987C157.322 84.9993 157.033 85.0228 156.754 84.9665L148.186 82.3386C147.706 82.1896 147.597 81.6614 147.949 81.2347L160.269 64.9191C160.946 63.9845 161.4 64.0522 161.881 64.2012L163.594 64.7295C163.696 64.7295 163.703 64.8852 163.594 65.0071L163.554 65.0613C163.33 65.3593 163.513 65.4135 163.737 65.4812L167.706 66.7003C167.811 66.7595 167.935 66.7748 168.052 66.7432C168.168 66.7115 168.268 66.6353 168.329 66.531L168.369 66.4768C168.406 66.4182 168.459 66.3712 168.521 66.3412C168.583 66.3112 168.653 66.2995 168.721 66.3075L170.442 66.8358C170.95 66.978 171.227 67.2151 170.577 68.082Z" fill="white"/>
<path d="M170.573 68.082L169.652 69.3011L159.344 66.1382L160.265 64.9191C160.942 63.9845 161.396 64.0522 161.877 64.2012L163.59 64.7295C163.692 64.7295 163.699 64.8852 163.59 65.0071L163.55 65.0613C163.326 65.3593 163.509 65.4135 163.733 65.4812L167.701 66.7003C167.807 66.7595 167.931 66.7748 168.048 66.7432C168.164 66.7115 168.264 66.6353 168.324 66.531L168.365 66.4768C168.402 66.4182 168.454 66.3712 168.517 66.3412C168.579 66.3112 168.649 66.2995 168.717 66.3075L170.431 66.8358C170.945 66.978 171.223 67.2151 170.573 68.082Z" fill="#6366F1"/>
<path d="M160.835 65.8606L160.727 65.5151L161.221 65.3594L161.235 65.4136L160.828 65.549L160.916 65.8335L160.835 65.8606Z" fill="white"/>
<path d="M169.636 68.1246C169.622 68.1336 169.605 68.1383 169.589 68.1383C169.572 68.1383 169.556 68.1336 169.541 68.1246C169.536 68.1209 169.531 68.1159 169.528 68.11C169.525 68.1042 169.523 68.0976 169.523 68.091C169.523 68.0843 169.525 68.0778 169.528 68.0719C169.531 68.066 169.536 68.061 169.541 68.0573C169.552 68.0422 169.566 68.0304 169.583 68.0232C169.599 68.0161 169.618 68.0139 169.636 68.017C169.649 68.0641 169.663 68.0977 169.636 68.1246Z" fill="white"/>
<path d="M169.487 68.3136C169.472 68.3233 169.454 68.3284 169.436 68.3284C169.418 68.3284 169.401 68.3233 169.385 68.3136C169.38 68.3099 169.375 68.3049 169.372 68.299C169.369 68.2931 169.367 68.2865 169.367 68.2798C169.367 68.2731 169.369 68.2665 169.372 68.2605C169.375 68.2546 169.38 68.2496 169.385 68.2459C169.395 68.23 169.409 68.2175 169.426 68.2102C169.443 68.2029 169.462 68.2012 169.48 68.2053C169.495 68.2044 169.509 68.2092 169.519 68.2187C169.53 68.2283 169.537 68.2417 169.538 68.2561C169.539 68.2704 169.534 68.2846 169.524 68.2954C169.515 68.3062 169.501 68.3127 169.487 68.3136Z" fill="white"/>
<path d="M169.348 68.5044C169.333 68.514 169.316 68.5192 169.298 68.5192C169.28 68.5192 169.262 68.514 169.247 68.5044C169.213 68.5044 169.206 68.4638 169.247 68.4299C169.26 68.4164 169.276 68.4063 169.293 68.4004C169.311 68.3945 169.33 68.393 169.348 68.396C169.363 68.396 169.376 68.4017 169.387 68.4119C169.397 68.4221 169.403 68.4359 169.403 68.4502C169.403 68.4646 169.397 68.4784 169.387 68.4885C169.376 68.4987 169.363 68.5044 169.348 68.5044Z" fill="white"/>
<path d="M163.022 65.0101H162.975C162.967 64.983 162.953 64.9585 162.933 64.9393C162.912 64.9202 162.887 64.9071 162.859 64.9017C162.793 64.8817 162.723 64.8817 162.656 64.9017H162.69H162.758H162.873H162.92V64.9423L163.022 65.0101Z" fill="white"/>
<path d="M162.68 64.9905C162.726 64.9771 162.775 64.9771 162.822 64.9905C162.85 64.991 162.877 65.0005 162.899 65.0176C162.921 65.0347 162.936 65.0584 162.944 65.0853H162.903C162.896 65.0686 162.884 65.0539 162.87 65.0422C162.856 65.0304 162.84 65.022 162.822 65.0176C162.78 64.9901 162.729 64.9804 162.68 64.9905Z" fill="white"/>
<path d="M162.82 65.0696H162.779C162.776 65.06 162.771 65.0513 162.764 65.0442C162.757 65.0371 162.748 65.0319 162.739 65.029C162.714 65.0226 162.688 65.0226 162.664 65.029C162.759 64.9883 162.82 65.0086 162.82 65.0696Z" fill="white"/>
<path d="M162.754 65.0928C162.754 65.0928 162.754 65.0928 162.713 65.0928H162.747C162.747 65.0928 162.76 65.0861 162.754 65.0928Z" fill="white"/>
<path d="M161.375 64.5553C161.385 64.54 161.399 64.5276 161.416 64.5193C161.433 64.5109 161.451 64.5071 161.47 64.5079C161.477 64.5121 161.482 64.5181 161.486 64.5252C161.49 64.5324 161.493 64.5404 161.493 64.5486C161.493 64.5568 161.49 64.5648 161.486 64.5719C161.482 64.579 161.477 64.585 161.47 64.5892C161.457 64.6068 161.439 64.62 161.418 64.6273C161.398 64.6345 161.375 64.6354 161.354 64.6298C161.35 64.624 161.346 64.6171 161.345 64.6097C161.343 64.6023 161.343 64.5946 161.345 64.5874C161.347 64.5801 161.351 64.5734 161.356 64.5678C161.361 64.5622 161.368 64.558 161.375 64.5553Z" fill="white"/>
<path d="M161.585 64.6224C161.598 64.6048 161.616 64.5916 161.637 64.5843C161.657 64.5771 161.68 64.5762 161.701 64.5817C161.708 64.586 161.713 64.5919 161.717 64.599C161.722 64.6062 161.724 64.6142 161.724 64.6224C161.724 64.6306 161.722 64.6386 161.717 64.6457C161.713 64.6528 161.708 64.6588 161.701 64.663C161.687 64.6793 161.669 64.6917 161.649 64.6988C161.628 64.7059 161.607 64.7076 161.585 64.7037C161.578 64.6994 161.573 64.6935 161.569 64.6864C161.565 64.6792 161.562 64.6712 161.562 64.663C161.562 64.6548 161.565 64.6468 161.569 64.6397C161.573 64.6326 161.578 64.6266 161.585 64.6224Z" fill="white"/>
<path d="M161.8 64.6838C161.812 64.6672 161.829 64.655 161.848 64.6488C161.868 64.6427 161.889 64.6431 161.908 64.6499C161.949 64.6499 161.956 64.6973 161.908 64.7312C161.891 64.742 161.871 64.7478 161.851 64.7478C161.83 64.7478 161.81 64.742 161.793 64.7312C161.78 64.7583 161.773 64.7177 161.8 64.6838Z" fill="white"/>
<path d="M162.015 64.7492C162.029 64.7334 162.048 64.7215 162.068 64.7144C162.088 64.7073 162.109 64.7053 162.13 64.7086C162.137 64.7128 162.143 64.7187 162.147 64.7259C162.151 64.733 162.153 64.741 162.153 64.7492C162.153 64.7574 162.151 64.7654 162.147 64.7726C162.143 64.7797 162.137 64.7856 162.13 64.7898C162.117 64.8067 162.099 64.8195 162.079 64.8267C162.058 64.8339 162.036 64.8352 162.015 64.8305C162.008 64.8263 162.002 64.8203 161.998 64.8132C161.994 64.8061 161.992 64.798 161.992 64.7898C161.992 64.7817 161.994 64.7736 161.998 64.7665C162.002 64.7594 162.008 64.7534 162.015 64.7492Z" fill="white"/>
<path d="M162.226 64.8177C162.239 64.8001 162.257 64.7869 162.277 64.7796C162.298 64.7724 162.32 64.7715 162.341 64.7771C162.382 64.7771 162.389 64.8245 162.341 64.8583C162.328 64.8759 162.31 64.8892 162.29 64.8964C162.269 64.9037 162.247 64.9045 162.226 64.899C162.219 64.8948 162.213 64.8888 162.209 64.8817C162.205 64.8746 162.203 64.8665 162.203 64.8583C162.203 64.8501 162.205 64.8421 162.209 64.835C162.213 64.8279 162.219 64.8219 162.226 64.8177Z" fill="white"/>
<path d="M170.194 67.5906L169.32 67.3197L169.693 66.832L170.566 67.0962L170.194 67.5906Z" fill="white"/>
<path d="M170.13 67.167L169.771 67.0586L169.656 67.2076L170.015 67.3227L170.13 67.167Z" fill="white"/>
<path d="M170.219 67.3659L170.172 67.3524L170.267 67.2305L170.314 67.244L170.219 67.3659Z" fill="white"/>
<path d="M149.632 81.5545L149.557 81.5275L149.313 81.8526L149.164 81.8051L149.286 81.6426L149.029 81.5613L148.907 81.7239L148.758 81.6832L149.002 81.3581L148.92 81.3378L149.523 81.1211L149.632 81.5545Z" fill="#EBEBEB"/>
<path d="M157.688 83.7563L156.828 83.4922L156.909 83.3906L157.77 83.648L157.688 83.7563Z" fill="#EBEBEB"/>
<path d="M157.486 84.0248L156.633 83.7607L156.714 83.6523L157.567 83.9165L157.486 84.0248Z" fill="#EBEBEB"/>
<path d="M157.275 84.2983L156.422 84.0341L156.503 83.9258L157.357 84.1899L157.275 84.2983Z" fill="#EBEBEB"/>
<path d="M153.503 82.6839L153.083 82.8397L153.016 82.5349L153.083 82.5078L153.144 82.7652L153.483 82.6297L153.503 82.6839Z" fill="#EBEBEB"/>
<path d="M153.077 83.4086C152.994 83.4222 152.91 83.4222 152.827 83.4086C152.728 83.3782 152.638 83.3259 152.563 83.2554C152.488 83.185 152.43 83.0984 152.393 83.0022C152.363 82.8967 152.359 82.7855 152.381 82.6782C152.404 82.5708 152.452 82.4705 152.522 82.3859C152.645 82.2308 152.81 82.1145 152.997 82.0508C153.185 81.9872 153.386 81.9788 153.578 82.0269C153.677 82.0547 153.768 82.1063 153.842 82.1771C153.916 82.2479 153.972 82.3359 154.005 82.4333C154.036 82.5382 154.041 82.6491 154.02 82.7564C153.999 82.8638 153.952 82.9644 153.883 83.0496C153.783 83.165 153.66 83.2571 153.52 83.3191C153.381 83.3812 153.23 83.4117 153.077 83.4086ZM153.314 82.6365C153.232 82.6437 153.153 82.6769 153.091 82.7313C153.182 82.7284 153.271 82.695 153.341 82.6365H153.314Z" fill="#EBEBEB"/>
<path d="M164.176 66.6761C164.231 66.6097 164.303 66.5596 164.384 66.5309C164.465 66.5023 164.553 66.4963 164.637 66.5135C164.666 66.5205 164.693 66.5338 164.717 66.5525C164.74 66.5713 164.759 66.5949 164.772 66.6219C164.772 66.6219 164.772 66.6693 164.738 66.6761C164.705 66.6828 164.684 66.6761 164.678 66.6761C164.669 66.6572 164.655 66.6406 164.639 66.6277C164.622 66.6148 164.603 66.6058 164.583 66.6016C164.526 66.5814 164.464 66.5814 164.407 66.6016C164.352 66.621 164.303 66.6536 164.264 66.6964C164.249 66.7148 164.237 66.7366 164.231 66.7601C164.226 66.7836 164.225 66.8082 164.231 66.8318C164.239 66.8544 164.253 66.8748 164.27 66.8912C164.288 66.9077 164.309 66.9198 164.332 66.9267C164.381 66.9402 164.432 66.9402 164.481 66.9267H164.535C164.534 66.9387 164.528 66.95 164.52 66.9586C164.511 66.9672 164.5 66.9726 164.488 66.9741C164.417 66.9944 164.342 66.9944 164.271 66.9741C164.243 66.9639 164.217 66.9473 164.196 66.9255C164.175 66.9038 164.159 66.8774 164.15 66.8486C164.141 66.8197 164.138 66.7891 164.143 66.7592C164.147 66.7293 164.159 66.7008 164.176 66.6761Z" fill="white"/>
<path d="M164.592 67.062L164.89 66.6692C164.901 66.6633 164.914 66.6602 164.927 66.6602C164.94 66.6602 164.953 66.6633 164.964 66.6692C164.969 66.6724 164.972 66.6764 164.974 66.6811C164.977 66.6858 164.978 66.691 164.978 66.6963C164.978 66.7015 164.977 66.7067 164.974 66.7114C164.972 66.7161 164.969 66.7202 164.964 66.7234L164.843 66.8792L165.039 66.9401L165.161 66.7776C165.171 66.7716 165.183 66.7685 165.195 66.7685C165.207 66.7685 165.218 66.7716 165.229 66.7776C165.229 66.7776 165.262 66.7776 165.229 66.825L164.931 67.2246C164.92 67.2305 164.909 67.2336 164.897 67.2336C164.885 67.2336 164.873 67.2305 164.863 67.2246C164.863 67.2246 164.829 67.2246 164.863 67.1704L164.985 67.0078L164.788 66.9469L164.666 67.1094C164.655 67.1154 164.642 67.1185 164.629 67.1185C164.616 67.1185 164.603 67.1154 164.592 67.1094C164.592 67.1094 164.578 67.0891 164.592 67.062Z" fill="white"/>
<path d="M165.416 67.2175L165.226 67.1633L165.124 67.2378C165.116 67.2426 165.107 67.2451 165.097 67.2451C165.088 67.2451 165.079 67.2426 165.07 67.2378C165.07 67.2378 165.07 67.1972 165.07 67.1769L165.538 66.8315C165.547 66.8267 165.558 66.8242 165.568 66.8242C165.579 66.8242 165.589 66.8267 165.599 66.8315C165.599 66.8315 165.599 66.8315 165.599 66.8653L165.47 67.3123C165.465 67.3242 165.456 67.3344 165.445 67.3416C165.435 67.3488 165.422 67.3528 165.409 67.353C165.409 67.353 165.409 67.353 165.409 67.3191L165.416 67.2175ZM165.416 67.1362L165.463 66.9669L165.294 67.0956L165.416 67.1362Z" fill="white"/>
<path d="M166.093 67.0807L165.978 67.0401L165.707 67.4058C165.696 67.4124 165.683 67.4158 165.67 67.4158C165.657 67.4158 165.644 67.4124 165.633 67.4058V67.3584L165.904 66.9995L165.789 66.9588C165.789 66.9588 165.755 66.9588 165.789 66.9114C165.799 66.9055 165.811 66.9023 165.822 66.9023C165.834 66.9023 165.846 66.9055 165.856 66.9114L166.181 67.013V67.0604C166.171 67.073 166.157 67.0818 166.141 67.0854C166.125 67.0891 166.108 67.0875 166.093 67.0807Z" fill="white"/>
<path d="M155.328 73.2972L162.697 75.5593L164.255 73.5004L156.879 71.2383L155.328 73.2972Z" fill="#455A64"/>
<path d="M163.379 75.7685L162.695 75.5585L163.176 74.9219L163.379 75.7685Z" fill="#455A64"/>
<path d="M163.537 73.7652L157.008 71.7604L157.035 71.7266L163.564 73.7245L163.537 73.7652Z" fill="white"/>
<path d="M162.018 73.563L156.844 71.9781L156.871 71.9375L162.045 73.5223L162.018 73.563Z" fill="white"/>
<path d="M162.517 74.2315L156.523 72.3961L156.551 72.3555L162.544 74.1977L162.517 74.2315Z" fill="white"/>
<path d="M162.897 74.6118L156.375 72.6071L156.402 72.5664L162.931 74.5711L162.897 74.6118Z" fill="white"/>
<path d="M162.74 74.8227L156.211 72.818L156.238 72.7773L162.767 74.7821L162.74 74.8227Z" fill="white"/>
<path d="M160.767 74.4754L156.047 73.0261L156.081 72.9922L160.801 74.4348L160.767 74.4754Z" fill="white"/>
<path d="M151.656 78.1527L159.032 80.4148L160.583 78.3558L153.214 76.0938L151.656 78.1527Z" fill="#455A64"/>
<path d="M159.715 80.625L159.031 80.415L159.505 79.7852L159.715 80.625Z" fill="#455A64"/>
<path d="M159.865 78.6206L153.336 76.6159L153.363 76.582L159.892 78.58L159.865 78.6206Z" fill="white"/>
<path d="M158.346 78.4184L153.172 76.8336L153.206 76.793L158.38 78.3778L158.346 78.4184Z" fill="white"/>
<path d="M158.854 79.087L152.867 77.2516L152.894 77.2109L158.881 79.0531L158.854 79.087Z" fill="white"/>
<path d="M159.232 79.4672L152.703 77.4625L152.73 77.4219L159.259 79.4266L159.232 79.4672Z" fill="white"/>
<path d="M159.068 79.6782L152.539 77.6734L152.573 77.6328L159.102 79.6375L159.068 79.6782Z" fill="white"/>
<path d="M157.103 79.3309L152.383 77.8815L152.41 77.8477L157.131 79.297L157.103 79.3309Z" fill="white"/>
<path d="M166.478 71.6746L159.109 69.4125L160.417 67.6719L167.792 69.934L166.478 71.6746Z" fill="#6366F1"/>
<path d="M158.422 69.2001L159.106 69.4101L159.58 68.7734L158.422 69.2001Z" fill="#6366F1"/>
<path d="M166.01 69.8317L160.578 68.1656L160.605 68.125L166.044 69.7979L166.01 69.8317Z" fill="white"/>
<path d="M166.943 70.3774L160.414 68.3727L160.448 68.332L166.97 70.3368L166.943 70.3774Z" fill="white"/>
<path d="M166.78 70.5894L160.258 68.5846L160.285 68.5508L166.814 70.5487L166.78 70.5894Z" fill="white"/>
<path d="M166.108 70.6445L160.094 68.8024L160.121 68.7617L166.135 70.6039L166.108 70.6445Z" fill="white"/>
<path d="M166.46 71.0074L159.938 69.0094L159.965 68.9688L166.494 70.9735L166.46 71.0074Z" fill="white"/>
<path d="M164.603 70.6968L159.781 69.2203L159.808 69.1797L164.637 70.6629L164.603 70.6968Z" fill="white"/>
<path d="M165.291 73.2364L157.922 70.9743L158.89 69.6875L166.266 71.9496L165.291 73.2364Z" fill="#6366F1"/>
<path d="M157.242 70.7637L157.926 70.9736L158.4 70.3438L157.242 70.7637Z" fill="#6366F1"/>
<path d="M165.57 72.1792L159.055 70.1813L159.082 70.1406L165.597 72.1386L165.57 72.1792Z" fill="white"/>
<path d="M164.255 72.038L158.891 70.3922L158.924 70.3516L164.289 71.9973L164.255 72.038Z" fill="white"/>
<path d="M164.633 72.4115L158.734 70.6031L158.761 70.5625L164.667 72.3776L164.633 72.4115Z" fill="white"/>
<path d="M163.122 72.2093L158.57 70.8141L158.604 70.7734L163.155 72.1754L163.122 72.2093Z" fill="white"/>
<path d="M161.633 78.085L154.258 75.8229L155.633 74.0078L163.001 76.2699L161.633 78.085Z" fill="#DBDBDB"/>
<path d="M153.578 75.6142L154.255 75.8241L154.736 75.1875L153.578 75.6142Z" fill="#DBDBDB"/>
<path d="M161.476 77.0162L155.312 75.1266L155.346 75.0859L161.51 76.9823L161.476 77.0162Z" fill="white"/>
<path d="M160.818 77.0781L155.156 75.3375L155.183 75.2969L160.845 77.0375L160.818 77.0781Z" fill="white"/>
<path d="M161.444 76.4898L155.633 74.7086L155.667 74.668L161.471 76.4492L161.444 76.4898Z" fill="white"/>
<path d="M162.245 76.4753L155.797 74.4977L155.824 74.457L162.272 76.4347L162.245 76.4753Z" fill="white"/>
<path d="M160.865 77.3471L155 75.5456L155.034 75.5117L160.892 77.3065L160.865 77.3471Z" fill="white"/>
<path d="M158.172 82.6709L150.797 80.4088L151.941 78.8984L159.31 81.1605L158.172 82.6709Z" fill="#6366F1"/>
<path d="M150.117 80.2001L150.801 80.4101L151.275 79.7734L150.117 80.2001Z" fill="#6366F1"/>
<path d="M158.632 81.3785L152.109 79.3737L152.136 79.3398L158.665 81.3378L158.632 81.3785Z" fill="white"/>
<path d="M158.482 81.5894L151.953 79.5846L151.98 79.5508L158.509 81.5487L158.482 81.5894Z" fill="white"/>
<path d="M157.803 81.6406L151.789 79.7984L151.823 79.7578L157.83 81.6L157.803 81.6406Z" fill="white"/>
<path d="M158.162 82.0073L151.633 80.0094L151.66 79.9688L158.189 81.9735L158.162 82.0073Z" fill="white"/>
<path d="M156.298 81.6968L151.469 80.2203L151.503 80.1797L156.325 81.6629L156.298 81.6968Z" fill="white"/>
<path d="M155.453 87.3033C152.819 87.4048 161.264 81.885 161.325 78.8441C161.386 75.8031 158.481 76.8529 156.212 78.6003C148.348 84.6957 142.3 84.5264 138.372 90.2426C134.444 95.9588 155.453 87.3033 155.453 87.3033Z" fill="#EB9481"/>
<path d="M147.397 83.8281C145.687 84.2957 144.044 84.9784 142.507 85.86C141.14 86.7569 139.956 87.9062 139.019 89.2463C138.978 89.3073 139.059 89.3818 139.107 89.3208C141.206 86.6117 144.376 85.2098 147.417 83.8552C147.416 83.8495 147.413 83.8441 147.41 83.8395C147.406 83.8348 147.402 83.8309 147.397 83.8281Z" fill="#263238"/>
<path d="M117.78 95.724C119.845 96.232 134.034 91.9854 134.034 91.9854L142.5 111.24C142.5 111.24 117.753 117.607 111.901 115.731C106.049 113.855 96.5675 94.3085 93.3775 82.9099C90.3772 72.1954 93.8787 65.0773 101.837 76.0627C101.864 76.0627 116.703 95.4599 117.78 95.724Z" fill="#6366F1"/>
<path d="M138.001 112.309C136.402 112.674 134.492 113.108 132.427 113.548L124.672 94.5843C126.528 94.1305 128.471 93.6022 130.09 93.1484C132.481 98.9053 135.38 105.929 138.001 112.309Z" fill="#EBEBEB"/>
<path d="M130.264 113.989L128.469 114.348L120.734 95.4449C121.276 95.3433 121.865 95.2214 122.475 95.0859C124.818 100.748 127.67 107.656 130.264 113.989Z" fill="#EBEBEB"/>
<path d="M111.606 115.115C106.682 112.737 100.376 99.8354 99.164 97.3023C98.3851 95.6836 97.674 94.0311 96.9696 92.3785C95.5677 89.0599 94.2605 85.7074 93.0211 82.3345C93.024 82.3274 93.0251 82.3196 93.0242 82.3119C93.0234 82.3042 93.0207 82.2968 93.0163 82.2904C93.012 82.2839 93.0062 82.2787 92.9993 82.2751C92.9925 82.2714 92.9848 82.2695 92.9771 82.2695C92.9694 82.2695 92.9617 82.2714 92.9549 82.2751C92.948 82.2787 92.9422 82.2839 92.9378 82.2904C92.9335 82.2968 92.9308 82.3042 92.93 82.3119C92.9291 82.3196 92.9302 82.3274 92.9331 82.3345C93.6329 84.9488 94.4615 87.527 95.4187 90.069C94.808 89.1276 94.2539 88.1506 93.7593 87.1432C93.7593 87.0958 93.651 87.1432 93.6713 87.1838C94.1766 88.386 94.8246 89.5229 95.6015 90.5702C96.5768 93.1235 97.6672 95.6295 98.8728 98.0677C99.2182 98.7449 106.533 114.586 112.005 115.941C113.908 116.415 120.37 115.799 121.738 115.453C121.792 115.453 121.805 115.365 121.738 115.365C119.875 115.392 113.38 115.982 111.606 115.115Z" fill="#263238"/>
<path d="M137.079 108.982C136.822 108.305 136.565 107.628 136.3 106.991C135.772 105.67 132.589 97.8005 131.234 95.3487C131.234 95.281 131.099 95.3487 131.119 95.4029C131.912 98.112 135.271 105.867 135.86 107.147C136.145 107.824 136.429 108.454 136.727 109.104C137.025 109.754 137.404 110.384 137.689 111.041C137.689 111.102 137.824 111.041 137.797 111.001C137.526 110.344 137.35 109.646 137.079 108.982Z" fill="#263238"/>
<path d="M134.052 92.0123C132.866 92.0935 122.233 94.8297 119.883 95.3986C119.325 95.6004 118.735 95.6969 118.142 95.6831C117.562 95.5245 117.058 95.1643 116.72 94.6672C115.934 93.807 107.313 82.9503 106.69 82.422C106.459 82.2188 106.276 82.185 106.5 82.5304C106.886 83.1196 115.271 93.8409 116.029 94.7214C116.788 95.6018 117.384 96.3265 118.555 96.252C119.057 96.2181 133.408 92.6489 134.133 92.3373C134.255 92.2764 134.234 91.9987 134.052 92.0123Z" fill="#263238"/>
<path d="M105.925 73.9341C103.785 74.3269 98.3193 71.8142 96.9648 68.7191C96.8699 68.5024 97.3711 66.4028 97.8588 63.8156C98.1432 62.2443 98.4277 60.4834 98.536 58.8647C98.536 58.5328 108.485 62.2511 108.485 62.2511C107.726 64.2284 107.212 66.2915 106.955 68.394C106.93 68.6191 106.93 68.8462 106.955 69.0713C106.958 69.1073 106.958 69.1436 106.955 69.1796C107.11 70.4394 108.228 73.5074 105.925 73.9341Z" fill="#EB9481"/>
<path d="M107.018 69.044V69.1524C106.67 69.1672 106.322 69.1559 105.975 69.1185C100.002 68.4413 99.0808 60.8219 98.9453 58.8984C100.733 59.3183 108.536 62.2306 108.536 62.2306C107.776 64.2079 107.262 66.271 107.005 68.3735C106.989 68.597 106.993 68.8214 107.018 69.044Z" fill="#263238"/>
<path d="M94.47 48.2538C94.0975 52.0195 98.0189 61.8942 101.006 63.6754C105.327 66.2626 111.382 65.3754 113.312 60.4177C115.188 55.6091 109.851 42.8085 106.614 41.3118C101.866 39.0767 95.0186 42.6866 94.47 48.2538Z" fill="#EB9481"/>
<path d="M105.698 52.3828C105.698 52.3828 105.657 52.437 105.698 52.4573C105.975 53.1346 106.192 53.9202 105.698 54.3808C106.361 54.0218 106.07 52.9924 105.698 52.3828Z" fill="#263238"/>
<path d="M104.832 51.9151C103.728 52.2538 104.487 54.4414 105.51 54.123C106.532 53.8047 105.753 51.6374 104.832 51.9151Z" fill="#263238"/>
<path d="M109.648 51.1328C109.648 51.1328 109.716 51.1328 109.723 51.1734C109.94 51.8507 110.299 52.6093 110.989 52.6228C110.211 52.8125 109.743 51.8169 109.648 51.1328Z" fill="#263238"/>
<path d="M109.989 50.2165C111.052 49.756 111.892 51.9097 110.91 52.3364C109.928 52.7631 109.115 50.6026 109.989 50.2165Z" fill="#263238"/>
<path d="M103.621 51.2196C103.88 51.0366 104.129 50.8399 104.366 50.6304C104.655 50.4577 104.881 50.1965 105.01 49.8854C105.028 49.7789 105.012 49.6693 104.963 49.5729C104.914 49.4764 104.836 49.3984 104.739 49.3503C104.533 49.2869 104.314 49.2798 104.104 49.3298C103.894 49.3798 103.702 49.4851 103.547 49.6348C103.182 49.8863 102.926 50.266 102.829 50.6981C102.81 50.7977 102.822 50.9005 102.862 50.9936C102.901 51.0868 102.967 51.1662 103.052 51.2218C103.137 51.2775 103.236 51.307 103.337 51.3066C103.438 51.3062 103.537 51.2759 103.621 51.2196Z" fill="#263238"/>
<path d="M110.475 48.8289C110.15 48.8831 109.852 48.8763 109.527 48.9034C109.197 48.9738 108.852 48.9358 108.545 48.795C108.458 48.732 108.395 48.6422 108.364 48.5393C108.333 48.4364 108.338 48.3264 108.376 48.2261C108.484 48.0379 108.64 47.8816 108.828 47.7734C109.016 47.6651 109.229 47.6086 109.446 47.6098C109.883 47.5511 110.326 47.6547 110.692 47.901C110.773 47.9619 110.834 48.0448 110.868 48.1396C110.902 48.2344 110.908 48.3371 110.885 48.4353C110.862 48.5335 110.811 48.6229 110.739 48.6928C110.666 48.7626 110.574 48.8099 110.475 48.8289Z" fill="#263238"/>
<path d="M107.279 56.6019C107.544 56.8094 107.848 56.9604 108.173 57.0455C108.498 57.1305 108.837 57.1478 109.169 57.0964C109.459 57.0534 109.742 56.969 110.009 56.8458L110.165 56.7713L110.3 56.6968C110.333 56.6768 110.359 56.6473 110.375 56.6123C110.39 56.5772 110.395 56.5382 110.388 56.5004C110.392 56.4779 110.392 56.455 110.388 56.4326V56.3784C110.226 55.8502 109.9 55.0781 109.9 55.0781C110.124 55.0781 111.255 55.2068 111.133 54.9359C110.256 52.611 109.146 50.3805 107.821 48.2782C107.781 48.2105 107.672 48.2782 107.699 48.3392C108.498 50.4929 109.67 52.4909 110.503 54.6446C110.103 54.6045 109.7 54.6205 109.304 54.692C109.237 54.7394 109.982 56.1753 109.982 56.4191C109.57 56.6101 109.124 56.7163 108.67 56.7314C108.216 56.7465 107.764 56.6703 107.34 56.5071C107.232 56.5004 107.198 56.5613 107.279 56.6019Z" fill="#263238"/>
<path d="M109.59 56.6904C109.433 57.1608 109.158 57.5829 108.791 57.9163C108.584 58.0915 108.329 58.198 108.059 58.221C107.47 58.2684 107.287 57.774 107.24 57.3203C107.212 57.075 107.212 56.8273 107.24 56.582C107.991 56.8696 108.815 56.9076 109.59 56.6904Z" fill="#263238"/>
<path d="M108.793 57.9156C108.587 58.0908 108.331 58.1974 108.062 58.2204C107.472 58.2678 107.29 57.7734 107.242 57.3196C107.53 57.2326 107.839 57.2439 108.12 57.3519C108.401 57.4598 108.638 57.6581 108.793 57.9156Z" fill="#FF9BBC"/>
<path d="M97.8941 57.389C99.8311 56.5898 97.3862 51.2258 97.3862 51.2258C98.1804 50.8287 98.8458 50.2145 99.305 49.4545C99.7641 48.6944 99.9982 47.8197 99.9801 46.9319C99.9801 46.9319 108.29 46.2546 109.462 43.0172C110.634 39.7798 108.338 35.6417 107.315 35.6958C106.292 35.75 105.283 37.5245 105.283 37.5245C105.283 37.5245 104.206 36.2106 103.367 36.3054C102.073 36.4476 101.87 38.1679 101.335 38.73C99.8718 40.1997 94.8328 41.8252 93.7424 43.2678C93.43 43.6232 93.2103 44.0503 93.1027 44.5111C92.9952 44.9719 93.0032 45.4522 93.1261 45.9092C92.6696 46.209 92.2942 46.6168 92.0331 47.0964C91.772 47.5761 91.6333 48.1128 91.6293 48.6589C91.4668 51.1039 95.9436 58.2017 97.8941 57.389Z" fill="#263238"/>
<path d="M98.066 56.922C99.4815 54.8902 98.1066 52.1201 96.7656 50.3795C96.7656 50.3795 96.7656 50.3254 96.813 50.3795C98.1676 51.9711 99.7795 55.1205 98.1676 57.0169C98.155 57.0303 98.1376 57.0383 98.1192 57.0389C98.1008 57.0395 98.0829 57.0328 98.0694 57.0202C98.0559 57.0077 98.048 56.9903 98.0474 56.9718C98.0467 56.9534 98.0534 56.9355 98.066 56.922Z" fill="#263238"/>
<path d="M98.6289 46.6328C100.531 46.8837 102.46 46.8494 104.352 46.5312C105.211 46.3512 106.048 46.074 106.844 45.705C107.637 45.3392 109.045 44.7094 109.357 43.8086C109.041 44.5218 108.478 45.0967 107.772 45.4273C106.857 45.9893 105.861 46.4073 104.819 46.6667C102.776 47.1977 100.637 47.2395 98.5748 46.7886C98.4799 46.7751 98.5273 46.6261 98.6289 46.6328Z" fill="#263238"/>
<path d="M94.5569 42.0284C95.4798 41.4902 96.4368 41.0128 97.4218 40.5993C98.6274 40.0101 100.09 39.4344 101.045 38.4727H101.079C100.408 39.1591 99.6189 39.7189 98.7493 40.1252C97.8959 40.5925 97.0222 41.026 96.1418 41.4391C95.1394 41.9132 94.0354 42.455 93.4327 43.471C92.8299 44.4869 93.0331 45.5028 93.1617 46.5255C93.1617 46.5458 93.1547 46.5655 93.1418 46.5813C93.1289 46.597 93.1109 46.6078 93.091 46.6118C93.071 46.6158 93.0503 46.6127 93.0323 46.6032C93.0143 46.5936 93.0002 46.5781 92.9924 46.5593C92.7032 45.7384 92.7004 44.8437 92.9845 44.021C93.2686 43.1983 93.8228 42.4959 94.5569 42.0284Z" fill="#263238"/>
<path d="M92.6705 46.3984C90.5439 47.9426 91.6275 51.0852 92.7179 52.9342C93.6714 54.7467 95.1779 56.2082 97.0186 57.1062C97.1067 57.14 97.0186 57.2755 96.9509 57.2416C94.743 56.3747 93.1175 54.2616 92.1016 52.1891C91.3431 50.6246 90.4897 47.3263 92.6705 46.3984Z" fill="#263238"/>
<path d="M98.757 56.1988C98.757 56.1988 95.7161 53.4085 94.4021 54.5666C93.0882 55.7248 95.8786 60.1203 97.7885 60.3844C98.0304 60.4353 98.2801 60.4368 98.5226 60.3888C98.7651 60.3409 98.9954 60.2444 99.1997 60.1053C99.4039 59.9661 99.578 59.7872 99.7115 59.5791C99.8449 59.371 99.9349 59.1381 99.9761 58.8944L98.757 56.1988Z" fill="#EB9481"/>
<path d="M95.2344 55.8058V55.8532C96.5889 56.0835 97.4829 57.0791 98.1941 58.1695C98.0961 58.0615 97.9757 57.9761 97.8414 57.9194C97.707 57.8627 97.5619 57.836 97.4162 57.8412C97.2704 57.8464 97.1276 57.8832 96.9976 57.9493C96.8676 58.0154 96.7535 58.109 96.6634 58.2237C96.6634 58.2237 96.6634 58.2982 96.7108 58.2846C96.9113 58.1657 97.1441 58.1128 97.3762 58.1334C97.6084 58.1541 97.8282 58.2473 98.0044 58.3998C98.2992 58.6517 98.565 58.9356 98.7968 59.2464C98.8849 59.348 99.0678 59.2464 99 59.1245C98.6682 57.5193 96.9547 55.5891 95.2344 55.8058Z" fill="#263238"/>
<path d="M107.744 68.7891H107.71C108.388 70.7396 109.823 75.2909 106.748 75.8395C105.467 75.9481 104.182 75.6798 103.051 75.0674C101.886 74.5294 100.783 73.8687 99.759 73.0965C98.5749 72.2627 97.4605 71.334 96.4268 70.3197C96.3794 70.2723 96.3252 70.3197 96.3659 70.3874C97.4156 71.4033 98.3977 72.5005 99.5084 73.4148C100.595 74.3078 101.798 75.0484 103.084 75.616C104.28 76.2348 105.637 76.4712 106.972 76.2933C107.543 76.1592 108.05 75.8288 108.402 75.3597C108.755 74.8906 108.932 74.3126 108.902 73.7264C108.873 72.0168 108.478 70.3333 107.744 68.7891Z" fill="#263238"/>
<path d="M169.231 278.953H279.383V232.715H169.231V278.953Z" fill="#263238"/>
<path d="M171.32 232.715C171.32 232.715 172.837 225.909 175.865 224.866C178.892 223.823 180.741 226.897 180.741 226.897C180.741 226.897 181.452 220.396 185.746 218.452C190.04 216.508 193.271 220.484 193.271 220.484C193.271 220.484 196.569 212.234 202.455 212.234C208.34 212.234 211.313 224.303 211.313 224.303C211.313 224.303 214.795 220.707 218.357 222.739C221.92 224.771 221.92 232.736 221.92 232.736L171.32 232.715Z" fill="#37474F"/>
<path d="M231.672 232.714H277.286C277.286 232.714 275.783 226.531 272.755 226.09C269.728 225.65 268.319 228.522 268.319 228.522C268.319 228.522 268.455 219.9 262.806 218.43C257.158 216.961 252.417 224.58 252.417 224.58C252.417 224.58 248.868 220.239 244.039 220.516C239.21 220.794 237.984 227.966 237.984 227.966C237.984 227.966 233.609 225.481 231.672 232.714Z" fill="#37474F"/>
<path d="M218.648 232.717H246.688C246.688 232.717 246.62 228.707 243.863 227.644C243.118 227.327 242.291 227.254 241.502 227.435C240.712 227.616 240 228.043 239.468 228.653C239.468 228.653 238.344 221.277 233.21 221.277C228.076 221.277 225.611 227.644 225.611 227.644C225.165 227.027 224.551 226.552 223.843 226.275C223.134 225.997 222.361 225.93 221.615 226.079C218.764 226.431 218.648 232.717 218.648 232.717Z" fill="#455A64"/>
<path d="M191.116 278.824H283.219V273.365H191.116V278.824Z" fill="#6366F1"/>
<path d="M191.116 272.051H283.219V266.592H191.116V272.051Z" fill="#6366F1"/>
<path d="M191.116 265.273H283.219V259.815H191.116V265.273Z" fill="#6366F1"/>
<path d="M191.116 258.5H283.219V253.041H191.116V258.5Z" fill="#6366F1"/>
<path d="M191.116 251.719H283.219V246.26H191.116V251.719Z" fill="#6366F1"/>
<path d="M191.116 244.945H283.219V239.486H191.116V244.945Z" fill="#6366F1"/>
<path d="M191.116 238.168H283.219V232.709H191.116V238.168Z" fill="#6366F1"/>
<path d="M165.387 278.824H191.117V273.365H165.387V278.824Z" fill="#6366F1"/>
<path opacity="0.2" d="M165.387 278.824H191.117V273.365H165.387V278.824Z" fill="#020100"/>
<path d="M165.387 272.051H191.117V266.592H165.387V272.051Z" fill="#6366F1"/>
<path opacity="0.2" d="M165.387 272.051H191.117V266.592H165.387V272.051Z" fill="#020100"/>
<path d="M165.387 265.273H191.117V259.815H165.387V265.273Z" fill="#6366F1"/>
<path opacity="0.2" d="M165.387 265.273H191.117V259.815H165.387V265.273Z" fill="#020100"/>
<path d="M165.387 258.5H191.117V253.041H165.387V258.5Z" fill="#6366F1"/>
<path opacity="0.2" d="M165.387 258.5H191.117V253.041H165.387V258.5Z" fill="#020100"/>
<path d="M165.387 251.719H191.117V246.26H165.387V251.719Z" fill="#6366F1"/>
<path opacity="0.2" d="M165.387 251.719H191.117V246.26H165.387V251.719Z" fill="#020100"/>
<path d="M165.387 244.945H191.117V239.486H165.387V244.945Z" fill="#6366F1"/>
<path opacity="0.2" d="M165.387 244.945H191.117V239.486H165.387V244.945Z" fill="#020100"/>
<path d="M165.387 238.168H191.117V232.709H165.387V238.168Z" fill="#6366F1"/>
<path opacity="0.2" d="M165.387 238.168H191.117V232.709H165.387V238.168Z" fill="#020100"/>
</svg>
